<mxfile host="65bd71144e">
    <diagram id="31WXVTcso6JPfmka8QhM" name="Page-1">
        <mxGraphModel dx="1101" dy="587" grid="1" gridSize="10" guides="1" tooltips="1" connect="1" arrows="1" fold="1" page="1" pageScale="1" pageWidth="827" pageHeight="1169" math="0" shadow="0">
            <root>
                <mxCell id="0"/>
                <mxCell id="1" parent="0"/>
                <mxCell id="3" value="Slack/Mail etc&lt;br&gt;達成率などをレポート？" style="rounded=0;whiteSpace=wrap;html=1;" parent="1" vertex="1">
                    <mxGeometry x="270" y="350" width="150" height="60" as="geometry"/>
                </mxCell>
                <mxCell id="5" value="Cloud/Serverless" style="swimlane;fontStyle=0;childLayout=stackLayout;horizontal=1;startSize=30;horizontalStack=0;resizeParent=1;resizeParentMax=0;resizeLast=0;collapsible=1;marginBottom=0;whiteSpace=wrap;html=1;" parent="1" vertex="1">
                    <mxGeometry x="20" y="90" width="170" height="120" as="geometry"/>
                </mxCell>
                <mxCell id="6" value="Nike Run API * Notion API" style="text;strokeColor=none;fillColor=none;align=left;verticalAlign=middle;spacingLeft=4;spacingRight=4;overflow=hidden;points=[[0,0.5],[1,0.5]];portConstraint=eastwest;rotatable=0;whiteSpace=wrap;html=1;" parent="5" vertex="1">
                    <mxGeometry y="30" width="170" height="30" as="geometry"/>
                </mxCell>
                <mxCell id="7" value="Fitbit API&amp;nbsp;* Notion API" style="text;strokeColor=none;fillColor=none;align=left;verticalAlign=middle;spacingLeft=4;spacingRight=4;overflow=hidden;points=[[0,0.5],[1,0.5]];portConstraint=eastwest;rotatable=0;whiteSpace=wrap;html=1;" parent="5" vertex="1">
                    <mxGeometry y="60" width="170" height="30" as="geometry"/>
                </mxCell>
                <mxCell id="8" value="GitHub Action(https://github.com/marketplace/actions/commit-to-notion)" style="text;strokeColor=none;fillColor=none;align=left;verticalAlign=middle;spacingLeft=4;spacingRight=4;overflow=hidden;points=[[0,0.5],[1,0.5]];portConstraint=eastwest;rotatable=0;whiteSpace=wrap;html=1;" parent="5" vertex="1">
                    <mxGeometry y="90" width="170" height="30" as="geometry"/>
                </mxCell>
                <mxCell id="10" value="Notion" style="swimlane;fontStyle=0;childLayout=stackLayout;horizontal=1;startSize=30;horizontalStack=0;resizeParent=1;resizeParentMax=0;resizeLast=0;collapsible=1;marginBottom=0;whiteSpace=wrap;html=1;" parent="1" vertex="1">
                    <mxGeometry x="270" y="90" width="205" height="240" as="geometry"/>
                </mxCell>
                <mxCell id="11" value="&lt;span style=&quot;background-color: initial;&quot;&gt;走行距離(number)&lt;/span&gt;" style="text;strokeColor=none;fillColor=none;align=left;verticalAlign=middle;spacingLeft=4;spacingRight=4;overflow=hidden;points=[[0,0.5],[1,0.5]];portConstraint=eastwest;rotatable=0;whiteSpace=wrap;html=1;" parent="10" vertex="1">
                    <mxGeometry y="30" width="205" height="30" as="geometry"/>
                </mxCell>
                <mxCell id="12" value="歩数(number)" style="text;strokeColor=none;fillColor=none;align=left;verticalAlign=middle;spacingLeft=4;spacingRight=4;overflow=hidden;points=[[0,0.5],[1,0.5]];portConstraint=eastwest;rotatable=0;whiteSpace=wrap;html=1;" parent="10" vertex="1">
                    <mxGeometry y="60" width="205" height="30" as="geometry"/>
                </mxCell>
                <mxCell id="13" value="睡眠時間(number)" style="text;strokeColor=none;fillColor=none;align=left;verticalAlign=middle;spacingLeft=4;spacingRight=4;overflow=hidden;points=[[0,0.5],[1,0.5]];portConstraint=eastwest;rotatable=0;whiteSpace=wrap;html=1;" parent="10" vertex="1">
                    <mxGeometry y="90" width="205" height="30" as="geometry"/>
                </mxCell>
                <mxCell id="18" value="開発進捗(☑️) commit 見たい" style="text;strokeColor=none;fillColor=none;align=left;verticalAlign=middle;spacingLeft=4;spacingRight=4;overflow=hidden;points=[[0,0.5],[1,0.5]];portConstraint=eastwest;rotatable=0;whiteSpace=wrap;html=1;" parent="10" vertex="1">
                    <mxGeometry y="120" width="205" height="30" as="geometry"/>
                </mxCell>
                <mxCell id="22" value="読書(マニュアル)(☑️)" style="text;strokeColor=none;fillColor=none;align=left;verticalAlign=middle;spacingLeft=4;spacingRight=4;overflow=hidden;points=[[0,0.5],[1,0.5]];portConstraint=eastwest;rotatable=0;whiteSpace=wrap;html=1;" parent="10" vertex="1">
                    <mxGeometry y="150" width="205" height="30" as="geometry"/>
                </mxCell>
                <mxCell id="23" value="競プロ(マニュアル)(☑️)" style="text;strokeColor=none;fillColor=none;align=left;verticalAlign=middle;spacingLeft=4;spacingRight=4;overflow=hidden;points=[[0,0.5],[1,0.5]];portConstraint=eastwest;rotatable=0;whiteSpace=wrap;html=1;" parent="10" vertex="1">
                    <mxGeometry y="180" width="205" height="30" as="geometry"/>
                </mxCell>
                <mxCell id="24" value="英語(マニュアル)(☑️)" style="text;strokeColor=none;fillColor=none;align=left;verticalAlign=middle;spacingLeft=4;spacingRight=4;overflow=hidden;points=[[0,0.5],[1,0.5]];portConstraint=eastwest;rotatable=0;whiteSpace=wrap;html=1;" parent="10" vertex="1">
                    <mxGeometry y="210" width="205" height="30" as="geometry"/>
                </mxCell>
                <mxCell id="14" style="edgeStyle=none;html=1;exitX=1;exitY=0.5;exitDx=0;exitDy=0;" parent="1" source="6" target="11" edge="1">
                    <mxGeometry relative="1" as="geometry"/>
                </mxCell>
                <mxCell id="15" style="edgeStyle=none;html=1;exitX=1;exitY=0.5;exitDx=0;exitDy=0;" parent="1" source="7" target="12" edge="1">
                    <mxGeometry relative="1" as="geometry"/>
                </mxCell>
                <mxCell id="16" style="edgeStyle=none;html=1;entryX=0;entryY=0.5;entryDx=0;entryDy=0;exitX=1;exitY=0.5;exitDx=0;exitDy=0;" parent="1" source="7" target="13" edge="1">
                    <mxGeometry relative="1" as="geometry"/>
                </mxCell>
                <mxCell id="21" value="&lt;h1&gt;&lt;font style=&quot;font-size: 16px;&quot;&gt;手順&lt;/font&gt;&lt;/h1&gt;&lt;p&gt;&lt;span style=&quot;background-color: initial;&quot;&gt;1. NRC API および Fitbit API などからデータ取得&lt;/span&gt;&lt;/p&gt;&lt;p&gt;&lt;span style=&quot;background-color: initial;&quot;&gt;2. 1 を NotionAPI で該当ページ/DB に登録/更新する&lt;/span&gt;&lt;/p&gt;&lt;p style=&quot;font-size: 16px;&quot;&gt;タイミング&lt;/p&gt;&lt;p style=&quot;&quot;&gt;スケジューラー機能でその日の終わりに発火など&lt;/p&gt;" style="text;html=1;strokeColor=none;fillColor=none;spacing=5;spacingTop=-20;whiteSpace=wrap;overflow=hidden;rounded=0;" parent="1" vertex="1">
                    <mxGeometry x="510" y="90" width="370" height="180" as="geometry"/>
                </mxCell>
                <mxCell id="31" value="Notion Integration" style="swimlane;fontStyle=0;childLayout=stackLayout;horizontal=1;startSize=30;horizontalStack=0;resizeParent=1;resizeParentMax=0;resizeLast=0;collapsible=1;marginBottom=0;whiteSpace=wrap;html=1;" parent="1" vertex="1">
                    <mxGeometry x="20" y="290" width="170" height="90" as="geometry">
                        <mxRectangle x="20" y="230" width="140" height="30" as="alternateBounds"/>
                    </mxGeometry>
                </mxCell>
                <mxCell id="32" value="GitHub" style="text;strokeColor=none;fillColor=none;align=left;verticalAlign=middle;spacingLeft=4;spacingRight=4;overflow=hidden;points=[[0,0.5],[1,0.5]];portConstraint=eastwest;rotatable=0;whiteSpace=wrap;html=1;" parent="31" vertex="1">
                    <mxGeometry y="30" width="170" height="30" as="geometry"/>
                </mxCell>
                <mxCell id="36" value="Slack" style="text;strokeColor=none;fillColor=none;align=left;verticalAlign=middle;spacingLeft=4;spacingRight=4;overflow=hidden;points=[[0,0.5],[1,0.5]];portConstraint=eastwest;rotatable=0;whiteSpace=wrap;html=1;" parent="31" vertex="1">
                    <mxGeometry y="60" width="170" height="30" as="geometry"/>
                </mxCell>
                <mxCell id="35" style="edgeStyle=none;html=1;exitX=1;exitY=0.5;exitDx=0;exitDy=0;entryX=0;entryY=0.5;entryDx=0;entryDy=0;fontSize=12;fontColor=#a7a5a5;dashed=1;dashPattern=8 8;" parent="1" source="32" target="18" edge="1">
                    <mxGeometry relative="1" as="geometry"/>
                </mxCell>
                <mxCell id="37" style="edgeStyle=none;html=1;exitX=1;exitY=0.5;exitDx=0;exitDy=0;entryX=0;entryY=0.5;entryDx=0;entryDy=0;fontSize=12;" parent="1" source="36" target="3" edge="1">
                    <mxGeometry relative="1" as="geometry"/>
                </mxCell>
                <mxCell id="38" style="edgeStyle=none;html=1;exitX=1;exitY=0.5;exitDx=0;exitDy=0;entryX=0;entryY=0.5;entryDx=0;entryDy=0;fontSize=12;" parent="1" source="8" target="18" edge="1">
                    <mxGeometry relative="1" as="geometry">
                        <mxPoint x="200" y="345" as="sourcePoint"/>
                        <mxPoint x="280" y="235" as="targetPoint"/>
                    </mxGeometry>
                </mxCell>
                <mxCell id="40" value="&lt;h1&gt;&lt;font style=&quot;font-size: 20px;&quot;&gt;Fitbit data fetch&lt;/font&gt;&lt;/h1&gt;&lt;p&gt;&lt;/p&gt;&lt;p&gt;&lt;/p&gt;&lt;ol&gt;&lt;li&gt;あらかじめ Authorization code を取得した上で、Access token 取得API を叩いて refresh_token を取得しておく&lt;/li&gt;&lt;li&gt;最新の refresh_token を使用して Refresh token 取得 API をコールし、{access_token, refresh_token} のペアを取得する&lt;/li&gt;&lt;li&gt;&lt;span style=&quot;background-color: initial;&quot;&gt;2 で取得した access_token を使用して、任意のデータを取得する Fitbit Rest API をコールする&lt;/span&gt;&lt;/li&gt;&lt;ol&gt;&lt;li&gt;データを適宜整形して、Notion API により登録する&lt;/li&gt;&lt;/ol&gt;&lt;li&gt;2 で取得した refresh_token を保存する&lt;/li&gt;&lt;/ol&gt;&lt;span style=&quot;background-color: initial;&quot;&gt;&lt;b&gt;※1 は初回のみ実行し、2→4 を一日一回ずつ繰り返す&lt;/b&gt;&lt;/span&gt;&lt;br&gt;&lt;p&gt;&lt;/p&gt;" style="text;html=1;strokeColor=default;fillColor=none;spacing=5;spacingTop=-20;whiteSpace=wrap;overflow=hidden;rounded=0;" parent="1" vertex="1">
                    <mxGeometry x="20" y="490" width="790" height="210" as="geometry"/>
                </mxCell>
                <mxCell id="42" value="" style="endArrow=none;dashed=1;html=1;dashPattern=1 3;strokeWidth=2;" parent="1" edge="1">
                    <mxGeometry width="50" height="50" relative="1" as="geometry">
                        <mxPoint x="20" y="460" as="sourcePoint"/>
                        <mxPoint x="860" y="460" as="targetPoint"/>
                    </mxGeometry>
                </mxCell>
                <mxCell id="54" value="&lt;h1&gt;&lt;font style=&quot;font-size: 20px;&quot;&gt;NRC&lt;/font&gt;&lt;/h1&gt;&lt;p&gt;&lt;/p&gt;&lt;ol&gt;&lt;li&gt;get Bearer token(access_token)&lt;ol&gt;&lt;li&gt;Visit `https://www.nike.com/jp/`.&lt;/li&gt;&lt;li&gt;Open browser's Dev tool and select `Network` tab.&lt;/li&gt;&lt;li&gt;Filter network communication with `api.nike.com`.&lt;/li&gt;&lt;li&gt;Select a request named `count` and check `Authorization` header.&lt;/li&gt;&lt;/ol&gt;&lt;/li&gt;&lt;li&gt;fetch activities with access_token&lt;/li&gt;&lt;/ol&gt;&lt;p&gt;&lt;/p&gt;" style="text;html=1;strokeColor=default;fillColor=none;spacing=5;spacingTop=-20;whiteSpace=wrap;overflow=hidden;rounded=0;fontSize=14;" parent="1" vertex="1">
                    <mxGeometry x="20" y="720" width="790" height="220" as="geometry"/>
                </mxCell>
                <mxCell id="90" value="" style="group" vertex="1" connectable="0" parent="1">
                    <mxGeometry x="850" y="490" width="1030" height="420" as="geometry"/>
                </mxCell>
                <mxCell id="57" value="&lt;h1&gt;&lt;font style=&quot;font-size: 20px;&quot;&gt;Architecture(GCP/Fitbit/Notion)&lt;/font&gt;&lt;/h1&gt;&lt;br&gt;&lt;p&gt;&lt;/p&gt;" style="text;html=1;spacing=5;spacingTop=-20;whiteSpace=wrap;overflow=hidden;rounded=0;fillColor=#CCCCCC;" parent="90" vertex="1">
                    <mxGeometry width="1030" height="420" as="geometry"/>
                </mxCell>
                <mxCell id="82" value="" style="rounded=1;whiteSpace=wrap;html=1;strokeColor=#001DBC;fontSize=20;arcSize=6;fillColor=#0050ef;fontColor=#ffffff;" parent="90" vertex="1">
                    <mxGeometry x="20" y="34" width="530" height="216" as="geometry"/>
                </mxCell>
                <mxCell id="45" value="Cloud Scheduler" style="rounded=0;whiteSpace=wrap;html=1;strokeColor=default;fontSize=14;fillColor=#FFFFFF;fontColor=#202020;" parent="90" vertex="1">
                    <mxGeometry x="30" y="140" width="120" height="60" as="geometry"/>
                </mxCell>
                <mxCell id="47" value="Pub/Sub topic" style="whiteSpace=wrap;html=1;fontSize=14;rounded=0;fillColor=#FFFFFF;fontColor=#202020;" parent="90" vertex="1">
                    <mxGeometry x="220" y="140" width="120" height="60" as="geometry"/>
                </mxCell>
                <mxCell id="48" value="" style="edgeStyle=none;html=1;fontSize=14;" parent="90" source="45" target="47" edge="1">
                    <mxGeometry relative="1" as="geometry"/>
                </mxCell>
                <mxCell id="76" value="" style="edgeStyle=none;html=1;fontSize=20;" parent="90" edge="1">
                    <mxGeometry relative="1" as="geometry">
                        <mxPoint x="530" y="180" as="sourcePoint"/>
                        <mxPoint x="630" y="180" as="targetPoint"/>
                    </mxGeometry>
                </mxCell>
                <mxCell id="49" value="Cloud Functions" style="whiteSpace=wrap;html=1;fontSize=14;rounded=0;fillColor=#FFFFFF;fontColor=#202020;" parent="90" vertex="1">
                    <mxGeometry x="410" y="140" width="120" height="60" as="geometry"/>
                </mxCell>
                <mxCell id="50" value="" style="edgeStyle=none;html=1;fontSize=14;" parent="90" source="47" target="49" edge="1">
                    <mxGeometry relative="1" as="geometry"/>
                </mxCell>
                <mxCell id="52" value="&lt;ul&gt;&lt;li&gt;Write record with Notion API&lt;/li&gt;&lt;/ul&gt;" style="text;html=1;strokeColor=none;fillColor=none;align=left;verticalAlign=middle;whiteSpace=wrap;rounded=0;fontSize=14;" parent="90" vertex="1">
                    <mxGeometry x="410" y="340" width="400" height="60" as="geometry"/>
                </mxCell>
                <mxCell id="67" value="Firestore" style="whiteSpace=wrap;html=1;fontSize=14;rounded=0;fillColor=#FFFFFF;fontColor=#202020;" parent="90" vertex="1">
                    <mxGeometry x="410" y="40" width="120" height="60" as="geometry"/>
                </mxCell>
                <mxCell id="68" value="" style="edgeStyle=none;html=1;fontSize=20;" parent="90" source="49" target="67" edge="1">
                    <mxGeometry relative="1" as="geometry"/>
                </mxCell>
                <mxCell id="73" value="Notion" style="whiteSpace=wrap;html=1;fontSize=14;rounded=0;fillColor=#FFFFFF;fontColor=#202020;" parent="90" vertex="1">
                    <mxGeometry x="410" y="290" width="120" height="60" as="geometry"/>
                </mxCell>
                <mxCell id="74" value="" style="edgeStyle=none;html=1;fontSize=20;" parent="90" source="49" target="73" edge="1">
                    <mxGeometry relative="1" as="geometry"/>
                </mxCell>
                <mxCell id="75" value="Fitbit" style="whiteSpace=wrap;html=1;fontSize=14;rounded=0;fillColor=#FFFFFF;fontColor=#202020;" parent="90" vertex="1">
                    <mxGeometry x="640" y="140" width="120" height="60" as="geometry"/>
                </mxCell>
                <mxCell id="77" value="&lt;ul&gt;&lt;li&gt;Issue pair of {access_token, refresh_token} with previous refresh token&lt;/li&gt;&lt;li&gt;Fetch data with Fitbit Rest API(sleep, distance etc..) using &lt;b&gt;access token&lt;/b&gt;&lt;/li&gt;&lt;/ul&gt;" style="text;html=1;strokeColor=none;fillColor=none;align=left;verticalAlign=middle;whiteSpace=wrap;rounded=0;fontSize=14;" parent="90" vertex="1">
                    <mxGeometry x="510" y="200" width="500" height="60" as="geometry"/>
                </mxCell>
                <mxCell id="79" value="" style="edgeStyle=none;html=1;fontSize=20;strokeColor=default;endArrow=none;endFill=0;startArrow=classic;startFill=1;" parent="90" edge="1">
                    <mxGeometry relative="1" as="geometry">
                        <mxPoint x="530" y="159" as="sourcePoint"/>
                        <mxPoint x="630" y="159" as="targetPoint"/>
                    </mxGeometry>
                </mxCell>
                <mxCell id="84" value="GCP" style="text;html=1;strokeColor=none;fillColor=none;align=center;verticalAlign=middle;whiteSpace=wrap;rounded=0;fontSize=16;fontStyle=1" parent="90" vertex="1">
                    <mxGeometry x="20" y="95.43000000000006" width="70" height="30" as="geometry"/>
                </mxCell>
                <mxCell id="86" value="" style="shape=image;verticalLabelPosition=bottom;labelBackgroundColor=default;verticalAlign=top;aspect=fixed;imageAspect=0;image=data:image/png,iVBORw0KGgoAAAANSUhEUgAAAU4AAAFSCAYAAACdRzaJAAAMP2lDQ1BJQ0MgUHJvZmlsZQAASImVVwdYU8kWnluSkEBoAQSkhN4EkRpASggt9N5EJSQBQokxEFTs6KKCaxcL2NBVEQUrzYIidhbF3hcLKsq6WLArb1JA133le/N9c+e//5z5z5lzZ+69A4DacY5IlIeqA5AvLBTHBvvTk1NS6aSngAI0ABWgwJDDLRAxo6PDASxD7d/Lu+sAkbZX7KVa/+z/r0WDxy/gAoBEQ5zBK+DmQ3wQALyKKxIXAkCU8mZTCkVSDCvQEsMAIV4oxVlyXCXFGXK8V2YTH8uCuB0AJRUOR5wFgOolyNOLuFlQQ7UfYkchTyAEQI0OsU9+/iQexOkQW0MbEcRSfUbGDzpZf9PMGNbkcLKGsXwusqIUICgQ5XGm/Z/p+N8lP08y5MMSVpVscUisdM4wbzdzJ4VJsQrEfcKMyCiINSH+IODJ7CFGKdmSkAS5PWrALWDBnAEdiB15nIAwiA0gDhLmRYYr+IxMQRAbYrhC0KmCQnY8xLoQL+QXBMYpbDaLJ8UqfKENmWIWU8Gf5YhlfqW+7ktyE5gK/dfZfLZCH1Mtzo5PgpgCsXmRIDESYlWIHQpy48IUNmOLs1mRQzZiSaw0fnOIY/nCYH+5PlaUKQ6KVdiX5RcMzRfbnC1gRyrw/sLs+BB5frB2LkcWP5wLdokvZCYM6fALksOH5sLjBwTK54494wsT4hQ6H0SF/rHysThFlBetsMdN+XnBUt4UYpeCojjFWDyxEC5IuT6eKSqMjpfHiRfncEKj5fHgy0A4YIEAQAcSWDPAJJADBJ19jX3wTt4TBDhADLIAH9grmKERSbIeIbzGgWLwJ0R8UDA8zl/WywdFkP86zMqv9iBT1lskG5ELnkCcD8JAHryXyEYJh70lgseQEfzDOwdWLow3D1Zp/7/nh9jvDBMy4QpGMuSRrjZkSQwkBhBDiEFEG1wf98G98HB49YPVCWfgHkPz+G5PeELoIjwkXCN0E25NFJSIf4oyAnRD/SBFLjJ+zAVuCTVdcX/cG6pDZVwH1wf2uAv0w8R9oWdXyLIUcUuzQv9J+28z+OFpKOzIjmSUPILsR7b+eaSqrarrsIo01z/mRx5rxnC+WcM9P/tn/ZB9HmzDfrbEFmIHsDPYCewcdgRrBHSsFWvCOrCjUjy8uh7LVteQt1hZPLlQR/APf0NPVprJAsdax17HL/K+Qv5U6TsasCaJpokFWdmFdCb8IvDpbCHXYRTdydHJGQDp90X++noTI/tuIDod37l5fwDg3To4OHj4OxfaCsA+d7j9m79z1gz46VAG4GwzVyIuknO49EKAbwk1uNP0gBEwA9ZwPk7ADXgBPxAIQkEUiAcpYAKMPhuuczGYAmaAuaAUlINlYDVYDzaBrWAn2AP2g0ZwBJwAp8EFcAlcA3fg6ukBL0A/eAc+IwhCQqgIDdFDjBELxA5xQhiIDxKIhCOxSAqSjmQhQkSCzEDmIeXICmQ9sgWpQfYhzcgJ5BzShdxCHiC9yGvkE4qhKqgWaohaoqNRBspEw9B4dDyahU5Gi9H56BJ0LVqN7kYb0BPoBfQa2o2+QAcwgCljOpgJZo8xMBYWhaVimZgYm4WVYRVYNVaHtcDnfAXrxvqwjzgRp+F03B6u4BA8Aefik/FZ+GJ8Pb4Tb8Db8Sv4A7wf/0agEgwIdgRPApuQTMgiTCGUEioI2wmHCKfgXuohvCMSiTpEK6I73IspxBzidOJi4gZiPfE4sYv4iDhAIpH0SHYkb1IUiUMqJJWS1pF2k1pJl0k9pA9KykrGSk5KQUqpSkKlEqUKpV1Kx5QuKz1V+kxWJ1uQPclRZB55GnkpeRu5hXyR3EP+TNGgWFG8KfGUHMpcylpKHeUU5S7ljbKysqmyh3KMskB5jvJa5b3KZ5UfKH9U0VSxVWGppKlIVJao7FA5rnJL5Q2VSrWk+lFTqYXUJdQa6knqfeoHVZqqgypblac6W7VStUH1supLNbKahRpTbYJasVqF2gG1i2p96mR1S3WWOkd9lnqlerP6DfUBDZrGGI0ojXyNxRq7NM5pPNMkaVpqBmryNOdrbtU8qfmIhtHMaCwalzaPto12itajRdSy0mJr5WiVa+3R6tTq19bUdtFO1J6qXal9VLtbB9Ox1GHr5Oks1dmvc13n0wjDEcwR/BGLRtSNuDzive5IXT9dvm6Zbr3uNd1PenS9QL1cveV6jXr39HF9W/0Y/Sn6G/VP6feN1BrpNZI7smzk/pG3DVADW4NYg+kGWw06DAYMjQyDDUWG6wxPGvYZ6Rj5GeUYrTI6ZtRrTDP2MRYYrzJuNX5O16Yz6Xn0tfR2er+JgUmIicRki0mnyWdTK9ME0xLTetN7ZhQzhlmm2SqzNrN+c2PzCPMZ5rXmty3IFgyLbIs1Fmcs3ltaWSZZLrBstHxmpWvFtiq2qrW6a0219rWebF1tfdWGaMOwybXZYHPJFrV1tc22rbS9aIfaudkJ7DbYdY0ijPIYJRxVPeqGvYo9077Ivtb+gYOOQ7hDiUOjw8vR5qNTRy8ffWb0N0dXxzzHbY53xmiOCR1TMqZlzGsnWyeuU6XTVWeqc5DzbOcm51cudi58l40uN11prhGuC1zbXL+6ubuJ3ercet3N3dPdq9xvMLQY0YzFjLMeBA9/j9keRzw+erp5Fnru9/zLy94r12uX17OxVmP5Y7eNfeRt6s3x3uLd7UP3SffZ7NPta+LL8a32fehn5sfz2+73lGnDzGHuZr70d/QX+x/yf8/yZM1kHQ/AAoIDygI6AzUDEwLXB94PMg3KCqoN6g92DZ4efDyEEBIWsjzkBtuQzWXXsPtD3UNnhraHqYTFha0PexhuGy4Ob4lAI0IjVkbcjbSIFEY2RoEodtTKqHvRVtGTow/HEGOiYypjnsSOiZ0ReyaOFjcxblfcu3j/+KXxdxKsEyQJbYlqiWmJNYnvkwKSViR1J49Onpl8IUU/RZDSlEpKTUzdnjowLnDc6nE9aa5ppWnXx1uNnzr+3AT9CXkTjk5Um8iZeCCdkJ6Uviv9CyeKU80ZyGBnVGX0c1ncNdwXPD/eKl4v35u/gv800ztzReazLO+slVm92b7ZFdl9ApZgveBVTkjOppz3uVG5O3IH85Ly6vOV8tPzm4Wawlxh+ySjSVMndYnsRKWi7smek1dP7heHibcXIAXjC5oKteCPfIfEWvKL5EGRT1Fl0YcpiVMOTNWYKpzaMc122qJpT4uDin+bjk/nTm+bYTJj7owHM5kzt8xCZmXMapttNnv+7J45wXN2zqXMzZ37e4ljyYqSt/OS5rXMN5w/Z/6jX4J/qS1VLRWX3ljgtWDTQnyhYGHnIudF6xZ9K+OVnS93LK8o/7KYu/j8r2N+Xfvr4JLMJZ1L3ZZuXEZcJlx2fbnv8p0rNFYUr3i0MmJlwyr6qrJVb1dPXH2uwqVi0xrKGsma7rXha5vWma9btu7L+uz11yr9K+urDKoWVb3fwNtweaPfxrpNhpvKN33aLNh8c0vwloZqy+qKrcStRVufbEvcduY3xm812/W3l2//ukO4o3tn7M72Gveaml0Gu5bWorWS2t7dabsv7QnY01RnX7elXqe+fC/YK9n7fF/6vuv7w/a3HWAcqDtocbDqEO1QWQPSMK2hvzG7sbsppamrObS5rcWr5dBhh8M7jpgcqTyqfXTpMcqx+ccGW4tbB46LjvedyDrxqG1i252TySevtse0d54KO3X2dNDpk2eYZ1rPep89cs7zXPN5xvnGC24XGjpcOw797vr7oU63zoaL7hebLnlcauka23Xssu/lE1cCrpy+yr564Vrkta7rCddv3ki70X2Td/PZrbxbr24X3f58Z85dwt2ye+r3Ku4b3K/+w+aP+m637qMPAh50PIx7eOcR99GLxwWPv/TMf0J9UvHU+GnNM6dnR3qDei89H/e854Xoxee+0j81/qx6af3y4F9+f3X0J/f3vBK/Gny9+I3emx1vXd62DUQP3H+X/+7z+7IPeh92fmR8PPMp6dPTz1O+kL6s/WrzteVb2Le7g/mDgyKOmCP7FcBgRTMzAXi9AwBqCgA0eD6jjJOf/2QFkZ9ZZQj8Jyw/I8qKGwB18P89pg/+3dwAYO82ePyC+mppAERTAYj3AKiz83AdOqvJzpXSQoTngM3RXzPyM8C/KfIz5w9x/9wCqaoL+Ln9F8ljfFELuSR2AAAAimVYSWZNTQAqAAAACAAEARoABQAAAAEAAAA+ARsABQAAAAEAAABGASgAAwAAAAEAAgAAh2kABAAAAAEAAABOAAAAAAAAAJAAAAABAAAAkAAAAAEAA5KGAAcAAAASAAAAeKACAAQAAAABAAABTqADAAQAAAABAAABUgAAAABBU0NJSQAAAFNjcmVlbnNob3TCH+mOAAAACXBIWXMAABYlAAAWJQFJUiTwAAAB1mlUWHRYTUw6Y29tLmFkb2JlLnhtcAAAAAAAPHg6eG1wbWV0YSB4bWxuczp4PSJhZG9iZTpuczptZXRhLyIgeDp4bXB0az0iWE1QIENvcmUgNi4wLjAiPgogICA8cmRmOlJERiB4bWxuczpyZGY9Imh0dHA6Ly93d3cudzMub3JnLzE5OTkvMDIvMjItcmRmLXN5bnRheC1ucyMiPgogICAgICA8cmRmOkRlc2NyaXB0aW9uIHJkZjphYm91dD0iIgogICAgICAgICAgICB4bWxuczpleGlmPSJodHRwOi8vbnMuYWRvYmUuY29tL2V4aWYvMS4wLyI+CiAgICAgICAgIDxleGlmOlBpeGVsWURpbWVuc2lvbj4zMzg8L2V4aWY6UGl4ZWxZRGltZW5zaW9uPgogICAgICAgICA8ZXhpZjpQaXhlbFhEaW1lbnNpb24+MzM0PC9leGlmOlBpeGVsWERpbWVuc2lvbj4KICAgICAgICAgPGV4aWY6VXNlckNvbW1lbnQ+U2NyZWVuc2hvdDwvZXhpZjpVc2VyQ29tbWVudD4KICAgICAgPC9yZGY6RGVzY3JpcHRpb24+CiAgIDwvcmRmOlJERj4KPC94OnhtcG1ldGE+Cr2wwsAAAAAcaURPVAAAAAIAAAAAAAAAqQAAACgAAACpAAAAqQAAPxcgqaxxAAA+40lEQVR4AeydZ3NcR7KmC957bwl6T0qiDOU1M3E3bsxG7If9m/ttd+7ejZg7Gs3IkSOSIinRSTQA4b33bp+3uhuCQABstDl9upkVaLQ7fU5l1qm30lVm3v/8X3/ZdrGWlxd7FXn2b3/77LdXfL3nu9//8PXf/+5cr/w4+sHe/hx0nH1uHDAOGAcC5ECeAWeA3LZLGQeMAznBAQPOnBhGI8I4YBwIkgMGnEFy265lHDAO5AQHDDhzYhiNCOOAcSBIDhhwBsltu5ZxwDiQExww4MyJYTQijAPGgSA5YMAZJLftWsYB40BOcMCAMyeG0YgwDhgHguSAAWeQ3LZrGQeMAznBAQPOnBhGI8I4YBwIkgMGnEFy265lHDAO5AQHDDhzYhiNCOOAcSBIDhhwBsltu5ZxwDiQExww4MyJYTQijAPGgSA5YMAZJLftWsYB40BOcMCAMyeG0YgwDhgHguSAAWeQ3LZrGQeMAznBAQPOnBhGI8I4YBwIkgMGnEFy265lHDAO5AQHDDhzYhiNCOOAcSBIDhhwBsltu5ZxwDiQExww4MyJYTQijAPGgSA5YMAZJLftWsYB40BOcMCAMyeG0YgwDhgHguSAAWeQ3LZrGQeMAznBAQPOnBhGI8I4YBwIkgMGnEFy265lHDAO5AQHDDhzYhiNCOOAcSBIDhhwBsltu5ZxwDiQExww4MyJYTQijAPGgSA5YMAZJLftWsYB40BOcMCAMyeG0YgwDhgHguSAAWeQ3LZrGQeMAznBAQPOnBhGI8I4YBwIkgMGnEFy265lHDAO5AQHDDhzYhizhIjt7WhH85zjT01P/sE/fa0j/FE7x+ooWl70B5F39t84kFEOGHBmlP1v0MUBwu2trQgq5ue5vPx8T3wheFjuQTHPbQGZS1vbbmv3sTqKY/zxBp5v0A0TblINOMM9Ptndu5jUCOCVAZblefmurLDQFRUVueJiHnxWVlDgqgsLPFiuA5rzgOvK+oZbW193G+ubbnljw81v8p5zbfIAcn8TUbObO9b7LOaAAWcWD16Yu+6FQ4BQzwX5Ba6lpNi1lJa4xrIyV11a6srLS1xlUaGr5lFTXOzWAczVzS03t7Hp5ldW3eLysltaXXOTy6uuf2HRzQCkS3y3zfm2dVJ/gTBzwPqWyxww4Mzl0c0AbV4d57r5AFsDgNhSXubaqipce0W5a6ksd3Vlpa4UqbOwIN8Voq4XcZyepaZvA7TrGDg3tjbd+uamWwNIp5dXXP/svJsASMeXVtzw0rKbXVvzIJpnAJqBEbZLigMGnHYfpIYDUbU8j+dKgLGupMR111S6Y1U8aqpdfUWpq0XSrEBFF1DG0zY41yJS54TAEil0fHHZPZ2dcwNzC25kccktI6VKfffNJNB4WGrHpIgDBpwpYuQbfxpADAXa2y1PVFW5S4117mRDneuornT1SJ0F2DcxaaJh66j42zbAKGfRJvi4iLreOz3jHo1PuQcTU24IIJ3nMzVzHsXPUzsyeQ4YcCbPwzf7DJL4eAgUqwqL3MnaancewDzXWO8aUMursG2WYMc8Gly+ylLJlRuA8xyS5+D8ouubmXUPJ2dc35zU+BWze77KMvskjRww4Ewjc9+IUwOaUs+r8ZR3Yst8r63ZnQU0uwHQQqRL2TpT3RbW1t0UNs/7Y5Pu4cS0ezw5TRjTppdKU30tO59xYD8OGHDuxxX7LC4OyBEka6XCii421LsrzQ3uckuja0Q1V9jRUdXyuC7KQbJrruE8GsXb/uvUrLs9Mu565UBaWdmJD433XHaccSARDhhwJsI1+43nwDbhQeVFBa61XJJmk7va2uQ6cAaVSzVPg6S5m+1gp1vCvjkMeD7G3vkj4PnL9KxbxTOvkCULV9rNLXudag4YcKaao2/K+UAuAWcLcZmXWxvd++2tqOi1XtJMh3p+EFsXCU0ax8P+dd+A+2FozI2vrDm5i/IId7JmHEgXBww408XZHD6v4i1l15S0eYJQow8BzXNNda4dabOAUKPUWzUPZqYcRivsLrqPxHl7eMzdwe45z84jA86DeWbfJM8BA87kefjGnWGbwPQ8AKu9ssJdbK53n3Z1AJoVroadQZlo8rj34mX/eXTC/b130A3jONpQR9JsLsgErXbNcHDAgDMc45BVvdjGMZMPeF5ubHDX8KJ/3NPhyglsL4ozsD0dxM4QkvQcG+dfn790z2bm3BQqvMV2poPTdk5xwIDT7oOjcQAVvYBHBTbED1DRBZwXW5pcMe+DtG3u7fQq9tbRxUX3de+Au4e6/owdRnkkEIllYdp7vL03DiTDAQPOZLj3pv1WDiFU9HIAqQm1/LPuDncFT3p3TZW3bWaaHbNInT8MjLibQ6Puzui4y5N3P4NScKb5YddPHwcMONPH29w7s4ATNb2O5B1dbKX8HOA831TvGkngkUlpM8Zo7SqSnfO7wRF3Y3jUS5xm54xxx55TyQEDzlRyM9fPBXBu4cFuIVnH6foa93lPlzvN9spK7JvpjtuMh7VL7Ch6PjWDxDnivh0cZTdRNAmIOYniYZ8dcwQOGHAegVlv+qEKQ9om6LwDCfM82yr/cLLbnayvzahTaPeYrALqYwTE3yae89v+ITe6uuqWFAFg6vpuNtnrFHDAgDMFTHxTThEDzu7KSrZX1rvPTxxzPXXVoVDTNQbahjlFxqRbqOlf9w26ESVE5jMDzjflDg2OTgPO4Hid9VeKAWcPaeOusi/98xNd7lhdTWjoWveJj5e9xPn1ywE3hLNoAW+7AWdohihnOmLAmTNDmX5CsgU4tW9dqvrAwhKlONhFZKp6+m+ON+wKBpxv2IAnQ65CkbawcfZUVrm3yIIUWomTrZffvBx0Q2SOnzeJM5kht98ewAEDzgMYYx+/ygEPnHiuVQ7jKsD52fHu0Nk4pwHLH4jj/CdJP0a9jdOcQ6+OpH2SLAcMOJPl4Bv0e6nqkjg78apfxKv+6fEudwKvegnlfYNM7HEQy7V7aHxxgSD4UfcPgHOSvi4rIYmp6gexzD5PkAMGnAky7o38mY/jJJUcu4ZOkeH9M4BTcZzVlMcIRRwnQNnLfvUbg8Pum/5h4jipVaSBsjjON/J2TSfRBpzp5G6unVs7h3jUkt29s7LMB8BfaGpwTWHZOUTc5v2RCfe9dg6hrkf2qodBFs61G8HoMeC0eyB+DkSBsxTVtwEpU3vVr5Lk43hI9qqrBvv3fUPuB+I4749P2l71+EfWjjwiBww4j8iwN/1wOYgKYEIZ2ZCuR7Mjqc5QMYk/MrlfXfbNkYUF9+Wzl+5nygf3zi+4PNlezb75pt+yaaHfgDMtbM3tk+7k46yvc9falY+z05UjgWYyH+ck5TOeUi74P5/1AZrzvwW+m30zt2/GDFFnwJkhxmfzZSV15vNoJtnHRWycXxzv9GUzMpEBXtnfZXcVaP40Mub+8XLIjWHr3BRgGmhm820W6r4bcIZ6eELaOYAKtHJFAJPsm591tbtzjXWuo5q8nHnUHArQHxOrOfQjiT1u4RC6h21zQbuFcGBZMw6kiwMGnOnibK6fV+BJuE9TWam7QE7Oa2SBP9tQ66oJVSoM0K64sLqGbXPR7xS6MzzuxpE2fZXLAPuQ60Nt9L3KAQPOV3lin8TJAansZUh2ygb/Dg6iK82N7hjxncrPqWqX6WxSz1VXfWh+0T0g2/tdymU8pdbQmiNkSuH4QYq96STUzh1KDhhwhnJYsqdTPvEHqdsusZPo7ZYGH57UXF7uylS2AvBKh9Yu0FwHtEfxnD9ENf+OYPcBnEOza9GywAaa2XMDZWlPDTizdOBC021ATJJnfUmJ66JE8FWcRcfZhtnJfvaKkiIfppTqvqpExhhA+XBiyj3GKfTL1DR5N7fchswHBpqpZredbx8OGHDuwxT76AgcEHDyKASwqlHbT9RUuxMkN9Ye9lZ2FNWWlbjyoqKkYzw3sacqUfEy6vkg6vlzwPLh1Kx7ObfgJrFryrtuoHmEcbNDk+KAAWdS7LMf73AAqVNWzXKCzlsATFW+PF1bA4jWuG7snnIYJaO2L61vONVO78eOKQnz4cS0G1WiYsB026TMnWGwF8FwwIAzGD7n/lWQOgWM2j2k8sHVVMJsryp3HZUVrgsptBYHUi1B8nVIoHIovc7zLil2gRR2C2trbm513U0uL1M3fdm9pF66HELjgKYVY8v92yqsFBpwhnVksrlfAlEelajo9QClnEXNFaWo7hWuk7LCNYBqKZKpbwDt7sxKAkw9NpFgp5ZX3cTSkhslk7uky1HsmiO8XiROc13XkKRp0mY23ylZ23cDzqwdupB3HGCT6l6Yn0egfD4qfCFSaBHgWeaq8LgLOLcVLI90WhgtL7wFWG4gZa4BjGvsPZc9c573M8RqLqCqL29tesDE3OnB1UAz5PdADnfPgDOHBzfjpEWlR/WjAAAtwc5ZWVDoSkgQImeSU6wnwFmg0CWO8ZImALkBcG5gu9yQQwgwXdneIvxI8Zk0kzDFBWsZ5oABZ4YH4I26fAxIBYJStQFTAeFOBqPXff9GMcuIDTMHDDjDPDq52DfAUU1PO8LjzovoF4d9rx9bMw5kmAMGnBkeALu8ccA4kH0cMODMvjGzHhsHjAMZ5oABZ4YHwC5vHDAOZB8HDDizb8ysx8YB40CGOWDAmeEBsMsbB4wD2ccBA87sGzPrsXHAOJBhDhhwZngA7PK5zQEF9qtFgrAir+1/9nPAgDP7x9AoyCQHYkH7u/vgUZKaTOyM0o4pNe182uRYH+wf/Y3ttd/NtOx6bcCZXeOVO71VBPxhbXdQ/GHHBf3drn4L+LQfXwlNhI/5Ako2jwowtT+/rDC6tZRjVtg6ukyyZT0rgYn25Ssd3hbfaRfVTgsr3TsdtBfigAGn3QfBcwCgUNb4g5qXxLSPPWxN/RbI8ZAcWcye+2KArhCQLOR1CXvufTITsuEroUlF9HuRMcfe+xn24Stz/TJJS9Z9xvott8a51njtoZNzmRQatkHfvz8GnPvzxT5NFQeiQCNgiIGCCvcWHXL+Db5TpUoBVEwai/32kJ+l9SvVVsoD3gpAzDISk1SQ7Unp8pQ2rwqQVJb7UoBTeUaVb9S/BzgLohLkCuC4uLnhVPZjmYxPKjQ3xetJUudNLi0jjW66VUmjolm/if4urUTZyRPmgAFnwqwL4IcCnXhamCcZNMRUWYFKIdmRKgCeSkBFYCjJbXcTxcsAyAJp5dYBk01SyW1xjk0PW7EjBSyx12l+jo5BPh0rRh+vASTrSMqssshd1JFvIVFzPa8ripX1KZJjVBU+C3mtDFBK7KymekhS0ZX1aZnsT0rSrNyiIyRlHqa88eTKik+fNwugrlkmqDQPavKnN+BMnodpO8O2VDhSqv3WXkULDz6AUBib1HH1TIBTXVjkqskAX1tWBtAUuwaSGZcoE/yuvnuABGDmAJVpSWNIYqqbrrycs8rPCeh4nZbz7WRUSiPhu80JNfS1pbzUnayvoRBdlWsDMGtKiymFDB2SNFHXY9KlQN0XCuE5NmJaECQ9C4cjdG65JehUvtF5aOyndlLf3Lx7PjPrs9svWsXONI5s8qc24Eyeh6k5g59UzCrNLEkqSC2lPMuGpgkp6aWAyakmdW4DQNWzbGQrPCKTUupkdLZyfEYafVHT1SVZqlxGAxJZM6DTyHNNaZmr4TPVXi8mmfEu3PSkb/BzqbECzNmVNUBlldIZq4AJ2eDJAq+kxksAqMoDp019Fw36g8eSIuuwWfaQuf44jx6As4maSjV8ViypEgJiZUCOyvENaJCtU0XopqBNEuiz6RlfgE4F6Wbgwyrf+/R7nqv2LywcMOAMwUj4CSfJEhUNd6vL14REQmumvG410owAphwVtxgwVRNoCDxWkcLmmFxj1OTZwH7mPbU6QKAZPVZvA2secCKOkyIApYtSGT01AA7F2jqQ0prLy1yZABP6FKbj1dg9AC8pTwmMBSp6CESnAZVhgGRgft49m13wJTQkkYrGtBRqEx1cW4uQwP5MQ627TN34sw01rh67ZinSZ0wFTxVvJYWKVqnuT6dn3eMpyh5PzLgJVPhteOXHNFUXs/MkzQEDzqRZmNwJBBTbgKAkm2ocDM2ostXY0MpLi1w7wCP1VuUn5HDQMZKyNMmUGV2VHwUqQ4uLbnZp1VeBHF+liBlSimxqaZPI9iNZ1+MhybgFgOzG/ndKFS4BzkbeS8L0qjlgp375JWAPaPrTcg5gy9PISw+esnVKXZ+WSjs773pRZ19MU7QN2hewF6ZSbdd4yAGkbPXdgL1KHZ9rqPO1kkSHxkDagF/s9uNDgp+JZtlAVzSmLAojeN9vDY64J1TzHKLu0rauyWIknljLPAcMODM1BtEZIKApZ1LI2dCuipCVla6uvMRVApj11OcpR/L0dkKphJq0HC9oUZ3xVQBlniqQU1R/nFxaceNMsD5sZaPYBlVrPJByE0xk9ScfelQSo7m01J2ipvqFpnoPnlLTywFNmRs8kCfIb79YQK9oHYDGXkllPAak0m6s0wPafkB8lOtBg4BTC5jA/1JTA9JmnTtGqWMtYPKaB9EUnrTIuP48OuF+Gpv0j7nNiNOIG0CEBtENu8YhHDDgPIQ56fhKc1uhLV7SZLbXMSFPIpmdw3Z2kjrk8tJW8JmXbDzY/NYLP138CfSZ4Ep2uIh0JjVvEgnsOTayx5Mz7tHkNBLaqo8RVEG0dDVvWwXQZEaQWvtWS6O70tzkzgGcKsimhSEZwNzdb9EbU2lnsXkKWO4DLLfHJ/C6Ayf0IakGM7cArRNIy1dbGtyVliZfH74KB1A+gBUUXMXoVOiS1PZvB4bdL+NTSKGLroBFKA9bt46xljkOGHAGzfuoVKMprjjAE4DmpcY6P0El5cgGWJQfsQEepWuye0rNm8EmNoiToZf6449R8wbmF7yXOi2xgaIlgtw4T6q8DfCd1mYfptOAtCzpOB1gI9unpG2VDX4CoPxrcNQNLCy4KVT5fMA6IckTOiQV1yJtStJ8r63ZHautIgKgzMlemw46DhtfAaMcR+Oo7L9i77yJ2v5gctKtbMJzdSbqKDzsHPZd+jhgwJk+3r565ijQFDFBK1DBLzY3uIuA5iUcD7UEUitoOpkWk1QUIzi5suzuDI25BwCLPLXe867pz7VT1WSb9aYGaHm3rcmDjVTbKiTmVDtP9vZZtMo5NoTafh86fxwdd0+xfa4jGR55kWBcxJVKJHNJ/5Kar7EAaEzkCMpkW8GGO4N0/fXAkPvX0KgbhF5FUqRTi8gkvdlybQPOIEcqCpxtSJpynFxDqjmBx1l2QEk1qQAbD55R++cg0uYjVNnvmXQjy8tufp0wcqmzqQBPaNlCwm3AkXWxudG939HiLrAAVCAxx8Jz0s1aqe2LMlFg0701MOJ+HB5zvQSTr0J/niTPeFp0TErhSxsS/yedbe48C1oP4yI6UjEm8XTjoGNEoyTsx5he7kDf130DboaFMT/JRfag69nn8XHAgDM+PiV/FBNAk7ASCUYAI1VQoNnEZFW4UerkwEhXpUJL8nxJULUmnCTPl4Tz4INO3pHCuWVcrQBYTtRUu+sCG2yaHcQ5Bg00MSfZo7EJ9+PImLsxNE7841r8CwR0yN7cilPrNIvZp8c6PGjWMy5haiMsCE+wXX/54qWP81QYmqTOVNmPw0RrNvTFgDOoUSJOU3ucu6sq3Qcdre7TrnavmitRRDrbLHa/PibdN7397i4q7SyqX7KOFAFNPlLdMYDyCtKZwKYRKVohR5lqI6iwDyam3F+e92PjXfAxrXFJ134R2HIXamvd29g23+1q8wHuJfFKrAERrNCzYZxD374ccj/hFHsKiBawzdNU9oAGYM9lDDj3MCTlbyXR8CgHIFtxNFxrbXKX8Naexhao+Mx0S2g+WJ5J9zUT7gYOBjmNlNosGQ+0gLMAofNtaJG54YP2FhaBSIKLlPMvzhMuQ6N22/zt+Uv3COm6H/CUuv46OqXQlyLuv9/W4h+nsTkHYaONk6ydwyRZy/F3f3zS3ewfxiE24tV1xXZaC54DBpzp5nlUFWxRfCPB1B8jacqT3si2vSDbPaSUWyOjSJ3jbkIxnlzc+7yPaiOAHjmEqjE5iJa3Ac7z7KwJyq55EM9k250hHEug8gOmibuEKO2osgfZdKFFsad1OLc+RdJ8D02graoi4w6hg2iU1KmF7/v+IWydg26ZA30mg4PoO+hE9nnSHDDgTJqFrzlBFDhP19W6q6iCH3S2ulZAsyygYOpY7yYIa1FM4Fcv+kkkMecmCbDeAZbYQa97Fi2EyNTjNe9GTf8MFf089toG7IHplpxf1zV9r80AT3CifEt40jfEPvpQKT4/SOqU5FzFAtABWH6MnfYdNIE69tRrS2gYm9/TzkYH2ay/BTwHGVO/cyqk/Q0jD1PVJwPOVHFyv/MANFKkSpAI3iW8RWqtgEZZdZR6LMimsBapsn993uceEd+pWE+v5h1FWoGeLc6j3U0XmurcJ92d3sGl7EBHFVzTQbvCk0axA/4g4EQim1gj9yVxjwepswqnaiaiwcdtYm44i/mkAm91rNxFOvqYzDmlriuK4JHUdRYGOfykPeQjMYdiAJIhLst+a8CZxgGTRKPsRpJqPu9uR9psQ7qpDGzr3l7SJgjb+bJ3wN3FAy3pM5F4RwHnSRwp77c3401vZQ931d7LZOy9skVJnb1PvOO3eJ9/xSk2zfuDHCgCzm52an3GuFzCXnssGoIUhkVgPybKHKHQJDmG7gwNuxsDxHUidWo3UUpCzPa7qH22LwcMOPdlS2o+FHDKhlbLjf2nY13uQ2xo2lGTKVVQHva7xHXeGh4l5nEUO2ek5s2RqAWcTtfXuesA57uAjfbXh6UJWBT3+PPIuPv6xYB7MDXtxqMmif36KOA8UV3t/v1ElzuHU6iNRSCsoBnrv2jsY9G7j7r+Vd8QERMLkZjOsHc8RkCOPBtwpnEgBZzleHaV8eiPPZ3e+6zMRyrmlYkmNU/2zZuDw+47nChL9A9NNj5pBUDS3CxlIbjY2OCuswhcAGwUhxq29lBB/6jqP6LSjuCJPlDihP5T5Af478e7fDKPFmyd2dBe4iD6aXTS/R0ae4nNPYi+bKAlW/towJnGkRNwKtNOFxPyi2Od7h1snBUZDNtZRc0eQ30VaP4NlX0eiWtdgBgHkIuWIpCzHnvaW0iaH+FR7yRrUA0LQdjaL9hwb7Jb6ofhCVLPyZZ7sLPnFOr5n1nUziBFZw1wErP6EzGrXxFiJi+7teA5YMCZRp4LbBqLS9w5wo+uE+5ykT3QinfcKbGQxmvvd2olxhjDKfQdHtm/4V0/OnDmkVy5mPjNRkKROlwr9lrFPIatPQFUBJy3RibJZbkMcO6R8Fks5HFXZvXTdXXuzye73WkAtCXgELFE+aa0eg8mp9zfUNVfzGKr1hZTOfmO4uhL9OL2O88BA8403ggCzmZKLFxGmnkf4PSp1jINnOSz9MBJoPhRgVOOrmYkTAXxK4azGfum8oaGrT2OAudt1FkPnHslagEnYyNAlb32zyd7AE4Kr4XQ7LAfb5Xo4yHA+V9InKpRpBAxrzUYcO7HrrR8ZsCZFrZGTmrAmUbmHnJqA85DmGNfpYQDBpwpYeMBJ0GyqSMJ7km8tR8TjnQFVT2TcYKK5RwilvMGqvpXOBaOKnEqHV4jEQJS1T9CVW8nCL4aiTpsLQacUtWHD1DVfZ+hR4k9/nwcVZ3nlspgd3MlyjdVxPwZqfrLmI2T+yxGT6LntN8djQMGnEfj15GPVjYkpSv7Q08HGZFafCKMTG1PVJb459TqkVddWcV3ahPtVWX3o5LJKRdLNY4WLQDaaXMcsKklgDxsTXvVb/QPOqnqSqd3oHMImpR13zuH2DYqm202tJfUXboPcP5DXnWyX5ltM/hRM+BMI8+lqpcRjqSclX/Cq644zhr2rCv3Ziaa4jhVauImAeI/DI34APijVIlUOBL+FHcBh8qHRAhcQfJUqY8wNcleD9iX/23voLs3MUkF0NUDgVO2QaXF+28nOn2qv/YsAc4+POn3iVWV1tBLztV8FmdrwXLAgDON/BZwloA0Ckn6I8CpnTbNVK7MVMoyFXT7x8sBd3tkwj0hODwRh4I8uKcIQ3qP5MUf4PDq4LUANQxNwe+q/nl/mAB4wq2eECg+pdycB4QjKQC+p6rKfX6s3V2mxlAXwfDacx8WevbyVIuCaHwBXXdZ/L4hrKyf8DKf1Disnd5LRI68N+BM40AKOGUXrETC/AQv9PtInNrWl2yJjES6rAmn2uT/+8kz95A4x2GpsFLR6V/cjXOomFkP4H+Fveqfnuj29GQqvGpvv7UdUcmbbwEqX5F/dIDQq8OSYAg4O6HlQ/apX6H0h0wPKjoXhoQle2nT+9jCoDjVO5hbbrFAaBxtr/p+3ErvZwac6eQvQCNYkm3wGpUfrzE5L5P4V3bBoO2cE6Rc0/70/3raS+zfvJtVBvGEgHPT5xVV3ONnBI6fUo0hHEZhyETuE5ngOFGuyn/iOBGNa4pxPMA0IlVdZZkvkr1eIVaqn6641KDHJt5bULlVVXNdme6/gT7Fc86xF98XqIv3JHZcSjhgwJkSNh5yEsBTkudJgEZF2ZT9vS0a/3gEWe+QCxz+ldQ7BXurBrnsYspXOYaUsipQl7R5RIlTtFRhemjF4fUFwHmZVHmt7IzKtJQmGuew4T6O2nBvsBd/Q7QfQqNoie3sUjLmq5gfmvCsZyqXwOEj6dwyURGDqObfM4b/oPbQAtmgNjSO8Tj3Xndy+/5IHDDgPBK7EjiYG1sTtBZJpgd74Kd4oxV03Uooj4Az3eAp9U6Synd40b+noJnyVS4x4cidlgAxkZ/kcU4lL/k37LbvATin6zOfyFhqurI/3egdwoY75h7Khstmg8NAReOioH4lZf60u42MT21+G2nQuVLjHQiZIVQq+JuXgx448+QUMtCMl30pPc6AM6XsPOBkAE0RTqJGYh7fQi28SsLcc0g3JTgtVD4jnU2TbYTUY98QnnMHm9g4Knu8+9MP6pcAR+YHqbYqpSspuo7IgbIMeneV/f0FCUz+zlbSX6dm3ZhP7kE99MOAhXER97UH/x1MKaoJfwlTSh1lgcOmriuJsZx7t1gUbmPDlfYgp9BBZoiDxs4+Tw0HDDhTw8fXn4VJqhK0x9gPrVo97+NhryNrkpJ+pMM+KBVdk20Y1e4n1FdlDf+F+urr2PwOU19fTwjqr+yGFJ+Tyn6WDElKYHIcaboR9V20pHcp+H0PYat3mqh2/E9KJ4dkrdjNDT6PyxTBCbQQHCcs6RKL2kdoBEqVpzLHYWoKJesnZlOxm0+IU5XKHk9NpTDRkEt9MeAMcDTzmMzFoMp5ymi8h6NI9bsVB1mE5JlqsFFS3yG8yj+RWu2feJjH2KMuD3OyoLnDLs6fh3OlXQsBuTnfRlrT7huFWgVp74wVo5PNT+YI1ZJXMTpEzfjst1HgrGURkClFi8AZTA/NIUsxNwRoPmAB/H849wYxSWxKkj6KfXpn4OxFKjhgwJkKLsZ7DoBzG0lNKnsPwdZKM3eGHStKZyaHRCrCeriEW0I9n0Z1/Rl7prbm3R8ddytIn14xTeFkUzhPBep5GyE91ztaSDdHQDyvS1VdMoXX2Y+9onMd4J5CulSUgEDz/tgEDpRNX8DsUBV99wkBTgbFF6BrYlzeJZ7zKovAWUwp2qiQijHZfbmjvpbtdgWapDEozOoeY7kA3y3o/aicTO3xBpyp5WdcZ4vZCK81NXob4WUARwmOZSNMVNUVkMizvIEaPUJWcJVX+Bf2MIUgzQGkKZM091AotV0A+h6LwAdInpcAnNo0744SrXJ6zbEr6Cn2TG0f/RV6R2P70hMAbYUmlWJvPk6xtvc62tx1Iga0D18SdKq1gT0sPPCt6Fxk7CaXltx/PO1z3xG7ubqx5cfSbJsHsi2QLww4A2Hznosw6TUZawokrZW5kw01lNit94XPqgBQr7oz+eOZsDEQkT1zATvYSxwkTwCRx3iVR3EmzBHLqJCVtKl1nFsLQR15R7trKv220tNI0dq+KGktHWr7GiC3yI4g2W5lipAKO0s8o3YNJUwndCjOoBwp8wxbSt/GlHKR8LFWTCmFfBbPWOwZ5aTealwVl/qSWM1bxKXeg8ZeJOttdUQLQwKLQ1Idsh//jgMGnL9jR7BvtlHBygrzXaNqrmNXU6ynAEde3UqyKpUggR7kddfEWgcsVwGMRSbY5PIqkuai6yWJRx/2MG3Fk/dcx6V1kukaPKTuVmInvISn/QK22ws4WuqgS84vVfRMFnhExxbA6JMxI4H1zS74ffdPCc8ZJmpA9cXjVs/FkwOaFoEm+t2Ds0gStOydjSxu8rKnYxHYrxuyT2shVBakhywM3wOcslHPq/CcojAMNPdjW6CfGXAGyu7fXywCJkAC6m4+k6UakDlDBclT9TWuhwnbxIQtP8C7y0+8HXMcB5DK/mrvuSSSJUB0XZdhcglsgmoCHMV3SspUHZ93CFNSxnstBNpi6ud7Ep2Rai4JbArQvK296ICJwnMWARhvhkji3Ht/KjoU3/lui5xemFOIgtA4BFUrSjbNGXYIfYXD60dsmn2MK5G3FrO5d6Ay+N6AM4PM37k0E1W2wkImax0gU0OwvB4VPAqL8FLLg7qrCaS2qLK2ghqucrgLPKZR0+c21p1qb3vxjnMF2qBBSC0Zt5q6RM1IzW0E+R8jF6kC5OsxQYge2Qwlvb3O6SLQ30All+Slxzj2S+21f0HG82eYI/qQxlZxtInclEtg0CLuNSN5nkTyvIoErRwDzewq0iKQrrrrcgTJpqmCej/h6HrMnvQh6sQvAqSexqDHNNAbKLsuZsAZpvHyAIrxH8DwEpxsa/kAZ0EMBHnmb0tS1joPgRWTSY4CHefVuBDQI2eRaCgGJDuxEV5BbW+trPTbGesBVCVzVhSBqBIWyJrrjQoCQZqepK7OsxjMAiRyAvXPzPvCZAKVGdltOb93kKQRTERDPX09DXieI6nJScwQrQJPL31Gwq6SvbwkaQGmwqoEmtp/LinzX3jQtYVUdlvzoPvbIlT/DDhDNRx0RuCpPvEcC+nxAMlHAhq/xU7HRA7yn/rJm+wM1rlT1dQ5/gSHyhRZjoRZgs22lgD5sziQWsrL/U4jqcOS3rR10IMtIKEm26xKFythr8wQikddoj66QqrW+I2Oii0a/gfp+kc/JOuXQkszfT9GXaJL7Prq4rmRzQsqvJes+i7zwwz26XHCquTYuzk0Br2L2DOJhBCdGtcwjW26eJ1l5zXgDPuAeRCKgKkH0myaRPRdkrOXngWeAGQ7IT7VgGikTDJedz7PR2L2xyHhqSkKYBUdfJJtkzJBKMuRHENqPrdmkDwQDQB2KRJyLf0WaHZit+3goaqYVcVy4OW7MiTTUjnC6NvekDIB4Cb9lxnFS5daAHgo5nSKeNsBgvZHcXANzy26pzj2ljG9CCzNEeSHPJT/DDhDOSy51SnhXAwYvRlCYCSJ1AtT/JPnSJ/JYBn58wwQoHozRGxnVeSwwJmjfioPqfquDjZg++xEZT/BTilJogJNZVWq53PZcBVFELOu6BcyO6wDknL6KMORwsZmMT9MI0krZ6jAchKJc2mVVH/e7IKcyzmshZcDBpzhHZsc61kUFIWY/EX+gUj87TR9rn2p/nu9jkhvHmF3DsrQCwF7tN9Sz8t4VALoAs0ypM4W8no24QArRyotRbJW9ig1Sc8CzIiEKUfeupsCICdkv+ShXV4LW3yPRCqQjZlnQkGzp8D+7ccBA879uGKfZYwDXjqNAWfGenH4hb1kLBMEoCjJUhsW6gDLGq+uF3mpszgGnEjRCthfBxxX+Y1smrMA6RzP3q4LrR4sAeKwOPcOp96+FQcMOO0+MA4kwwGJoQCiF5wF+LxW0wLgG5/p40ggKx/6LyhBwoc+YH/nwMjh9j87OGDAmR3jZL0MMwcAz1jkg9fnPVLu6bAA0v9Fnv232QCaWhhE3x5yXv0geoBfG/y/vb/IqfcGnDk1nEaMcSBFHBBgRpt2Usl/hzEhJjDHvvLPWjR+OxpnGAvC7vf+oGxYJH5H1eFvDDgP5499axx44zjgM15FTQ4KryrGkFtJQpoyRQzwXjZZRQ6oCTQVaqVAfkUP6LXS3qkekiIp1GSSyDWzhAGnH1r7ZxxIggOSuHj4pmf/p22biGm7m95GJS/vEIq+3n1Ixl5HaVAXVdJFEQMlAktiUxWrWkfUQDU7prQtWFEFyhiluNQtbXvl2YMm59jACTa1suZGyCOwsbZBUhaS0PC5Ni8ohlX0h472BJhuwJkA0+wnxoEdDghwAASPicJOgQOfefT0WegjL3eOR+cVpCo9XCSbk17sfJuZF+ovD5+kBUBUdqgOgvtr2B5bV1Lq6suKSThTQVlrUh564CzwSZ4VYiXQVIsAZwRER4hN1a6vlTViVQHRodUVN7VIikPCr6Tz+91QUYk1MwQnf1UDzuR5aGd4wziwE47kJSiwgFAkld6oRTorBiwLkdYKUWtj2zG1D30DkFknBEmSl3ZCKX9oJKA+CqBenQ0YQQX6hEop90E9EmUzeQW6aioo/Vzumgjsr+OhulKKSdWuL2XEj9g5lWeVNUK/j+Cmt2lGpO5I3KqSzyhD/xy7vwbYQqqUh6MAqh4zbJ9VKkTtAossHtl3AxlwZt+YZWmPJdX4Py/d+Jm2Q4lm3x7QiL71ap2Oy7RauwMSVCylL2VMer8HX9ssAZdWMsc3lRL8TrKVYkCmkIdiOaWuCzg9aAKYCoCfRAobY6vlBuCyCoAoNZ62mAKlETU23fTGaOG5jD420P8Osj8do+bSCVIaCkRVb74yyQz4AlYF+Ku8yST0CjQj+QcWqLxKflHUehUP9C3T4xvpRdz/DTjjZpUdmCgHNCf8lksmiZdK9CxpLdqYX6/iIj/yoClJjN9n2rngt4rSZ/W7AWDppE7UccCmHqlMQKmtl7UAp7I+ae96IZJngYAzugDs3nKp7ZYCEm2x1B7155Q3GSPP6FxAWy79WCANir9dpP77uL3Fp81rQ+IUPbJxep7zL9r92FAd+VnjLWzEVeT34I8jeT6j3MljaH5ETawJQFUt0+N7VMIMOI/KsSCP56bbcToccN1QG9p39V+lkasAGEkzFdqWiKQmv6zqs3v/rMBV0hm/8WotUpjyjM6h1k0DNJJMNAE1kwOlWTQAlpX0vY5+twGYrVXlvkCdXleTY7QAkJTHWQCqbE8RdVbmPN9ZP3JKUhJL8hHbfilJVAmLB8lmPwqASApTlU6VO1nFKx1FL//7lPyDfyoWKBOC6DnFXvtz5Eq9SL7RWuhQujxtF01HpnsNnTzuy9A2waIxNL/kHlFI8AUZoYaokbUMkPtkzeJZFjQDzjANEpNUzQODnvWex+/vJd1YAlQdqVc8YgfEnv03GfwX7ZxAsZhJWoZ3tq6E5MZIM10kNq4js30l+7oLIYXydN5Tq95KBl0BHddQX1el0jLBxkhgPERquXlUvkUBitQ7sUU/SCe9MRq4RhlgqDLIKh981tchqiShR7Griqqy6koiTTQo6cccaeUmcZwonZxKZah+uuiW+v6bXJ7IFXb9RvcRbzUmjSxekjTfUzVPgLOV1+kAy11X/91LlT9R7tFeQPNXkjU/mJj09bGUZ/V39/PvfhWuNwacYRkPbuyYdOlj55isPvQjCiweLvm3DRBFUpRFppQksSUvnUAIkzzTxvaYCi4pUtnsO5mUZ0gArBRsUnFrABwlxpB0pmNElxwNasIqSR0R6Yx4QCaSpE5lExoBPJXkt3d6xo0jgS6QyDltiYx3jYXqQZ0HXE5j+ztOSZAWsiCpGqnPYi/pMknwjiUyVnVSSWOSOp+opDMAqkJtkj5TMaYaF9lm5fi51Fzvq5JKNa+JFQf0IxDMv1jMp+yfWiB6qRt1D3qfRCuy+js7Sb6mm5LsBk7NtGiLgY63ykQnor6Kfa7Xgap4uuDr2q7+R6SzPB87J7WpgRu6UuoTpTPkcPAkcTNJulQ8nNRZhYAsASBSfQQuApplvltPV0mJw+ihL5KQBfY1qLRSybtQZb3DAeCsQQ0sp6RGMcXpIqAjhfbV5iUOzqNneWWVHEPZ3qdRacexB/ZROuMleSuVjm0SAJXEFpPQUyKBig6uLpBpKYukjruCKqsFQJ7mdJbOkCq/xBgOsEg8ZYF4MD7l6w2JTn+n06cjN/GSRxEgr0XgLepAXW5qdGepRCpa5CnPVPP3L+A5vbLsfobWhzx+xf6pqIOwq+3ZDZyAhJQ2D5ZRDFWGGd1ekbf815+O003HI1QZtXf1X/a/WsClhsnpHQ+otI0ATx3qoDKN754zAhIPKgDkLIA5SMzcwPy8txupNo+klBWOCZRWaFG2d4XlHFepCSbmCQBTxdoUDyjJLIFpvzOnJaXI7jdDeMtzKnk+mJxyP49OEWi9xBAzyEjiv2PSzi+P8IJrSOwt5h6qKSp271Co7TJ14s9Suln2v1jGoyOcMaFDlYZO5UJuj4y7+6OTVPOcoAAfVO6+CeI9M2C8zeKjXKEqAvjvJ7pZzKq9pBnvKdJ5nEBdADrE/ftkfNp9/XLI9VNnSZpGSsY0TZ3PLuCEwT6GThOFplW0HPuZpBl5M2VPUxiIsoprQDaQRjYlmfG8BJAo7+ECz1rZhagZ8+TRN01QSWfl9Fv9P4k6eBwbWgMqbS3Spj6TSquUZXtLBOvnAhKg0QOoVB7Fxk0CmoPU5lF5YFVGVKygCpqlQtXzDN/vH/3QwiTgb0bKPNdY5xP8djM566DD1+eRl3a/3x7hM42Ygq3XGMNZpM8xAqp/Gh3zNeT7mHQr9IH6dYnTCh0xibkbsD/fiNMEyaybMdF4SEpOVi2Pl1wBiUo/qyTwL6ixquopJ8oEi8aRssLvoumDtmb3Lo+zkv4B0UxKmnv5oLmq+lLDaBE/Do+6h3jbn83OsVhI9g9nyx7ghLlqeUyeUtQL7Z2VJCO7WVMFnlre+wqKPOvm0uECTAHnBtu+ZgARxc9pV4M8tVLxVEY3UKlMBOhm5kmquaooymbWzkOVIKXWVvNZrBJkPFKauCIQlafW24yYbH3Yip6i0j4HRMeZbAIV3xKRWCK/3P+/aKEDRdzekjLPNtS4S4CNvM111OTxAdOpviY9kalC5SVeKKwFx4LsY8PQvWMPTOCaMRugxuQiNsB3cZx0E25Uy/2lBS7opnHVmCr28QE2z3sjEx5EF7iX9V080rUkzSrMI+3YMj/ranPXKHNcEx2XoOl53fU0pvPMz2eYKO4iYd8dnfBF+VYRdOKh9XXnT/X32QOcMFa3r9SottIy18PNcAzVQ4G7zUhpUmcldeqg2G0u8EQe8qrAbBQ0nzAoCsIdRh2YRlJb1eTX74JoXEurq7zJAvq3sTddaGxwp1FrtZ3N1x9XP5ioMRri7ZYmk84tEJVEJg/t94PD2I0oMcvrLZ1T6mwKmxLxlnDeOqTjT7ra3XsdrYTqVPr9zbI7HpWGo3RNdAo8+xnLe0gpt1FpnyFpq9xGIhNNcZpV3EPvNDf4OuqXKcq2c08dpWMpPFZjqgB5bVW8SdXLWxRyezY17e3Yr6t8CfvdFip/DyafP/R0sKA1+IiGoKTmRNighWKSBfBnFopbI2PeJDONkJPq+zaRvu39TfiBM6pWSwqT/Uxq1EnA8iQxaJIGFEcnlVZJB+SN3q/pBpTdKLKLgRAXgERgovrc2g42AdBoIqbVeaTz81AftQ/4FB7ayy3U60ZS80HU9F/qYCqabkCFezxF8nyIRHZ3ZDLiSOHzREDllT5Bh0Ba0nMLEswVSWiogfKeR5wnqaHjlevu+UDRBQIV1Vv/YXgMW6Akz0W3Rr+8uWbP8fu+jdIhU0MX99an3e1+IWujnLFMJJkGmojavoX2MItNd8L9s2/QRxV4HUL3+z73vKTnPB6Sni8AmJ8f7/QF5mRyCHPTHFSG/F40pQcIOP9iTPuZn+KBp3MfWjNFT+iBU1YOOR1kP5Pd7DKTU/WtO1FrpUIlcmMrJlA7FuTFe4w95TGxZPJIKyA5LXZPBt7bz5iItTgdLlJnXDan44C/9gMnQsPrbhgBm0BFu1JuIpE9Ra0dBFRkB6Q33IivO8Mh32sxw3aqzDln6mrdH3s6fTC1JP+gm+zVsgfKK3sHKeXO4KibXl9zW5I84yEyOjbHAM1L1E7/7FgntdMrfMhR0LQcdj1pEbJz/t+nvaizeJ4liXkN69WB3EZIyEdNvwJovsN99j7aQBUChnYEZUObIHpCMZ5/Z5HQ/JzfwDXmE6a8Smum6Ak1cMoRVE74SiPhLZdQoS5yI/QANoo9i2wLS4yRWsEklelmfM4A3Roax340TQzdUupjA7mWQEzhLdp5cgHQfAtP7WXUdAGPnD+JUfH6WyZmNxpk1b45MOTuIbGMY7KQhzYZ9UcSTT7YeYEF7G08z9c721wN3v9StIKgG93w/FWZXQHKX5/1uRc4FmZJaRZPnKfgVTbaD9pa3Ps8zjE+Apl0LGbJ8EZjKRpvRVX2e6PjLo/7Z79xjNlr/+1YB5pAiztD0L4iAsJG00H8UIKQaWi9gYdd9s5fGE+ZmvaTrg86R7o/DydwAjRquqlbkTQ1QS8DnKd4jjkd/AFJ/NMVFNYzBlg+mZwh7GOc52mkFRxKTKSUDZKAk5teSRMUC3idfcHnuZGPYW5Itx1Q7FHYkmIDf5Q0hurzaGKGYmFawRO7EbWYFfPbalTb612tAGdERVcGnUxOzJgj5eu+AXcPlf0Zts/XAidjo2QdjSzEH3e2unfbm11rRaV3ziVxa6Xlp7pfNY69hGLdxHb9bf+QW2QsNnSrosn4Fr3XKqIRDl8AnFdYoNuxcx5kxkpLZ5M8qUwwAs+7LBIKybo5PoFDMIVzMsn+6efhBU6YJ+P8GWyBf0AVlE2zBXUq1U02lRm2vN1FnZXn8hG2pEVUHTYdp+ZSWgSgpQP1T0HHn3Z1+O1ukpqDbC9mZSObdP98OYgdcMnHeR7ZLAEtqi8uZ1AHkQBfHO/2ErQCwzMJmjE+KqRFtrHvmXB6aPE7LPZRC1oDkvIZnIySmuVAqWSB037zMDYtgrNESdyGtq8ZxwHG0e+gikr60my2AdcOdgedJyzsvY42H+YWi6MNI00H9UkS9iMWQNmu/z44QkJkL84cdHjgn4cWOInEdOcBzauotR9isBfQyAmU6ia1XYPSiw3wEZPuJgM1gv1TcZ9JO4s4t2ybijd9By+twkFkrK/FaB9UMHWMX7Lh9pNM4svnfd6mO4QqdGQPtCYmN3QXi8AFJuYn3R1+G6Icd2GAGi2CchRJnf1uYNhNYAfURoCDtAdFBXSQoPeDtib3FprAKULCirClSRgPY5PzROCpLZmSOu+y0I9oHBEwfNP48P1xNBtFB1xjMVAcqnJphpSkA9mseTnCllMF/3/ZO4CJiW22jO9+pokDT5LGL8IHnDBMaoVS93+EYfttHhcAnXTFBIq3UoNkkH6BjUwq0FPUoVEfbIzUmcQsitmaRMtnx9rddSSADtQm2TaDvpFF4xQB8t9icL+DWeIhgdXamXGYRCbe7DTGRX0u4t9ZHEJKEKGxaSVmMyxNUoqiCe6h3n2DRPachWIGR9G+4Waih0dPFeE6jI0yBHXhfAx6XBLhXS9a0V2C4v/JvfqSbEox+tR36Unn0c4+YHyusFC3AKLZpKbH+CHpeYGx/IVF4kvs1s8B0fFYaFISczJ2/mSfwwWcMEsMk/1Mts3PsdHohm6N2mi8BJgsxQf8XjGBcg7dHBjxAdW/Eoh7ZFV2z7kFnOWo/E2og1/grX2fOMc6Et76eNM9xwbxdp4bTxEEign81xDqj6wI8V4YWqjZ5eoYm6ssZB8hzchOW8M4hanp/vkJJ9g3LwbdT1NTPnQnBiw7/eQYmU8k9Z9Gq/kTY6NYWsWgZkMbmJsnzGza/ReLoBxhus/UBJAVSP9X2YTwMQHvPYyPojayEThFj8byOZrgl7/2ugcs9P1ogkfWknSiNLTwASc3QQtAcxIV4w/sqz2NSqjYQO9ISeNKo1CkWdQehSjdQWKRVKbg+J14uQSYX8Dvm/DQnkKSeR+gucAiUIl9MFYhMIFTJvUT7fUeJSTp+/5h9+WLfjJwKyEIIBIHXzU55RRqAygVs/kJi1oDk1JjE7b2FGffbVTZW6iy/UuEYCmUZXeDZkmb9dxnF7m/tEB3szgrLjgbmrbW9s7Ou38gVT8CQGfY1y41XluOG7nf3iLS4aPOdpxClcQ5l/i5kw107ddHJXX5GlX97tiU6yVvZ7LCzH7XSOSz8AEnNppu4gGv4EH//NQxH34UIyydEqduPAXIa1fR7eER913/CN7nDR9MnYhdRWpTMf+6MNS/i532ImCjUKpMhoXIbiRv5XdMuP/85bmbxO65jLcyHvpkOyvFVqsNCB/igf6sp8s772J1dWJjFIZnJT2RY+EbwPM50tkKdEcMDdHesQhofI4BllexOSvovZFFoIJFLRuanGCj7LD5tn/A/Qyg9KHGamwV2dABHdew2V4HOJtw4ClpdDa3AcbyBvbqW2gRT5Gu47lXg6A3fMDJTX2CG1rG7Y+QBGR3irV0AqeusSJ1nVXtR+9cGMHOuYqTSHkfjx6fGAPOk9DyOQHIiqVrQwKQ91nfZaLJzqkFQsD5f5488/QtAojx3IwCTtWnOQM9HwM0n+NR97RkiphDGDgFqLxEUvmS0CSVZ5hF0t4dfiXpOR8+aLvrO4TrXGchUByqnFzZ0GRWUkznN9g4taf7GbRqI4BCq46TJPoai/R7OO60I0329GxuwywKt4h4uaG9+tAZlhYu4BRXuKHP4Xz4kJg6xQjudj6kGzgVCzihDC3EPMorO8gE9J68JIDzLDY0pfLSLiFlPgoDznxPeMdf2IHiM6sjdcYLnOUAyzno+ATg1A6bsDaF7AyRs/NvL176nJaT2HZ379UXcMqMooQkApmPAE5Jm2GUnvfjsUwuqlskk4uPzWXzhoBT4Xun0QiuESHwAcDpdwtlyWKwH536TDlYH3jtYcT9zCIo05kEgEy30AGngEVbxf7I5DxDeIjsaLGWbuBUqMc0BugfsXHKu659svOs7slInBfq69z/ONWD5FwVGkfKDaSU/8BuNKDtbEzAeIFTjodzjM0n2Gs/xfkQ1qZclkpR9uVzgJNJJ81hGzNDjM4IcDoS+hKyA3B+3N3mbbWZyIKUCA+1wC9Q2O0mO2sEnPfIR6AoR4H/2Zoa7OmtbE5o99JmqvIfJNLPVPxmBsla0S5foSXdITRJDk0Dzj2cFWgqc9A7zU14Oju8V3C3wT5o4FSW8TkPnHucC3v6vd9b0SIbZ84AJ1KadqRo19PHIQdO2QC1I0wS588Ap2IdtxSfGQ1sjwHn20QHyNH1fmdLVgFnLOzq+74hHwwfA045Hs974GxD4mzfSU+43/2ZLZ9Je+gj6cffMbvc8g7bcADn/wcAAP//DGSDLgAAP1NJREFU7Z3nextXluYvc845K8uSbAXbame72/1lnp599sP8m/Npn+2d2dnpdgdblmVblhUsyVYkJeacM7W/9wJFQYwgUQCK5KlHYEFAoeqec6vee/LJ+bd///MrF2w5OcG72N7/9/Vnr9/x9Ybv3vzh7t+/ca74j/VZPn/ebWxwf+xqc8eqK111SfH6qXM2jm/9m3DeLK+uufH5eXdrYNhde9HnXs7MuanlFZeTl7vnC4iWQv6cr61x//PUMddRVeGqEmjZ8wlD/MF3gyPu/zx/6V6OjrvpxUWXk7s7fa/W1lxZfr47V1/rPmlvcZ91tIQ4onBPNb245IZm59xfn/W4e0OjbmB+wa3l5EKnZsU50ZLHXX+lqcG939Loftfe5EoLCrj3Yt+HO5rwz7bC+GeXl9233X3uZt+QuzM84lbdK1deWODOVVVBT7O72tHqSgryXX4Scxv+CMM74wRz93xiyv2tu9f9NDTsFpm314AV3nX2eqacKAGnBq9b92JDnfuys9Wdqa12daUl6zRlGjhfzMy6aQ+ceetjSPaN6DhUwMmiUpaf595ibj6NOHBOsRj0s+h99bTH/QJwDi4suleAZrBABMD5DrS8B3B+0tlyoIBzaXXVzSwuu+u9A+6n/iF3d3DYA2cZwHkW4Hy/rcl9AHBqMSjcx6Kf7D2eieNG5+bdb2MT7hsEmTvDowac267tr165t2qq3Uetje5Kc6Nrrihbn590A6duyBEeuFsDQ+7bl/2ud3bezaxI4tw/cJ6trnL/cqLTHa+pcnVlpTFBfZ2i7LzRA/fnx89d37QWhuV1QNlpNK8AzlIBJ3R8yqL2eVf7Todn9bvJhQXXNzXrJc5fhsfc6NISEudG4Hzl3m6o98D5MRKaQKfggEhniyurbpLF4XpPn9eO7o+Nu9W1V17CPFFZ7q62Apztra6yuMgVM2cHeRtEc7jDHOqevT8y5tYgxiTOjTMKaEoaOFFZgbpe5z5GXe+oqlw/Kt3AOY90OTA94271D7rrLwe8pDIHmKYCnCeh5QtW/zOouC3c1Ll6gNcpyuwb3XBr8Pjbnl73v3994umbBRADSWyn0Qg4S5BezkDPJwDnF8c7Y7Rki5gdBjvGgtczMem+6n7pHmCOmARoXkkNj6viusdy4cP5+jr3blO9+xDgrCoqckUHBGR0n46hwn4LfT9jdnk0Ne2BUyDZzuIs4PwIU0ptSYkH0x1YFfmvelncf8Ac8T3CzCPmNCpbtFR1AScPaCeTf7Guxn1xqssdQ8IJtnQCpwBlZmnZPWNybgKcP7wc5IFbcUt8ngywBGMM9sITqertpaUsAvXuHVRCSZ1SnQSe2dhWoWWOh07A+Z+/PXWjSJvzSCrJ0Kd5KUbd7awodx8BNJ8f60AVzI+klNY7Oe0eoKJ/09vvngIqC7qvEpcrgFMz0MUicAl1/TMWgnpMQpI6D8ImG+4gi8O1npfehtsNuGhui9CM2kqL3bsCTmhqEE2o6wd568G++Q32+FtInc9mZpK6VzNBb/SAk5u6idX/JM6UP6Dinq6v8bYagWY6gXOZ68oQLTvKzziHbrOSL3IzSjUIJJW9Tkgev68vKnSnkJp/h13wAlK0DPh5WVIJpeINzs666y/63VfPXrhpaF5mjMnQJymtgDloQv2TRPM52oDsz7KjRW17PDrhbgKaPw6MuBdzc25140IFzTm8arnPLnB/fQEtnYBooiMyajQljkd2v+csDv9gAXwwMu4mUNulTei+qmI+LiNFyw7dKYck85XO5yZxXGG/F03Px9EcHne7e2gOmku/yG+cz7AvnMT5ogec3NCVeG+b8UDrhhbYNHNT56UZOL2ajj3lBir6bcDz0fhEypMksClFwmzgAf09NsHftTW7GiSCwn3YTJOYy10PmcbW95AH7UbfgPu+b9Ab2v3CsOsvOQBa5HuXg0hRD58j0XQR9RCVSIGAhFfcP3dZ9L5+hjTGwza8RNTARn5zjOiR9H8aG/QfmZvTddXY08uD00R6/xIp+j7z+JfuXvdscsqbtxIB5W0iOT7HR3AOaboBH4GenYO4SYp+gmPovx89dw/Z9yHY5DJnySz06aY3WsApamGWJrqcm/1D1Nt3eV0gbKQgjSquVrYRQPMZq5vCkB6PT2H/WwgFOCWliZbPu1rdh20tro1FQGEimb6VReMoNP4TT/Mt1NhfeeAcEoq3/Ynvu23Mi8Ys8JTz7gPm5QqvROfdbqdI9/c+TAdzyy0WhX8CKt1ERUz6qIgtwq1ED69jFWg2zI0WaNnTMz0ve+WJl8IwJ93uH3b/5F7twSbvFwaBI/S8wvQih+SHLQ3uEuDZwmJwUJxeibzQAjiFSeIBDqG/Pul2MkeMsfAnLhCJx2f6ffSAUxyAaTzS/ga4hH3wQ5wrNSVFaVELtaot4gB6PjaJXWzE3SC8Y4BYzjk5TXQz6rXfjXPr4SzANvgu4P9ec4M7jxRQXSypc4uHeb/XSeJ3M9gze1Dv/oJt8yG0DnJT7nn1hhbd0B3YoM+j4n7a2eaO85DKqZICl5IYfXKHLGCT7pczAQ/s14DKODQvAiTbzeEr5r0FG/TVlnoWgSZ3Gkktmzbo3aiUHX6BMf8KmHwvzQjJelBSGAux3/h+je+1GFxsrHVXWai7qitipq7dTh6x7xUl8HJ62t3B3PJ3nGDDmCPmMDUlY4/PBCmRBU6pUnI+nOTBlFqomM5WpLWwNz1sE/OL7mccQreZpAes5rNMEAajcC7FzSxa2srL3FnUwc86iBSoLPe2p3AukNxZnk1OunuDo14S68NWtKiFQbbWvSwM0CLgrMaU0lZe6n6PZ/18Q613QmTL4ZVIvZwmv7D4XUfi1CvRk554XPBeppQqaOlEnf2YxfkKC1sVi5q0myhuCpcbm1twP0Lb19g3B7B16l7NCaIB4sDZAA1yRCpRQfecbNFRmJ+98FTag+byewSZf+KoXVxTiH90tugCJzzS7duIrfMcksDFpjp3Bk97DSEWYdzYmoSluLPkAYDyC6v4Izx4klIkhe4JUHaaT4ENN0ElRvt2APNDHCvKvpF90Du8dvptCN8pG2oOmhSbqmBpORMULbAbqGx7aeiR+aEyLx9NoNnH2mpeitJoStl2LAlfCFQGicH9GunkNqaIJ0jXPuNrp4UBWopYPGpYoD8CZN5vbfZzlA1TSgIpW77V/ap5fIo56QYxxjIpzWOgXuHzICNKP9S9VoxpqBan5BfEcl5iMTheU5k1h6TGtNdtFRoU/fEjdN7EUXuTZ3MlzGdyrwPa4vhoAmd8oLLXlObnuvrCQqcsD9mhjiF5KuZOKtV+vYUCRh/sTkjHY4zOPzBBz1DxpA6ErgpwLUlpApsa6JCEdlnhSXg+9YAWcJOnS83Vqj29sOR6sfXdeNnnVbthsmiW4W8qdOrhzOVJPg9gXmlWHGSLn5NsBFsLUMRfxTU+AVT+G3uYHCaTS/FU2Z2Ak99qcS5AlnmPZAuZUi4wN7q/8uPpmXwdiU1zKRolbf5IXONtsoVyuH+2nEeOVfroJ5gflFJ6EXtnMZL1QZE6BZrjSNPXfJwqiyCRIKlEt6RjAiMNnJL6cgDPfG7s1rIScter3NuAp9QQGb11c+znZpjGgTA8P+d+5ga8PzzunqLGznEdFPT0bDzYsnXqYawuKHQXAE85V0RHTZrUKIGJjOteQsEM8Ri7Zi834CpII7BJSaKGV4g2HvjP4Cj68li7OwUtjdg+M73JFraMtHmPOL+fJFX3DqI1kCnk1e0klqT43Mhu600pne1e6qxAYovSNsmC9wyN6D/I+NICMSlHCYvuVvMYW9heueM8I5fQ1JTlVRvR0LGteCxHrfLTvyJ+81cEG4XN+Xt2q4Oz9FnkgZNUFy9RKN1P6kcnns/jxKfppbi7Sj4rQQ3O50HZLuxCTF9ALZ8DMLVqDyGB9fF6SLjKSyTNSVSgfauuyU5c/AHVGNt4SE+xCLzDTd0FPbqpJUGHUZBBtEqaFq2PecDujyguddSNIk3P8/lWD1qyJKwfBy0CZv64JkwnckRIspHKrrjOTMWpSqXT4uAdQpgh7qCi97M4KGkhVxED6wPe4U2cDoVZaV4+wdb5FqaUduzpWuj2szDvcLU9fyXtSOaWp9je7+EMUrSANKM1rQncS/zZfE5P05qrAFjP1hCnysJ2DHW9AfpEzxa/2HyOLHwiWhUWqMVe+fe3oPclILopDjcLY9t4yegDZzBiHhJNeCE3c0sx0ifOlq7aKteGrVCSjhxJPj6Sg4Ibw98/PD6akElU1gFsYL9icJZ3WQ/YOOCiIPdNcX7BNcPecy0BjipAlWEjvIK6Li/7GQz48rSLBn9bJ9CQzBACgNC5ZQuaQjoRmFzv6/cStRaJxFztZM6ZzDHyShfxINYQ1P8pgHOVOFXFQsoEkU7AEb2iVSrdS+byNhL1TezUT6am9x4pECdUmVEVjFtmFDmJLrIvLUyvKWU3HovORezRWhxueBV90Mc1LvAsyJMOC7bf+G5tZZlMojLy1pvcJRa2k2gFyi5K59xsP6CdvwloVVUrRQtcR3Po576dhv4tzRE7ny7t3x4c4IzfJVJ5i5EmygGeKkKU6pA6G8qKPRApLCafz2Us1+GrMH2Vh3tlFc85D9loHDynUHPm+U62vrRLmhunkIEJ2FV6oRGwbMWjq8IMJ5FyVHquFFuUD4mBxt2kA91sClHRS5lP8ywEA9x4z1BvZLvtptDFCNKJHjS/eQkl9jaUv6KFQchGeBzJ+a26Kpx4jZ4mBcZLuk7HQ7oUd3gp7vYhjoO7JCwMYK+eQnPwD9k+6JR6K9NPDXOibKKrgOexuDYgbSZYjEPhWxIn0dwq4kPz+RBzkrLZfqOYh2oLvNJgkqBRC1vMUVTkywBepWpSMwKH7J1R25TVJm1QRVmUvXcXAWeeOZHQkwytmabn4ABnnDO6wWM6WCw+slQAisRTmJsXU3e5KQKn0UocOAWgisucIaRhhr3sYjrJfh+ylCdJNwMvPagVjLcBkDkJ6HRSEqyaFDmZHyqRKGSCUASBpFAPovGnVz8PwFISiWozTgGa49x4ksCe4xzpxkY0Da1KqUzris35NSeS1ppR299BbT+B3VOB/jEzSjhSmyRMPUSKhBgnOaEfoLxHHcrHo5MEgU8TrqKHjGeMBWdfm+jgpXunA3A5hzZzkQypYyxmyvaSGSUdi8BWY/V0AnqSuB5hm75FmJxSD4cX5pGot7ZrbnUe3WOaGzlZJUm/j5PoMk6wWuiR5BmFLZjXEeazm3v3pop5kIDyQnnpWhySWCCyQceBA843mORBNCb1+M89sAAz6yuyAIp/Oi4+CRmXMN8Y8Ib/MC4/VD4WgFYBmLLbtiOFHgN4mthXsCjkUYRXACrJR9uKABEAUVD7GN5HlYeTOq4SXGOo6VJvFjgmk7T6QH+IaSBy4AQq4Zm6WMhVM2YUaQapgo68ytISJqBXYHJH4WPsRwCTNS2EAsxUH7I4eBahsSh87N24yn4WWkq1OMf57ychjX9kj1dNUSVj3EHyUgjZEvT7+dzjdQWakjxlBupiEfgfp08Q6E+JQ+6zKGyaV9H7EPv03aFhX0JuGNOETGhR3g42cPobXezdzORA6tSKFmyRW8ESxqb1X/bbIiToagC0DslTnt2SgjzvbBF4eqmT3+hm04OkG04VnSa40WYwP8jmt4C3W3ZOL1SnCiQB45LZc00tArJ5VgOecnh1VpX74hmKWa0EeErzAR/CywLpTfOh3yRumi3NmfZyiiyjJWihGAIwVfKvB2n6xdScjxCYYOGQ2r6+hUGvpyMWPtZUUuoXgYuNdd7TrmpDMefXxlGvj2Dfb0SzzC1zzKXSKH9jUVB+9oupGTcOiPq7eD/0iZe8tORqMTiLA0/0qCqUzCnFAGr41OzOBtEj7WFC9ngWfYVXPUBND7L29rNI7H7V8I442MAZHh+yf6b4Da6ByDYoEJUq719ePeML7rYcHi6ZGghh9wC5zHup4/7B4pB9q6q6cAibl+45D8P3Hvd2nEXHSftrJLVRUk5VcSF2N6nvREHE1V8dqw0yfEjYmqcR0wrAOMNiMAOYvMD0IFVOYSrjLBKSqHcNcI+ddu9/E+aiHpvnOWKHTyNFK3ysibA4H8XB2PMYeCqStOZMtK4wh0r7nYXOfkDz/ugYhWbG/WIxi5QdypxCU5D+ewEJ+gNiPGUekqc9cBilQstemCxThELIxsnYe6lFAu1BRUueY3LR/ZxJTWkv40481oAzkRvZfi/kYAukZd3oQss35TI+i/1bB8v11Xk/Eom/Ysh/NG7AULJMIQAjZ14N0nMjElsHJghJ0gqWL0EK1UOrxUGbZMcFHpwlwGIR0BxV6FjcFCHVVSDqbZlQ7uXbdNIbnwstYiWMv1kSNE6880hrLeXlrpYFoIJA+VSKH0tzUDbQFDbb4Vns00iXqnLeR/THCFWdluPz7JkTxh9o0j1VotC+wiL3MVEQiuporSzzpohM2T2lJY1RD+I37NO/jY+7J5QBVLicctEPAmhqKgw4w7gh03UObvJEU8NWl4mc+SFxkMH42RcjYVagqtdKPcSeq0yqQh5gVe7xlluwU2Ao6XkFaUQSiYBSERBSVSWJyCEmO2ZGaRYNXFtxxMr8UhRES0WpaynTvsw7wGRGERgVQpeXQrXUBVI0/NCwVzGhKO50ZUUOO5kg1HCNSA8tDEjSg+SgKxSnn5fatazXSQ1OlMjXVN57elQiMMedJmrgFPbOU0QRyBYtJ2UZi5pMKfHhp3KlN34r2lUfQfUE+nH8dOMAeoz2IIlzmAVyCZ6kfTF8Y0Sp/ceAMzX+2a+T5QAPjrddCkWkjvH/YNNHm/AhAEg9xDzFXl3ddFBwhgzsNX69ePgF/nLgHcd265MXAExJ09VIoYolFvAITLWJ5hUBJQuBt0kDHFK/BZrjgKVaQzwmzEiZQArJkfnB08o50rbFwdPTginiLJEQAtET0NPBy9txxfP4HOwXREW7Zll7BbbLntlDrO2vmCLkDFL3UV+kRNcRvdmc3z0y24Bzjwyzw/fJAR4ebf6v3sf+Gz+Z/rPh8Yz/NzBbZP2hCsbPXtJyCQBZysNehHMlD6dLMyE+DbLfKiwOIM3npU02zGWAUuXg1L9qEolTLZlnAZElwGReDj7ijL1DT1wIwCPY+7Ok4Q90CNBEi2KiVbaxhYpXKq3XzL4G56Ry9suKCryGsGF2dh2Qzq3A/UlecuKNsEAMYMNUXc0hTBGStBc5ixIz/Bbsdz1zNA4w4IzGPNgoDhAHpLqrVGAszA1HGCBZDXhWA6KFSJr5qO35cuixeecP4ChVVPbZGX46D5Askk/PR369kLSVUfODH1nsT0yKXvVScgWmiA6ceY04wKS2K1heMZ9q9xKTpDGtgHNKMNmozMvhI3Vc6a4+XI5FQjbqQUVD8Bqdxm5Ltt5IXOKWOUYZe17STBjPQXlrwHlQZsrGGU0OABQCH8lNyqISoG65SaICcOT88CCp9zo+KpvGzYBUVEcOr3IWAtUpVQiWnGAVAGmFkjP4TiUE5fRL3BRjK5v0OK8ZvOWzOH/GeC/gVHEZSdd+weH3687MxBMcsPcGnAdswmy4EeSAwDNAQe23AkQBp/8X22fd9LCRjQEN7CVNqsCJkjKUAiyzQzFSZwm5+1VI1ep2Ksk6cZNHfA7wlCliHnvtMpKluovOYxOexRThHXty/+h3B0wtT6QzeG/AGXDC9sYB40CMAwJRL4G+XgNyAcs8khcqsIcqyeGNsHnWAjm2lFs+z29VH0LZSujhXhX38bacWXjJ14diM+A8FNNoRBgHQubARoSL/99nr3GpWIxx7JoyPWDxjWWrocJL+hY+gpPBAcG7Q7M34Dw0U2mEZI0DAch4Ld3/2SxaSdzy/2L7A6euCgwDOsXoQHJcR0dJlKIt4YOsTUj6L2zAmX4e2xUOMwcEKKio6+mKAhe9cLIEEOIxBlXXg0ocXA6Dg+QwT+tutBlw7sYh+z4tHFgXTIQzCVfQ54mCTcJXkXm7Ho7EQD0OElZTgxfalzfErqc6AwXxMocatAqRqFiJwpFUY1O93n3DPNkR2bIZjuQHYH/2zAEDzj2zzH6wPw7EENKDjqAyEMd0Ml+ZN35WxfQESAoqRUb9AyS9qspeaaIKgC/jpepC+YBmE+E6dcUEiwOYSilV3GPQvE4ZQ2pnouyZaeI3RwjXGealerEKjJ8FVJeQUBULeVDjGvd3TxzcXxlwHty5OzAj91Ik0pVS/NYAEfBhffP4+QaIvsbNXKUf+ld2i+5q/GuM/ZXGzr6utMj3JFLb3QaqPpUp+J3MGxVuFmCqWEYB8YoqEKLNVwPit5I2VelJBadHKOoxD4gqR/0xGTXKpJmjM6daYhwVO+H6TXAA3xhwRn3ShDK8PNboTxxk/E4PZvzhjCQZGrcAk5ckqSIksRayU1SwWWCj3kvrtkEIEHlKPVQxCIGMskwmARe1BJHFUNJn2krJbcdA0YBUKCmzkiIlHQSFt1NnVBXuVeRDtOg7SZnKFlKRDwGmSubFp8rT5Qt8IFUqZ11V+0XfAjGPE1RG6qXQhVp/qCD1c94rDVOb75ce5fndjmdH4HMDzqhN8jpIyn4We/SkIirc2P+PzwQwsYBiDT52jD80Kg8Z49UgNVJlbPucbgCzmiyUs4BOE1KacqELGa98JsGmnyllT8HU0wRRd1PgVkVux8ltVodO2QjpKvRas083vZ7vr1wh46qjGIZ6Ql2kDFs7+wbSEsMuK6d6oz/SW6gfemdotCYHEpeGkQlMCphl+6xywIAzq+zfcHEeVC+hSS2UlOYr5dCVMC/HqbeSbGYrOB+8xEK+s9TeIMXPS2KScnhle5OEJpVWZePayXe+SB/5ZmpYNlA8ohaVVtKmVFrBwUZIkLtEdSpV2FcpfOonPkaptWdU1Xk2Me0rwAdFjNNt/1xDKqxCkjxG/vbbdCQ9A2iq/JrvfoktM8xCxqroLzVePaN+Hhr2AKo+Uiqn5+c225Nq13+DAwacb7AjS//xgBlr3ua9s6h/Xp1ln0/rDPUIlzNCPW9USVGgIvBcAVgWANBZHjAVglUVGqm5kkbTDSqbOMU1A5NCOWBTT36zJLPjvE5TQV0Spmo9+k6k0BPY/zadhw80ftkFfYsQFgf1iFedShX6VRM6lWIbIhd6DrDRcaFLZJxTPqo6AF7N2t6hePFJWji3AqBpa50B3aJXVZOe0B7kHm0k7vOSxK2MHE+jSZ5b3S5Z+cyAMytsf31Rn4HBg5rLS50tz1RX++KyxwAbqYNqEqYtF0kzkCUllclmtgBwTgCYgzxcv1BF+8k4lbTx1gpYvSov6TNDD5uXkKFBgNhVWenB5l16eatquiTMVIchr7QAdAhb4C/0p5FKq6o703wedkyk5oQRu8u0mLjcTHfI9mZXhqkhk83aZPv8ryfP3c/9I64XOn3gQQS0CX8z2h+rAJ/Ne0BeWlVGVwmvUwDlSYrISqpRbcRyHlQ5U1RsQZt3jMQHK7uX7J7qPbREKIvCXQSYQ1ShUTOzp1TXVotgtaHwboZUUSt+3S13jCMI01FFnbdpBnYO1fwsrwbsgmUAvwr7prppIfAqPLSOIG1K+vy+b8g9pm2upG3xJGV05hRaADRu9VRXb/UzSJoyMfhK9enkYwKDJEVroejGNHGHReKfL/qogk+hYz7zppgMjSNhSPZ2AwdM4tzAkIz8lwdDcFiF3bIFqVJNs84h3agCt0p3Fcj+x8Ox0f633dgEGuoIOYdDRW2Cf6Px1S+oeSrnNY6UJk91GKCy5fU5t8Cmhh42aj/7UVuTOw3YtLAASPpM9Jpv+ft9fKiA8lloldR5l0riD6ko7ttNsFDsm07oELyXspCdqalxV+hBfqFettky35Y52bnYBzlb/kRzKs/7U0wT37zodQ9p3tbL3HrpWsBp4Lkl3zL1oQFnpjidcB0BjSIT32uod5dxOryDOlgJYJYgYe4FMBNO6SUuSX6SzIZ4wJ4hdV7rG6DN7AR9e2Ie2nQ8bApolzPoKmr5B61N7iL0qO1s0IAtcYxhvReoiM4p7IEPRsfdV89f0gGT7pf8X8Vx90OnnFkql3acwr1X21rch8faicuMNWPLNGgGfBKdsl8Pz825/3zc7b7t7ce2jeNQiyoAb1v2OGDAmUne8yS8ouy3HCfy1MoGKFWwiXhAeZl3cpjsZZi+vwtB1vdGRn3bVXVOnMYeKs9trB7iXs62/bECzDLAXo3LPsYOeAXVVmqtAsDTDTYCFUnZMk/8in33p/6huOS56s0TSUcXAMByagnoG5iX95voOd7cSB+e+lgL4yxLdjJPKK7zx75B9wOve0Mj1Ldc9VXnt58Z+ybdHDDgTDeHE84vT20hiHKuphoJrcGdw1vbhCroVfOE48J4K4lsADvgQySy6/2D7gVhLqNIZLjo9yWRbRoT588BuFoJz7nS2ujeR9o8g502HR0SN1074QPVgVQPn+sv+j2w+ABy7L4YA5OjEzqkAaj1hTzov+9q93Q0sphFYdMCoZds13cHR9xfkDwHcBythTWPUSDyAI7BgDNTk8YDqv7iXQIaJLPfIaHVlJTgcY6p52EPQw+bslTUGEtdBb9DWrmP7VNtZ9ftZPu8qNTzHCTnCsDmLK1lBTbHcaYoCiDdkubGIWuBkJPsGU6ie3KkvOyne+I8dl3hJqPZRWKUeUOS84mqKvd2Yy2Sc4trZTGTUytKm1Iy5fT7e/dLumJO4CBbcDnEySYtWUeJmEMwFgPOTEwiD2cB9jOp6JfxNl9qanBvoQpKpQ285ukaxhyxnWM8dF/3IJGhzg5gL1N2TioPnCS0XIDpLD25ZaP9qL3VRwLIRputbQIgeYYj5W/PXrhHY5NuCKkslkCwgy1QfNCLQb/fhNSM6eRttABFNYQRCRAmL2R+GWLufiSS4NbAkLuPUyxXYV5m6wyTzUmfy4AzaVbt80AeTK8KEvwtr/PnSDS+BSvxjXpgMyWh3egddNdfDrg72MimSefzKvs+ScIz49snfNnZ6q6iosvkkG2gkS1whAXiu+d97qaAhV7lOZLmdwiF8k46JkDJBX+Alo/bWn3QfokKbURwm8FRJGnz655e9w8kzxwtVDvQF0ESDs2QDDjTPZVx4DxOyuF51NqPeUAVq1kOkGYKNEWi4jqVjfJ1T5/rw6Eih0Myquwb7InTUgGwNJN3/kVnuw90b2YRCMux9cb19vAfqdzq4/0QSewGZonvsOuuoKbvFBwv4CwFNJuIaPiMeXmvpck7t+Soi+Km8CSFm8me+zeAc4Y5VKjZTotDFOk4DGMy4EznLOqm5vx6DJWF8i4q+mUcKTWEvGRaQhOoPMdB9H/JRnmMKjuGQ8U/cLvYAN9gD/SsYQ9swjZ7GjX9C2ybCtyvwB7oQfiNgzP/H6mzL8lp/753gNjHfjfFWBVJsJ2dU7bNWswnZygP9wEhSFLTK1jQMj03yXJqGVoUgiWJWgvgC5x/00ihvhRdsiex40LhgAFnKGzc+iSSaAoApnLsUJ90tBDn2OK6CHIP0ii3/lV6PpVEprzn//Xr01gONA6U/QHnGv22y72k+cWxNp9hk21pM+CYsm3GqW/5E8ByjWybXtIzp5HStpPIBJxtOOs+wtxwCfvm8Zoq3y88HUH7wRhT2csRpoXgEU6+m8R0/tA75PqZxzw5svayAKYyCPut54ABZxpvBAFnEU6hSoz4XyKdfYgnvZGYRxW6yMYmJ9E/CBb/GXX2t4lJtypVdo8DkUf9FB7093EKfQA9KuSRSZPDTsNVqqLU2bsDI+5ad6/7FRrHyDDyQfFb/FDAebyiwv2RBeA80qZqbAo0o0LPxiFrrgSeiiD4GXPEN5I6KX5ixY83cir9/zfgTCOPBZwlgGQdNrQ/ApwftTW7KvKgC7LkCZW6fpc0xR+RyG4RurPAkxgrmZscEwQoSp0/T0riR0hoF8l4UhxqlDaByy/EO1573utukwAwJJPENjZLZQudQgP41xOdJCLU+ESEKNGy3ViUJXWHefw7i4PiVnOzGM2w3RgP++cGnGmeYZVYa8GR8gekmqs4H8pRq7JlQ1No0jPsm9+TinmNeMdZgENxndupsm+whuMkJ1cCQkqr/IToAKm21aRXRm17gBPsO/K7bw6O+pjO7YBTGUOnqqvcn44r6P3gAGcPtuo7ZIP9Q8CJTdfU9MzfgQac6eQ5D2YNVY5OogJ+gtdWgKMSayqAm43Ne2WpZfkd9j9JKyrJlixwBvbaeoD/CpLmxx1trhVvuvK5o7Y9BFRuvOxzP1KSTTbATcDJvPgNtfw04P+n451+30S66EHY5BS6B41foaorWkILQEDPQRj/YRijAWcaZ1Fg0wiwvIM08zucQ28R/K6uiNlypqgsmepZfgtw/vVpz56BU60uGjE7vEfm0ycdra4RNV1hVVHbfgVUvvPAOQpwzm0JnJobBY8rpvZPJ4+509UVtPQoiRopW46nF+C8TzbYXwDOp9hxZXLYs6NvyzPbh8lywIAzWU7t4zgDzn0wLYSfPMJ58gMB/4rnVCm2Tdk1SGgGnCEw+gifwoAzjZOvh7OeOpVvoQ5+iMR5AVW9NNsSJ7nrXuIkNXE/qnojEqZU9U9Q1ZsJS1LcY9S2N4CTYP9NNlwBJy91kTyNo+tPJ1HVcRI1EZp0EDYVcf4FifOv3X3u2SQSp2oHoA2YrTNzs2fAmUZeCzgViqSWsiqEoTJyKuqRLeeQ+hSpVue3BIf/lbCkvQOnc7W0yL2Mqv4xqrpCkapQ3aO2Baq6nEN9hGBtAs6EAcur/idqbx4o5xDAeRdzxN8DG2cCPfY2Mxww4EwjnwWcpYQjNZJp8yUPpwr9qmCx2jBkY1Ouswobf0/w9PeosbFmZ4xE0spumyQ0jlGrjwv1de5DQquUQtoQQbugCmAojlPxqoMLAOc24TqaH3nV//V4x4EKR4qVmBsl7VLhSNObbbi7zaV9nzIHDDhTZuH2J9CDWQTQVOOJ/mNXh4/jrKP0WrZyoVUh/Tq2v59VBIMYR/UoV+O3PW0A6CnqiX6A9Kyq720RqVspGuRbVoD4PWIcv3720t1DnR0mdnW7lERfTo7Gcv9yosO9xSLQQvRDEkvIntgV9sGisRsb7l0qXf0NVb17hjhOtJrIDzxsRmT5fAacaZwAAac80RVIPF8QjvQBsY9t2AXlWc/GNkSWyX88eub79PQQlkRcVHLSZjBYQEm9xk9UVHo756fEpnaSRRSVTZlDc+Sr30Gavvasxz2CxnH+r7qVW20Czk6Kr3xOBtTbmB+UDiszSlTBU6CpKlBPqHh/i1hcVbt6yZxayuVWs5vezww408lfHmQp5UWA5/u0Y3gPCe0cDcCqigvBrMyq6/MAnuL//oNc9V9R14d9f579AWdbaal7i0ybL1BxT+L4KmIhiALYKNxqBCC5SZGPr1FjB8kamlvFxKAFYotNYTyq8nSZdhmxCvY1rhiQjWquugo2z5LEoAB/FTK5hyliZHGBzCGTOLeY3rR+ZMCZVvZycsBTkudp1NtLDXU+v7sZ722maz4OAiiPAMyvnnT7NL0pSWIC72TsmwGPRAtgU4snXf3SP+9q8wtBHeATBbBRY7On0HgdG+7XZEYtATRKKd3OOaR58QkKVEdS5fdLFJcOq51xwLIw9ypiMuaLmAy7b6BPJeZmANJNAf5hXtTOtSUHDDi3ZEuIH8aBs4kc9VM8oAocP4GUVp/h0JefsPsp1VI5zip8QTXOvYFmwBLoUWOzSswPouWKpGgazmUrUiAYlvaTSNG3sf2paPMPA4PulXLUtTBsszgIOEuQRtWk7fcsAirKXMe8ZMsGnUjLVu9lhlCm0HWC+/+JfXOBufA26m3o2+oc9lk4HDDgDIeP259FwMlL/bqb8a4r6+Zt6nKeRtVV24x0S2qSUuRNV17zddS7XpwJi4r7S8FUIMDJw+Cm3kkyPyhaQPGp2QTPBUBFZfOu9fS6O4QhPQFgdu3Jw7zI+qm2wJ8hcSpSoBMvu6TOdM/L9jfM1t/I6aWF4c7wKCmz/aSU9nun0HZmiK3PYp+GxQEDzrA4udt5aG6mFg2qZfkBD+hnSGuleEMLt7G/7Xa6ZL8foxfP4/EJX9j3NhWR5lG1JaWkCpy5gG8X6vpFyrF9hrRWj91TBUyytamj5wNiG/8fgf0vANAFFoykTBEAkmMhuIIZ5X0WtIssBLUUmo6a1KlunjK3fMvi9zNaw28AqPUcytbdxvPzb//+ZznrYttGkd9b/F+b/V+/4/AN3wWnWN/v8v0b51r/0YY3G8ez4esD9V8eUEkxqpZ0HgeRQnlO4MVVHGQhDomk+LEHgiWhqIHZcxqYqbDvQzyxApR11S4V3gpseJWxEJzAq646o2eRoNUSRFJ0JqvBi071V/9laMTdol3GD32YIpaX3Ktk7bf8XhK0HF5nqGov84N6Q9VELD51kIwvb6MmcaGb6kiT0JjUwrCHe8YOTZ4DBpzJ8yr1I/WQ8mrhIT2FnVNqrsCzjtJsqtEZhnqoVXAVIFAbCRW8FaDIvjmEmjeLZz3Mh02hSerceR5pLRYxUOOrJWWq3qh4qWiBiflFd4PCJeoA+TwwRWwTgrRpEuNzotbNKv/3OcCposbHUNk1H6msL5uutY8PtDDIm/6AmFR1t1S0wPiitcvYBytD/YkBZ6js3OVk8YdU7TTKCCG5wAN6gcDrt5FAq2lJK9U9lU2g6W1hSJr9xDD+2D/gHo7EJM0lCYkSa8NEAuhRpacSpMz3sHO+T73Rc+pBhNc9jEVgJ16IVvWNH0CKVqbQD8RuPsSjTv/OvfeNhw6xRg6v81Swehfb7RXCx2S3zVaWV0C7VPRpwqqukV6pbC85hxYA0u2C+oPf2T69HDDgTC9/N59d4IlEqMjCRiTPY0icb+GVlnrYike3rLAQ6TMv6ZqdAhBJXnICyUEywUOmIhAqN/aQ3jT9qHgzfOcBM0zQDCgTPZy/C5X9LIvAu4T0dJKBowwpL7EFx4W4V6C76B1kcfhtlP47eNKfQ/PofmJT4+PSnBTGpc53iOtU0ekWyuZVsghky+mlYPdRwo80l3II3UV70FxSRG7b2NQQ2Wyn2oEDBpw7MCcdXwm7VM1GD6oATx0iW3lAL2AjVFB5Gw6XctTfIsBzo6oY2EEFltr4ORLmGtkkao276IZ5yJ6jnj/mQVOFoHE+W8L+l9Y4PwEntEgyqycP/zIVoC42NsRqj6IuK3QpLJun6JZErWIlUwtLPrTq58ERd3N42IdXpeLwkoNI/C1Eelb++mUWAKnsLdhtVZgl3RK05jPYgsVQ0RCyUX+HQ0jtQF5Q7T2X+yUlOoOL2D4lDhhwpsS+FH4s1GOT5FkMuDRiX2sDQLt4UNU+WAWCa5HaSlHpdYy873lxD/wqYKgsGdn3psnFnsTGN0IVoH5ePUheY0he0zgPVriEv0o6JE0NPtigRW3figDPRsWroq5L5fWSJ/ZbdfWUSp8KgAowfQA4hZj76bPTMz7lfmFxUOrohJxBGksqdMbnI4d9NVJ/M7x/D3VdUrSauKl3VKYkTy12anPyKw69e0iZP/cPkzq6RKSAChYD76nQGcyZ7VPigAFnSuxL/cde8gQEJWGqBJ0qKamCUmlxTBKt5CGWp7oY+5tUeAGIbHve9rW05CYWFkgzXPBgqSIeI3wmL7MgM0xH0K6UMi6BjiRMVVIXaMoB1o4ErcwihSqVQIPAJxd6Aul5E5hyjmBDkHarSNSidw7pSwuC+u30IFF3j0+7l7TFUGm8MIFE85HH4Irh9Tmqw7/FInAGG3QDi5nahITlxAtoDPaieg2CF9diLY5lo741RNgRNupuJM018Qze2RYNDhhwRmMe9NR44NE+l4e2QCAK2FSgJipcqZj/C3Rkx1zjGBR93zN8Cg/rGBKnAAYEIQwnixKJQE8AykgEMB20QhZwtmPHVfyq8sLLZcPNj0UQSP2NmSMCGOXn0BZAp2x88wCmAr9fAJhyjDxmP0A8oxYJEDjmCAp7DkWD4m4B+jZokAPvbF0t9mjVH01Pl1ItiAs4gsZYCNU3/Z5CyJCqhzG3vJKEaVJm2LOc0vkMOFNiX4g/5sGRzdMbLgUogIJUeFVXkpqroiACGYGJP45LL3H8Eg+4VLsY2EgqeQ1CIY4u+VOJBjaNQnGeFQBlOep6KxJbE5J0OS953WXbLQWYfAJAMGSRz+9Ej8KpJmWGADgmkSz7kaoVAD7OZ3OrK24Z6cxLq/Ak9C1OA7AMDfmEi5UQ7F/mjuHAO4kEWs8CEHPiYT7h+vu1f8rJpdAx2ajV8170yab5jJf2E/Bgge+zPqehM/jgn9CAM8JzqIIar7wkGQzyTZDwmMGfqKpwGr+2XKTPakCyujDflaLu1vCqpUKUzBBFW8RbKid7EpODVPMJXjO8xrH5zfC5R9YMqa2SfoOtFom/FbvnBWJWVfleOe1VAn8+Fw1ecma52A7HtSBowRMm89ebXNR1dBaa9HqBNP0cE8STsSk3CIhOImn7dMrtThgMzPZZ4YABZ1bYnuRF45LPjkdH+cEKxs8Yc3mvKqSSpJV6qsr4Cv+RxLZxW+FYOb9mUV2XsPmtAMCrHCfwiW38ZvPPgi/D3cdpkHWxhPEqcqAGCbq2rNgdryCEDBNEI4BaGLffxuoPUNMzkPz5vWyXoslLl9Alm62kakmYA4SL9dIXaXBm3jv4plggFgFsD9lb8CZc4uxs++WAAed+OWe/2xMHFILlxS0AT9KZAEaFQrbCPxkeKKNJiJEkMy6j4wREWQQSjV+qu8KVSlDfFSkgm209IFojZx7mBznAqpBAfRxuPAJCtss1QFIe8VlMDFNIz0tImAqpGsPsIPv0CHZNRUfMA6hS382muadbKysHG3Bmhe12UXHAq8IAxXZbRqMCthtE4ucCNY2XlwBf9lnZoPNzcn0kRK1sufEMsDykam1y5K0CiFO8ZLNUFf55QFKRDyuyT3OudRs150qb3daPxv6ExQEDzrA4aefZOwcEQjttWZQwtx1WwpgFclLhFYalBACFMFUSBSFH3uswK8AWaVVOHlWm0l4quwBVkqVU8sDZ568ZRZq3ZcbR/cKA8+jOvVEeBgcAzQD4BKI+TnUL+4OiAKSGeyk6/huTLsOYgOycw4AzO3y3qx5SDmyBmZ7SXWTrQ8qNw0uWAefhnVujzDhgHEgTBww408RYO61xwDhweDlgwHl459YoMw4YB9LEAQPONDHWTmscMA4cXg4YcB7euTXKjAPGgTRxwIAzTYy10xoHjAOHlwMGnId3bqNJGTGM2rRbj/XWm/jnwaA3fR98YXvjQAQ4YMAZgUk4MkMADX2wOMHg2gf55z4oXJk0AXgCqpu+PzJMMkIPAgcMOA/CLB3UMQZAyfjzKI6h1hrlFMgoJDUxnzxvHyzO+zzSFFXIQyX01qiItEIBjBVyu1WncglAXeBzZd54WXVdTD2oTLFxHwYOGHAehlmMIg2AZiwFMccVUARDRYsrVVGIEmzlRaphGWuFrDJz+Xyu9EPlb69Qh3IJ4FwCQFXtfpq6nCperFqcqh60zHnX87sNRKM480diTAacR2KaM0wk4KbCF+WUWKulWpDaIDdSv7I53kqjigLGxUEBY8DvdUGMmIouNV2FMCboZDlKUd8+mrOpqpCvX0knzxmAVQBqud4Znle73DoHDDjXWWFvUuKAgIwTqNZmqaoEAY6tFaW+c2cHPderqVlZTc3KGoA0aNq20/U4ne/0OIO0OcFrnPYZQxT9fU7Pod6ZWTc8v+DmAFcVznjtZdrpjPadcSA8DhhwhsfLo30mQEyquSq7N9FWopP2EqfpT36CTpedNGtT1aDtCmAkwzh19VTTNvWN/3V0zN2nodkg4DmD+u4L/yZzEjvGOBASBww4Q2LkkT0NEp9Ua7UFrsSOeQLp8kQNL5qaNQOg1fHCvvttaBbwNdZXnX7j2Dx7aZ37dGzc3R+jrzp95EfVCVIHms0zYJft08wBA840M/jQn17AibRZSwO29ooyd4lmZseRMjvoq16GE0ge9LA3tZ+QzfP+yJh7ODbhHgGgs3IcMQ4Dz7C5befbigMGnFtxxT5LmgOqbv4K0LpQX+suN9a5d5obUdXVPz3mKU9FPd9uEJJwBZKDOI0eoLLf6B9yL3ivHj7mMNqOa/Z5mBww4AyTm0fsXAJMxWZW4wi62tbo3m1qdB3YNstxAqmVRDo3geccHSH7UNsfDo+5nwZH3CPa66qHj6nt6eS8nVscMOC0+2B/HACgiFKnR3qhO1Vb5T5oa3HvIHFW4j2XIyhTm7zuA3jZr73ocz/1D7uhxQVClbixMziGTNFq14kOBww4ozMXB2ckAk1eBejhnfQW/6i92b3dWO+6kDbzCHbPpI9mFVOBerDfHhh2N/sHeQ25aeI8c3BU2WYcSBcHDDjTxdlDfF45g3J4NRQXu/MNte6zrnbXWVlOjGZxVqiWav6MMKV7qOt/7+51/cR8rmgkmUTwrFBuF80WBww4s8X5A3xd2TZzaXV7jpCj91oa3afH2rFrFvk+49kia4KYzicTU+6/nna7p+wVNB+5vuzZYo5dN3QOGHCGztLDf0JJnFKEP25pclcBzsutTeSe5/msoWxRvwSYy9b5t6cv3N2hUfdsahp1Pc9sndmakEN+XQPOQz7BoZOHbTMPFbiC+MwvO9vcuwDnybrqjDqEtqNpHKnzenef+wFb5x1iPA04t+OUfZ4qBww4U+XgUfo9oKkwIGUItZQWuy+Pd7q3CXhvKC/NqrQZTMEUGUR3Bkbc9b4BH9tpqnrAGduHzQEDzrA5epjPJ+BETa8n5OgE+edf4BQ6i51TIUipplSGwTbFdSqX/XuA89uXgz6PXVWUzEkUBnftHIkcMOBM5Ia935kDgJAKDbchYb5FptCnqOonSa8spRBxOjKEdh7M5m9VCGR4dsb91DfkvnnR7wZJzVQqpsV0buaVfZIaBww4U+Pf0fq1gJOCwl3lZe4iwe6foaofp6BHFKRNTYQcROPU7/yJmE4FxPfOzsdiOi0Y/mjdpxmg1oAzA0w+LJfweemow8cIer8EcH5xosN1IXFGZVsmREp1O2/FgfMF9TunAfoc2nTYZhwIkwMGnGFy85Cf6+AB52wcOMOv0HTIp9rI24UDBpy7MMi+fs0BA87XvLB3R5sDBpxHe/73RH0AnJ3l5dg4a93n2DiPoaqrg2UUtpiNcwEb51Dcxhmo6iZxRmF+DtMYDDgP02ymmZYAONuo7H6uvsZ9dqzDnSQcqTgiXnUB5wgOoZ8IgL/WQ846XvUZPO3mVU/zjXEET2/AeQQnfd8kx8ORmijmcQpJ89OuNncmQnGc8ziCukm1vNE74L7Gqz6rbphUTzLg3PeM2w+34YAB5zaMsY+34ADA+QrPtbpVtlMN6bOOVnceybOJ8KQohCSpB/sDihp/2zvovgE8qX3niTDg3GIu7aOUOGDAmRL7jtiPBZxkDhUR3lNTWOS+ROK8TK66r8MZgVhJdcH8EcC8AXDeHBy2XPUjdntmklwDzkxy+zBcC/DM4VWCQ+ij9hb3PhWSVMS4EDDNptSprKHB2Vn39fOX7vbgqHsyOWXAeRjut4jSYMAZ0YmJ8rB8PU4kzwsN9e49Ssp92tHiymjOlu4+QzvxRPU4n5Kn/t9Pe9wT9qOo7TlUcPLN23b6oX1nHNgHBww498G0o/4Tqeu5OF0acRKdJ4PoD6jsrRXlropiH9naumnUdhdJ8yskTlWAX2YgOcqgj0akVLbYYtdNEwcMONPE2EN9WlR19RwqQl0/UVnpPkbiPEcLjTbAMw9bZyaxagUQX8R7rrYZN2nW9iO2zSlLszzUt18UiDPgjMIsHNQxEDdZT9+hC0idH7Q1ew97CbU6M2nrnEUlH56dc9/Gu1z2zS34FsGWn35Qb6qDMW4DzoMxT5EcpWydpQBlY2mJ+x3e9UvNDV5lV5k5VYlP5yahV/U3+2mX8ZBq77eRONVXfY5wKR+ElObrp5M2O3f0OWDAGf05iuwIva2T0RWisl+oq/V91S80URG+pNSVKZsoTeC1CmoqS2gI0PxtdILQoxH3fHLajSwsWLB7ZO+WwzUwA87DNZ+ZpwYQU3hSZUGBa68oIzyp0Z2lyHEXFeLzAc50qO0zS8tuDAfQPcrH3R8Zdw/wos+urbrVWLx75nlgVzxyHDDgPHJTHjLB0pl5qc5HRX6BOwlgnqur8eBZj9e9giyjohBy2YWJcgTN0va3jzqbPcRpPiRL6BmtgPuRNF9Juk2ThBsyx+x0h4ADBpyHYBIjQQKgJqum1HYVOr5AKuZpAFSpmbXYQPNy8LZzwF4lUDWHI/LJyXI5h6TZg0r+eGzCPRyfcL1TM26cBm1L2DWdMpcMOCNxKxyFQRhwHoVZzgSNkjzZpLaX4TCqKSoiFbPcdRGi1FVV6arpilnNZxXFhUm3El7hXALLCdTyiflFN4ik+XhqyvVOz5IlNO/mUc+XQFWBq4FmJibZrhFwwIAz4ITtQ+GAHEbaJFnWFRa6JqTNFmyfzewbKUdXz764IM8p2rMgPw8JNdcDqSRKla1bBgNXAMQVpMhFHEDKP+/DCTQMaA4SdtRHT6EJQpDmVC5OEqZJmaHMm51kbxww4Nwbv+zoPXBA0qdwLS83zzVh62wis6i+pMSVF+a7YqTSSkC0Ggm0CoBdViA7YDkFIM6qOyUplLOo4WOyaS4uuLG5RTeN9PmK85k9cw+TYIemhQMGnGlhq53Uc0AqtDbQU0VBSpEuS3AgFZBDnk9REDmNFAdaieS5xrGqnTktACXzZ4kYzeXlVbeA1CmP+QKfyzm0nkZpkmaMt/Y3Kxww4MwK24/gRQFGb4uE9EQVOx8JsjQOggonmuc4gahX+eO4K6+Tr6lpYHkEb5xokmzAGc15OZyjAhD9lgCAYKL3xiukyQMrUqk/Kjg24ETCb4KPbG8cyBYHDDizxXm77pscCIDSAPJNvtj/IskBA85ITosNyjhgHIgyBww4ozw7NjbjgHEgkhww4IzktNigjAPGgShzwIAzyrNjYzMOGAciyQEDzkhOiw3KOGAciDIHDDijPDs2NuOAcSCSHDDgjOS02KCMA8aBKHPAgDPKs2NjMw4YByLJAQPOSE6LDco4YByIMgcMOKM8OzY244BxIJIcMOCM5LTYoIwDxoEoc8CAM8qzY2MzDhgHIskBA85ITosNyjhgHIgyBww4ozw7NjbjgHEgkhww4IzktNigjAPGgShzwIAzyrNjYzMOGAciyQEDzkhOiw3KOGAciDIHDDijPDs2NuOAcSCSHDDgjOS02KCMA8aBKHPAgDPKs2NjMw4YByLJAQPOSE6LDco4YByIMgcMOKM8OzY244BxIJIcMOCM5LTYoIwDxoEoc8CAM8qzY2MzDhgHIskBA85ITosNyjhgHIgyBww4ozw7NjbjgHEgkhww4IzktNigjAPGgShzwIAzyrNjYzMOGAciyQEDzkhOiw3KOGAciDIHDDijPDs2NuOAcSCSHDDgjOS02KCMA8aBKHPAgDPKs2NjMw4YByLJAQPOSE6LDco4YByIMgcMOKM8OzY244BxIJIcMOCM5LTYoIwDxoEoc+D/A5SmkfFsZnkPAAAAAElFTkSuQmCC;" parent="90" vertex="1">
                    <mxGeometry x="620" y="110" width="44.35" height="44.88" as="geometry"/>
                </mxCell>
                <mxCell id="87" value="" style="shape=image;verticalLabelPosition=bottom;labelBackgroundColor=default;verticalAlign=top;aspect=fixed;imageAspect=0;image=data:image/png,iVBORw0KGgoAAAANSUhEUgAAAQwAAAECCAYAAAALhunjAAAMP2lDQ1BJQ0MgUHJvZmlsZQAASImVVwdYU8kWnluSkEBoAQSkhN4EkRpASggt9N5EJSQBQokxEFTs6KKCaxcL2NBVEQUrzYIidhbF3hcLKsq6WLArb1JA133le/N9c+e//5z5z5lzZ+69A4DacY5IlIeqA5AvLBTHBvvTk1NS6aSngAI0ABWgwJDDLRAxo6PDASxD7d/Lu+sAkbZX7KVa/+z/r0WDxy/gAoBEQ5zBK+DmQ3wQALyKKxIXAkCU8mZTCkVSDCvQEsMAIV4oxVlyXCXFGXK8V2YTH8uCuB0AJRUOR5wFgOolyNOLuFlQQ7UfYkchTyAEQI0OsU9+/iQexOkQW0MbEcRSfUbGDzpZf9PMGNbkcLKGsXwusqIUICgQ5XGm/Z/p+N8lP08y5MMSVpVscUisdM4wbzdzJ4VJsQrEfcKMyCiINSH+IODJ7CFGKdmSkAS5PWrALWDBnAEdiB15nIAwiA0gDhLmRYYr+IxMQRAbYrhC0KmCQnY8xLoQL+QXBMYpbDaLJ8UqfKENmWIWU8Gf5YhlfqW+7ktyE5gK/dfZfLZCH1Mtzo5PgpgCsXmRIDESYlWIHQpy48IUNmOLs1mRQzZiSaw0fnOIY/nCYH+5PlaUKQ6KVdiX5RcMzRfbnC1gRyrw/sLs+BB5frB2LkcWP5wLdokvZCYM6fALksOH5sLjBwTK54494wsT4hQ6H0SF/rHysThFlBetsMdN+XnBUt4UYpeCojjFWDyxEC5IuT6eKSqMjpfHiRfncEKj5fHgy0A4YIEAQAcSWDPAJJADBJ19jX3wTt4TBDhADLIAH9grmKERSbIeIbzGgWLwJ0R8UDA8zl/WywdFkP86zMqv9iBT1lskG5ELnkCcD8JAHryXyEYJh70lgseQEfzDOwdWLow3D1Zp/7/nh9jvDBMy4QpGMuSRrjZkSQwkBhBDiEFEG1wf98G98HB49YPVCWfgHkPz+G5PeELoIjwkXCN0E25NFJSIf4oyAnRD/SBFLjJ+zAVuCTVdcX/cG6pDZVwH1wf2uAv0w8R9oWdXyLIUcUuzQv9J+28z+OFpKOzIjmSUPILsR7b+eaSqrarrsIo01z/mRx5rxnC+WcM9P/tn/ZB9HmzDfrbEFmIHsDPYCewcdgRrBHSsFWvCOrCjUjy8uh7LVteQt1hZPLlQR/APf0NPVprJAsdax17HL/K+Qv5U6TsasCaJpokFWdmFdCb8IvDpbCHXYRTdydHJGQDp90X++noTI/tuIDod37l5fwDg3To4OHj4OxfaCsA+d7j9m79z1gz46VAG4GwzVyIuknO49EKAbwk1uNP0gBEwA9ZwPk7ADXgBPxAIQkEUiAcpYAKMPhuuczGYAmaAuaAUlINlYDVYDzaBrWAn2AP2g0ZwBJwAp8EFcAlcA3fg6ukBL0A/eAc+IwhCQqgIDdFDjBELxA5xQhiIDxKIhCOxSAqSjmQhQkSCzEDmIeXICmQ9sgWpQfYhzcgJ5BzShdxCHiC9yGvkE4qhKqgWaohaoqNRBspEw9B4dDyahU5Gi9H56BJ0LVqN7kYb0BPoBfQa2o2+QAcwgCljOpgJZo8xMBYWhaVimZgYm4WVYRVYNVaHtcDnfAXrxvqwjzgRp+F03B6u4BA8Aefik/FZ+GJ8Pb4Tb8Db8Sv4A7wf/0agEgwIdgRPApuQTMgiTCGUEioI2wmHCKfgXuohvCMSiTpEK6I73IspxBzidOJi4gZiPfE4sYv4iDhAIpH0SHYkb1IUiUMqJJWS1pF2k1pJl0k9pA9KykrGSk5KQUqpSkKlEqUKpV1Kx5QuKz1V+kxWJ1uQPclRZB55GnkpeRu5hXyR3EP+TNGgWFG8KfGUHMpcylpKHeUU5S7ljbKysqmyh3KMskB5jvJa5b3KZ5UfKH9U0VSxVWGppKlIVJao7FA5rnJL5Q2VSrWk+lFTqYXUJdQa6knqfeoHVZqqgypblac6W7VStUH1supLNbKahRpTbYJasVqF2gG1i2p96mR1S3WWOkd9lnqlerP6DfUBDZrGGI0ojXyNxRq7NM5pPNMkaVpqBmryNOdrbtU8qfmIhtHMaCwalzaPto12itajRdSy0mJr5WiVa+3R6tTq19bUdtFO1J6qXal9VLtbB9Ox1GHr5Oks1dmvc13n0wjDEcwR/BGLRtSNuDzive5IXT9dvm6Zbr3uNd1PenS9QL1cveV6jXr39HF9W/0Y/Sn6G/VP6feN1BrpNZI7smzk/pG3DVADW4NYg+kGWw06DAYMjQyDDUWG6wxPGvYZ6Rj5GeUYrTI6ZtRrTDP2MRYYrzJuNX5O16Yz6Xn0tfR2er+JgUmIicRki0mnyWdTK9ME0xLTetN7ZhQzhlmm2SqzNrN+c2PzCPMZ5rXmty3IFgyLbIs1Fmcs3ltaWSZZLrBstHxmpWvFtiq2qrW6a0219rWebF1tfdWGaMOwybXZYHPJFrV1tc22rbS9aIfaudkJ7DbYdY0ijPIYJRxVPeqGvYo9077Ivtb+gYOOQ7hDiUOjw8vR5qNTRy8ffWb0N0dXxzzHbY53xmiOCR1TMqZlzGsnWyeuU6XTVWeqc5DzbOcm51cudi58l40uN11prhGuC1zbXL+6ubuJ3ercet3N3dPdq9xvMLQY0YzFjLMeBA9/j9keRzw+erp5Fnru9/zLy94r12uX17OxVmP5Y7eNfeRt6s3x3uLd7UP3SffZ7NPta+LL8a32fehn5sfz2+73lGnDzGHuZr70d/QX+x/yf8/yZM1kHQ/AAoIDygI6AzUDEwLXB94PMg3KCqoN6g92DZ4efDyEEBIWsjzkBtuQzWXXsPtD3UNnhraHqYTFha0PexhuGy4Ob4lAI0IjVkbcjbSIFEY2RoEodtTKqHvRVtGTow/HEGOiYypjnsSOiZ0ReyaOFjcxblfcu3j/+KXxdxKsEyQJbYlqiWmJNYnvkwKSViR1J49Onpl8IUU/RZDSlEpKTUzdnjowLnDc6nE9aa5ppWnXx1uNnzr+3AT9CXkTjk5Um8iZeCCdkJ6Uviv9CyeKU80ZyGBnVGX0c1ncNdwXPD/eKl4v35u/gv800ztzReazLO+slVm92b7ZFdl9ApZgveBVTkjOppz3uVG5O3IH85Ly6vOV8tPzm4Wawlxh+ySjSVMndYnsRKWi7smek1dP7heHibcXIAXjC5oKteCPfIfEWvKL5EGRT1Fl0YcpiVMOTNWYKpzaMc122qJpT4uDin+bjk/nTm+bYTJj7owHM5kzt8xCZmXMapttNnv+7J45wXN2zqXMzZ37e4ljyYqSt/OS5rXMN5w/Z/6jX4J/qS1VLRWX3ljgtWDTQnyhYGHnIudF6xZ9K+OVnS93LK8o/7KYu/j8r2N+Xfvr4JLMJZ1L3ZZuXEZcJlx2fbnv8p0rNFYUr3i0MmJlwyr6qrJVb1dPXH2uwqVi0xrKGsma7rXha5vWma9btu7L+uz11yr9K+urDKoWVb3fwNtweaPfxrpNhpvKN33aLNh8c0vwloZqy+qKrcStRVufbEvcduY3xm812/W3l2//ukO4o3tn7M72Gveaml0Gu5bWorWS2t7dabsv7QnY01RnX7elXqe+fC/YK9n7fF/6vuv7w/a3HWAcqDtocbDqEO1QWQPSMK2hvzG7sbsppamrObS5rcWr5dBhh8M7jpgcqTyqfXTpMcqx+ccGW4tbB46LjvedyDrxqG1i252TySevtse0d54KO3X2dNDpk2eYZ1rPep89cs7zXPN5xvnGC24XGjpcOw797vr7oU63zoaL7hebLnlcauka23Xssu/lE1cCrpy+yr564Vrkta7rCddv3ki70X2Td/PZrbxbr24X3f58Z85dwt2ye+r3Ku4b3K/+w+aP+m637qMPAh50PIx7eOcR99GLxwWPv/TMf0J9UvHU+GnNM6dnR3qDei89H/e854Xoxee+0j81/qx6af3y4F9+f3X0J/f3vBK/Gny9+I3emx1vXd62DUQP3H+X/+7z+7IPeh92fmR8PPMp6dPTz1O+kL6s/WrzteVb2Le7g/mDgyKOmCP7FcBgRTMzAXi9AwBqCgA0eD6jjJOf/2QFkZ9ZZQj8Jyw/I8qKGwB18P89pg/+3dwAYO82ePyC+mppAERTAYj3AKiz83AdOqvJzpXSQoTngM3RXzPyM8C/KfIz5w9x/9wCqaoL+Ln9F8ljfFELuSR2AAAAimVYSWZNTQAqAAAACAAEARoABQAAAAEAAAA+ARsABQAAAAEAAABGASgAAwAAAAEAAgAAh2kABAAAAAEAAABOAAAAAAAAAJAAAAABAAAAkAAAAAEAA5KGAAcAAAASAAAAeKACAAQAAAABAAABDKADAAQAAAABAAABAgAAAABBU0NJSQAAAFNjcmVlbnNob3RmckhOAAAACXBIWXMAABYlAAAWJQFJUiTwAAAB1mlUWHRYTUw6Y29tLmFkb2JlLnhtcAAAAAAAPHg6eG1wbWV0YSB4bWxuczp4PSJhZG9iZTpuczptZXRhLyIgeDp4bXB0az0iWE1QIENvcmUgNi4wLjAiPgogICA8cmRmOlJERiB4bWxuczpyZGY9Imh0dHA6Ly93d3cudzMub3JnLzE5OTkvMDIvMjItcmRmLXN5bnRheC1ucyMiPgogICAgICA8cmRmOkRlc2NyaXB0aW9uIHJkZjphYm91dD0iIgogICAgICAgICAgICB4bWxuczpleGlmPSJodHRwOi8vbnMuYWRvYmUuY29tL2V4aWYvMS4wLyI+CiAgICAgICAgIDxleGlmOlBpeGVsWURpbWVuc2lvbj4yNTg8L2V4aWY6UGl4ZWxZRGltZW5zaW9uPgogICAgICAgICA8ZXhpZjpQaXhlbFhEaW1lbnNpb24+MjY4PC9leGlmOlBpeGVsWERpbWVuc2lvbj4KICAgICAgICAgPGV4aWY6VXNlckNvbW1lbnQ+U2NyZWVuc2hvdDwvZXhpZjpVc2VyQ29tbWVudD4KICAgICAgPC9yZGY6RGVzY3JpcHRpb24+CiAgIDwvcmRmOlJERj4KPC94OnhtcG1ldGE+CqpYb4sAAAAcaURPVAAAAAIAAAAAAAAAgQAAACgAAACBAAAAgQAATve2rD+kAABAAElEQVR4AezdZ69sy1Hw8W1yfDA5w7mYbHKOMiYnkUQQAj4VEm8QYBBCvIAXiCgQySRjoslgg002Oef0rF+f+c+ts+7MPnufcH24TEs91V2pq6u7a/WK87x/+Zd/+Z+rJyD9z//8z5X8IOl5z3veg4g9Q+Zh2n9UNjzDqBsgTvkue4JTzal+pmNCsuXXe73XW+VTevb6ZpuzfJ1s7dT+f//3f1/tc7RT7b3BG7zBUv+f//mfax6RpfP1X//1r9Bk5WkPPfjAU/3L3ikzy9H/L8HnPRcChgF72IHcT8LbTAJtP2z7t2lvz8v2vf3ZE0xmzzfx6QlGs5jmgkrHhC28ZMEWfOUJ93wW+n/913+tfoByOLBytNpjI9ve6I3eaJn77//+74tXRZB40zd906s3e7M3u3rzN3/zVcb3hm/4hit4CCCzb3tfzXrl4Grs/+DPJWAcBt0EftBkEr2uJ9Le/r090fdQn/f245k5v6QTrQULtogtavUWuMX7H//xH/fk/cKn69/+7d+u/vEf//HqX//1X4+Bghx5tPLUVVvakwQHZTJ0CgQCxVu/9Vtfve3bvu3V273d2y34Vm/1VlfPf/7zr/7f//t/V2/5lm+5eASQU6n+7iHecKfknsu4S8A4jK5J9qDJ5HldTyD214fKFpAyOHO4+PS7cnwt7OBeV0ECtJAtalCdzFzsyjI62tRJL9l/+qd/WgFDPXn8yQbRaidb2S9AqKNJdg8ChgAhaLzN27zNyoKFAPLO7/zOV+/wDu+wAgkc3nYp5BvP+0G8/5fSJWAcRtuCedD0ug4YBYAWUIuuxdwis5jkFix6vC3ooKO9hQyGS77Fq04Hvu3UdvHRLcczZWuv4JTP2RBNGX7W4cp72cbMGKDhkzrVsPOwgxAMyoLHe77ne17duXPn6qmnnlr5BS94wQosZO8XJKLjLZ3CRXsuwbMBo4HJEUF4qXrOOIff06ufkj+nI3yye7jXtaffpH6qjfvpTQbfOV48cgshmWkT3Fwg1eHCB1s46ukNFyxAtGg7+oPhwHRa+OEr4y2jzWBRGaQDFFiqhwMLIP+1BZH/Pvhi9n35bkM8b9shSPpUXojxk4+DSJWDfDDxp3Q5FXmXd3mXq3d7t3e7evd3f/er93mf97n64A/+4FV3rUN+kzd5kxVo0ruUHtqDO4WPZ0Ltz7SXi77HT5knqXwMGNNwZYMN5hwRW4KX5hVnfA1UfDkgvWD6yKdXWYpPOVllKdnKYDx7PWi3SbUbTC8ds3xKZzLneNH5S24x8dNezqLqiI7PAnXEhgs/F28LH+/US3cLFKQnuWSqo+FhG7l9PoePTx+UwfpZOXik03/gy4/5tvF7vW0RWlrpjy945NvmYbK1E029NsmFn/zoXQx1QVRwEDw+4AM+4Op93/d9127jPd7jPa7e9V3fdV3jaD7zh9TOZeqEry3l0rQnehBP9itPvPqTmlbA2BuubjKBOWjvuPsFjDpMhxTkGCkIL1cPLqbdTzpC441/0s6VyU1adZPIhEA7lZvEwT3PKTwcH1rQFmkL30KdbbFBPXr8M2DsFz59+Oaip0ebdGm3jAfvzNmFd9pOx7mUn8/R9/j483c+iy86KM+A8T9bP1Y6zBXl+IJwUye8uv5I8QXjRVeePK5z2Gk8tZ2evPd7v/cKHO/3fu+3Agma3QaZdIHWA5he5alTGa32kp1tL4HDT/SJexLLZwOGySQVMKZz4PcdnI7IicF4wZIyZ5rI+GYASn9wyiUfDSTfwFSv7eApPJxkAVmwbKGnxdYis+jmwkPnnxaceos4ebIW/T//8z+v/A//8A/rwh5cvOSm7WSn3n0ZfZ/J888M6NmQbvX8AO4Ten1By98TzjKeU3qmrLKUDefap9esmKckm9CS3QxZsLbvIp9u+zob5nzCp3/ZkB56+c01DkHBqYoLpHfu3Ln6sA/7sKsP+qAPunr/93//q3d6p3e6euM3fuPFS49E/wwa4ed6wTdtbFzA5NOx7yPZJzGdDBgMzQF7x+eANdCHAcU/8Q1MEH3y5xyOK2DYJoZPDn1fDgfuy7PO/pktTvRwyYNoBQxlWYBoZ1BZvcCBh67k4cOB+kVnASMoYOCVk88/oKTP16V8OWH8js62/+yiJ5+ir4W5jZnFCd9kxcfm2W5yq40lfO/inby1fZftLp8ynn0+xzvxszztmLomT+XJO/vWWJOPh8zq25jD5rp5+PZv//ZXdhiua3zkR37kusbxju/4juv0JZkCAxl6jaVUu6uy/WhbIocvPxcw5vpajE/4z9mAUUenA3R4j4eTTuHRktnTc2D46TjOb2FaeC2wIFy5RUqPTLYFa4Hvs0WcHrzl9KjXJjjl1dONL9vzwb6/eMt4ayNb4+c//tinczj4Jpzxmbo3h69rAenCe9RzGA8jFi4Y/0m403mS5wwy30TOngnx8Oc53mRPwWl/5fSAM6PP+Uwf38F1wGKHHcdbvMVbXLmW8aEf+qEr23Gow6OToy+52oRTRqfLmEvGqzmOZ+bF8L/kZwUMtp7qMHwOzgkcIdV5+GQXYftR56wWmAU6j+Bo9OTUeMODLeq5eE/hWoS1SbZFin8u+OpgttUm+WlTdLByeuMjswZ+63NHbTjpHghnkiBssFTprsRdGfqkJpQyXekLb1zKaPkBvwQX713M03qiwddePPs6PH55pj3fvp7chMr49hneOOzbgD+Xam/p2jGxdOqa5dpOxFjCCQIgP8JJrl/cuXPnuNtwUVTd8xsumJJpDNILak9/mot0WS+CS+sGDl+2JQ//JKdjwJhG7juCxoktLp3LwXASx+Uoi1SA8DCOJ/icv//t3/7t1d///d9f/d3f/d3C9aCOxaj8l3/5lwu2GBs49ZxaucGIN3p2xwdmM1r80ff81YPxJRceLPHFSgY/5A7iEFBc2CuwYDlIHu8O0NvESe+yYevHgkNvfFBNWmU6sjt74Uv7NshK/BRNvfaVZwpf+7M++ZSnLdk0eaYsO9TJJJv8lJnlbIh/E75L3vTkk9qo/eDUoxx/dsBZ3K5d2FUIHi6IfuInfuLVh3/4h6/TFA98mafsxFuuH9N+uKmbfra0fsiiP+npRgFDx+fC0zHRUsphHCJQCAp/9Vd/tQLAX//1X1/9zd/8zQoWAkVZEJHxz4Dxz1vg+K/D4mhg6S1bcFvlnonItpukdMSrXqKjHO5+MPm93uwJ0hPPbQNGNuWLqXPZd+h74yEYnZTRv0OH0LMHbJI2cbP3wP4MQCaeo567iGfwaivbg3umdLAj3fUzmerxBltk6njl5mP66l+2LJ0bn3mUHhAdb6cY6Vv8B5+5/frRH/3R67pGpygulPbMBtnapfOuW56eZ+ramZl+vPVlCT3BP8eAoRNSzqtT6jrVEaiOcQy8RR9NcPjd3/3dq1e+8pUr/8Ef/MEKHgWHeSowdxD0qK+gZCu31Ws/m9ix8oZgKZlsjgcsTVo48ufSKf7Je53snGj0ZJsLkOot1tX6sCFrouOtnWA2nLRvjNmaqGPRkUumC6HLFvacaEd7s80le+DNvmwB411y2prEQ7n2VWe5toLo+Wziplx480+2OO1yOy0gb351UVm9RJZ/2LDw+r/V0xUNP148BZ453+02vIPiga8P/MAPXNc2PuqjPmo9NSposEkbcvaucTmMObw53nrJLjyTL7ufRHjfgMHoOqo8o6hgIRg43bCb+MM//MOr3/7t3776nd/5natXvepVV3/yJ3+ydhVOTzhHomv7WdAkm45FN1h4ynAkl/ymY+pZujCcSJOWzJ7tiNfenjjqR74DbuqGMtj8gg/t2If6MnQp7vVF3uudfLO8NfIMe9GP+W4jqb3XpoNvp76j3GGMCC5bDrz5Jpn4m+Rz4d1t+untd4shXnAuwuhTLlwytUeuQNFj3s1Hi1DAcDeqg1jXnuDNQcGkgKJ/9Cef743df2+6/nPL2hWQtCuh0WlX4QLoC1/4wisBQ/DwHIdbsumkt37SQ//STf9hXsDjkZX/N6QVMOoMg3VYgpPrrLKEHo9rE6997WtXgPjFX/zFq9/6rd9aQeMv/uIv1qmJweFgyQCTa0BWlN3wU39t4q895QLGPP+fPMlNGXSJ/nL1RTjQVtlgjv7u+eIHa6tytNrIhuCeHh8oBZtEcHtZuNKRxt6QA6ZvaR+TkFx52hD/bD/6UHv0YePfQjPZHXktop5VgEO32IKVZz0+c8MRGpz0Fiu+cnS86WSnHYG5Zl4py4KHU2Tz8Y/+6I/WAeyP//iP1wFOEMFL77G/m4/a3fLf6x36kf41Zzcebdtp9Narp0Q/7dM+bT0tGs5FUXx083uy/BeO3toG/zekY8DQIYkDpTm5FuLwo2Mml8ExEE4/fumXfunqJ37iJ1bAsNMwUOQl/AaZ8zjLQGorB6LXVvDQ1DMA3jJibSRXfQrGD0rBe8qbrbcJGEvR9lN7C246WsCzjXinHZWnDXPB3qM3BQNGH6h7+rWnZw9ofFt0oNxiRC8gwFWeMJkWq7rFYQGB6YfHs88Tr4xfoBEwwD09HjakOxhNf5tXyuZWAcNBzQV1AcMO+DWvec0KHK6z2Rmbq+ZyY5Lv8oW2toFeOuccWfhtALR1586dqxe/+MXrFMXOw7UOz20IomyU2COR0xf6tTXbg3vS0zFgmLCSzkjV68SEtnci9+/93u9d/fzP//yV3cUv//Ivr0FB40T8dDWoygUa9BYIvplz4ISVl2Fnfq7jyfa96BFv4PbEUT/ybbhTZW2v6xUHmcmzaBt94mZ5NHOcPBN3qlxf6ZH5Vlbm1/LkQxe0LUzvT5jMXum2yNXdCeg83CLHa+zAgkPl6PGQ64iaLS1qsIxWGaweDKdev0AJPJfR9bV+m1/tIOAEBKcpAoTT5Fe/+tVXv/Ebv7F2xuawa2+1p8/K5PIfeyaefgEgHr70urw3Xj0d6lTFrsO1Dj4mS4a+2Td20yGFX5Un+OcYMHIOZ0k5Yz9I+ERtjv+1X/u1qx/90R9dweL3f//314BMPTkaTOd0NF5ZGybLahtucd+dBEvfgS/8gfxIQf3M/s2wox0aWradgfUDn766G7ImwKHf8OQXbsBTuMlTOdvih29xgSakRQw/U3LwsgU+A8Q+YKClq2BQkAh/Dmo/m7LzppDN+Z3Mg6TGwLyVzTO4bNJ/BzNBw05DwHAKLdt92BmjS8m3BujgB7bBzYBRH/H4SI9nNQQL1zUEEC+xeZ1eUOUjad9H9fJieIJ/VsBg3xww5ZxVR+okmu2cC5s/+7M/e/V93/d9y/mcLZKX0qd+nAJjsdBfxntsZwkcJe7atdHxnAoY2VW794PTrnjpMODgakdbm33a2/Ofai+cSWlB7TPdcovNxKkc7x6nHu6UvAloEtvGg9XTC1eZfEFj2oEOn/5o8U6ojzOjqQcnbV/mZ7hz8OjzwzxYjNtPvg8mn/7q5lEBQp/Qm7/JhsPnQv2f//mfr+tvrmkIGnbKTle6ozcPbPmhPtRueHVBRNt2az7Q47TE4+UeLRdAfH/D9Q2JTeyTpv8W4gn/OQYMdupIDg7mJLCOisiCxU/91E9d/ciP/Mhy9J4v3vTQzzkm5dSV45LHN1O89ExdeM7JHGlkprKtTAc5ucGyMFtg0Sb9FC5ZsH6ZMPJcyHS3EAsCoIUOxk9GnrjKePY6yBcs9u2ln5xytupHqTLIJ41D4xPfHp4aA7jwU+9e9lx9yk+edAbR6C9XZ7sFLumz/krk0JInh2ZxuyDfHT539Mxnuw47ZcHELtppjLTvEx2NiXLt06tsPJziCRIe8vqQD/mQld1J6eJwfSBfWVvZqizV9t3avfQ9LZ7HCe8JGDqr09KpiYNmYNw6/e7v/u6rn/mZn1nR2UUlHa2zlYN1YDoGLjqnaU/SRnrwo+3x6qd0LcZJM2GGXdHpnIvR1txAdh7eYgRNjCZHi1advAwHzsW7X8BTHn8y6Y5fPV/Ep15fK8cD7nM+m3j9hj+V4PP3dXynZCcuHefambynysmfop3CzXbIJg+/p015NLzmmR2x7DTFTkPAMKd/9Vd/dQUODxpOXenh28bKminRq07G+JlXXmRzaiJweJnN26+ud9gR0kEGf+2Qn7hJgy9PvPaTz5bHBZ8RMK6L1Gii7ite8Yqrb//2b7962ctetrZ1IvV8SKlOMVr5fskAcLBO4wfVORREzyGV1ZMLxgtWrm38ZXot0rLB6yKgha8ueBQE0geSTX4GjAJIOqvXh+wNTp3K6cpGfaqv9eECH48HBA13S16znZL83M/93LomJ2i41iFoON1uHjcmoNQBNjzcnP/GVtBwWuJiqMAhgMD1rQ1zxLhPOXWp+RC9gNI6qd34l9Bj/HlGwMgBOpoRjIQXLDj2F37hF66+7du+7erlL3/5usL8LxtuY75rpii4lXJw8Lo+5BRttkjngrUILWKLqgXIUcpweOdV/vjBKUM/GXku7HB4w4P45SZHdqpPGnxHlnShwzeg+/5PmnJ+mvhzsntdl/rDeaDdhneaXPz0tLJrGh4XcHD0rJHxNR7miOTg2eJVb9zQG8/WjbnroS7XNfpAj53GU089tR4Ac7Bq3WlDlsyJ5kW4dOLXjvbQlJ+NdE/AYFxOyIhwDBRpRVxR+Fu/9VsX/MftXO/ftwjN4BxVZye8rjM6bfvmXr4LRpwr+goCHfELGNmVswQLmXw8ZMp051SL2UIG4ao3GGCBIDgHosGrr0H4dmZ0TBtnv/GlAz7dcPwLpvOcjqnvUn40Hsj/5r7sFPs3f/M3r37lV35lHRRd4/izP/uzdbBcY7aN01q4hwOp3bXkQa/mmnp6t8Kimc+ez7hz587acdh1CBwCiYulDlJSc6D5UZ2+dGofvjkc71LwGH/uCRjaYVApA4N2F5zpPO9bvuVb1vMX/7YFEU/HzU5NPVNfeickJ1D0iTS3pVws8pUjQaMdB8dIFlYZTrDI0RYZXHke5clmY4sxiCZF38O71Kd9g15Szj9w0YLxBU/5A84EKJHd2xZtD9N3rr09/6X+TA/kf0Hf8xuy3bQHE+027DR+8id/cr3uYBciQLzxtmuQXDz9z+2AudJh3IzdzPQ77TFG7TbcbnVq4jTFLVjPbzhQ0mcumLuCj7lNVweUxjv9dJbvGvF4f58RMGqOYTPDc5ZI6+7IS17ykuVIncO3ltBmfB3aw/ROmIyo60MlLgp5C5Aj55NyHe3p5HgDy4GcJmCAcOh41acTs6W2Z1158sYzIfr9Ej1T7+RPPog2eadsPGDlqWtfTs9NePeyl/pdD/CheWwOmV+SA5Wg4RECu40f//EfX88duUPoImm8K2BscubcTOqygxf9PUimTLeDoYOiuW7ef8zHfMw6aOIXJOyYO1gaW/O9tUZv81ybjX1w2vGoy9cGDI01IZVd3PzTP/3T9Rj4N33TN63zO0ZaTvu7EckFyc9U58i+5507Vy960YvWq8Mi7bz9xEl4OSkZOmV1jpNqJ56FPPzEH1/1IBkDNWWnPvhJm7rT2YBWB5MDs/+UntoiUzrFFw3cy9yPf8peyvd6gC87gk+KuWehCxAChbuDrmn8+q//+nolQjAhx/d2AyCZMl1r3DfYdT38cPgFBc9m2FGb93YadtieELXbcDCU2Efnfszp2c/bJfAAPzedP8eAkTEElavXNnxPeL70pS+9EjCc42XwXDCb8PH5h70e+tbxetO3yhvksBkwPI/PkSJseulhQ5F1b6f6TLPdfVl9ZrL1g45oymhl9VMJ/5wk6qUCRXBvZ3zJnKPHF4wfvJ99yVzgaQ/wofGbybyTjJuy63cOlp5u9hqE1yE8Vi6YOC33YqSULjKNETw9JXgZzrwTHMx5D3rZYYPWhCdHrQFzfupKPr3GH89N5052THhT2RUwGJDD6lgOo5QyeAFDpBUwnJJwXtcPbOXuiYKcMi06lDNsBg2nHx5u6ZTEH8twmG0b22z/bA+VObDFHQ2cDlOfSZtl+ElXnrTo8JNvz5P+eNBL4aonO3miPSg81caD6rrIPb3QC/z517w3buqChneoPNzlYClwuL7huy+ChlfizUMJ/14XWnN30uw27CZ8+u+p7c6Ji6FuvwocAom7KPtEf4GMfa6N0P2g6aZz8xgwChB1uAhJkcxxnFXA+OZv/uZjwEC3dfMdgZZqDt93IMOC6C562oblLFszGc7VY20XMDi34JDT6Ji42bZ2ZDpmigeMB5x45ehk0fcpejrQk4s3uWA80cFJm/hzZW3MdFv5Kft/vcyX5nuLOH/w6T6bR3YVXmDzrIZnkVzjsPtwB5EOumamz/yUW9TRmyugoOG9kzt37jzjJTYHT6cwdLABvwOpICY96wFDR6UWlg4xisPgQAHDwyx2GO6S2GFYwBLjyWxCx6CxCLsfeqQJObGrx56Cc6vJRSA7jvd6r/dapyd0s5FNydNRXsjDz+SJNzqanC5lOvSjvuNNR3L3g/Un2fyZ3N7O7Iiej6tf4LPngXawxsxcbFEas+YKmjq6uegGgCDhLoprGp5N6s3X3kex6yZPxs7YGNNDXpsSmgRHv3koMDhN6dqGdSC7todGhh659DDzZz8303kKHncYLRDCEmPgUgYWMHz7wg5DhJ0BI5lTDYVL/yno9MaOws6Cg5ym2JpxnG1Zpz/p4iTOo4ut+z7EV1vxgNmqjE4PfadS8qdop3Czneh0TD3xRH+YAU/HBT6YB2bAMJ/nXGiuWNCSYGIczR93SLwab7fhmoadhtMTb3J7/EBQIUfGAdEY/8e2E+/g6rkNePrs0OGbj3gFDQdMu+2P+IiPWB8edkDt7deub5Dfz6fbeIK8fJN08qInwQxIEWjLNU9JBAzOkDiGE++Xpj686pzTEZ4OgcEWzC0nOw23XF09dhuqrRc+suTA2laWZ6quT6XKexhvEP8sJx/c09KHrjzpszz58E6a+iU9ex4wFgWExqHxMTcldXOsxT75BQZPg9phWBPeSRE84JwyeG5jHVi3eUl+nbpv+t7gsJvQ5rw9mw1kzHcXPz23YQ1YC3bgAonAUQBjXzbf1nPaq837yZ4MGOca7hqGHcZLtoueLvzkUM48JzeNyLBlJMJmrE63UzAQZU99erCFkwQOF0M9FeeJubuiT18dru3sqZ3wS+DEDz48cwKkO/a9rup7vlNtTd70XeCT5wFjV2adsrFrPqmbIzNgoLXrtUPwjJJbr05RXAztCVGnKGTp6MCmDXPeLkFyjQ6PNuV48WvDnHdKYi2U79y5sw6s3X5dih7gpzZvInrtKQkFGa/cXZJOSdyTRpd08CYp/oxc0gcdOZAuEdeAuCDaTsMHVzlLtOVE9JysLEvTZrrK075j+zv7s2/Pqz77uOebNLx7Opy057uLPc8f/QIfnweMiYU5D3oOYs0n+BY8nLGdMiyDFzSsEdf5XN9zQHWq4q6KoIHe6c7UQdc+0xmObrsNp+V22d5HcarulN0B1V3GdhrkbpvYcm6+7nXdOGAw3g7Da8Aek3UNQ8C4bcqwPaSfM23BpLVFOzx193bbm33O41zXEDAEEG/7eVZDdOVMTm0w6c7ZQTqVpdl2MnvaYjzxc46vdqbuE+JHG/a05Pb46+rZcornQfSlZ6/3YXSd0vko9KX3tnD2rTIoFzDMiQJGeDsLqQUPL4j0ZKgDGBl4d1Fes7356rTExVC7Dtc1+qpXuvAqg/mEDTOhSaC2zXdBwy1Xt1+tCevBtQ0H19YCfelMHx3pb95HA/f8k1b5GackESasoX3AEEHr0OS/SXkap1wHlGuvl3reaNu2ia7O5ThGhBU4BBFlgSNHzAGlJ/tmexNfZI5vb/uU29NmPZ3xByfPoyzXXrD2zsH7tT37P8vk0rkv308nerqC6Zg6b6Pnfrzn9NY+uM9kppxy81F7+Jtf1cMJGnhbqOhOL1zX8CEeF0Gdmgge/f2GJ0Tp0475KqnXRu3Dz3bUzVd3Slzjc8ru2Q1PifbVcqcuDrpskmeaAY69dEna2Kfpj0l7RsCIMSXqyhqbAcNtVTuM+KbS25Z1LOO1Q6d2u3SpO3Ccy1l3tnM3/0DVtqznNeZVY84nky76tROuwYGvj6fs3vvjFM8pXHKTpu3bplN66Kgfwfj28Lr29vYkew5PVzzX6Y029cxyOoKTliwYXfkcD9pMU2bikwf3mYy5kSxYOR1Tfs4teLzm5pTB44KnGwVOUVwM9aCXN72dothB47EzIWenoa4sL3u2xs0Y+Ojae/3NVhdMzXfBwW5DwPCUqOscdt/WSaft2ZUe9QLc7Je+xhuEm+mJCRg5vIDByBkwcqYF3sdWXTWW+zgJR0l4e/JUncx0HiflKI455xyy8U2ZcOgS+Tnh4PY84cIH4aXsmPhw0Rfj+Jm8A72KZKODsxxvuOzXByl8fOj7tOfZ029Tpyt9sy3lWT+nM1n0+/FP3lmecrO8bzOZYHQyUw69I7pbrJ7XcID14qZviLpAKmjMeW/elgoYm9LlG7rQ6fWR6dffApRFb167/WrnLXA4kPbKvF1IO4k5P2f5VD/YMPuSTQu/Gb0OewnGOOvKDH6cO4zpuNk2e9Q5K4d6VsNWzB0TuwsXfj7hEz7h6qntsdoebKmT5DmoHcZ01nLARpdqc+ImHj2eIHpprzf8hNfpYGd9TSZc9QmzAYwP3KfanPzxhCN3yv5T+vay1R8UZkNwtlkZjB7U3iyrxx8t+jkYH9hixLvPp2hkSvjxWCNzYUfvZoFA4aNTTk089OW0pR3ubCM5/TEuUjbhk+DJWjeg7GaAXYZTFKfq7TaslwJH7aVv+oze6kG4mZ6MHcbmGB3ZrF0O15mclcPmQHCS7RhHuH7hos/HfuzHrsBx586dddUYTfSVOLmLU2TluUByXo7R9t5heM6l5LMb39SRrut0nNMdvjbUKzfJmjz5Ck9txg/u07SniZhc9lffyz6Kev2g637t4K2/yU37Z9/jxb+X2dfjNT9a8KBTgFN5r5Pt+N0Bce3CrkG5dvQLzrc1nJoIFi6AOlXB3zzEt+8XHPq+b+f67fTEsxneP3EQ7cFHgcNakNc622ye64H+dDYOQf2b6YkIGDmGYdPROlIHw0+nogkcbit1WsJJPa/hqjEeMhwEzoBRezkkJ4GVo+VQ9VmedfjkTulI14NAumu3cj7JT3NinWsjHXu7w2f3hHtd8aYj3smXjXtcMujsnzm9wXgnT+Xk8cC12MOHC0ZPPohfYLB4wYKFRV82d5QLIHjIldXjKWDAaYNvyNpNuEviVMRO3fUN+vJdY0eGXgkNvgxXm5NvQ94j89Zb0PBgl7Xw8R//8etURSBxcHUgpU9/JevHmkivNqXgqoyfJyZgZGCGszFHoUWfAx2PyOouylPbKYn/gWhbZovmFMV2LHk609dA04MHTYpXucHLrgmjZ2fy8KX41dMV7X4wO6c9yaQLjC9acPLAqZ/K5OsDvvQF4Urn5AVm/BKeOU7qezzft0AtKAuooJ482MIDy3Qrx2fye86BjtptcZ+C6cRLB54WevwFC5B+kH3TBrIzZW886rJ26E1neuCl/K+cDBh+jg2e+hgvry/fH/xvJ2HeO13vOxuubzy1rQ84t2b1V+qxhKOug47GcjGNnyciYLBnGsj4cDkteh1rsBfjQd7FUBd8bMdkpyocBN8pSvJgA0v3gwSM7DSgFswMGNFqj53hsvkcjI9d9Tt4Sib+c7RsAOdky4d0d5oWL117Xv4y8fMbGE+Q/J6eTjzRLBq5heQIbEHhyU68U1/ytRWvBU0ejKeFn73B2k+WfrSO+NGzLwifziXLzs1H5Plvjf8Gtwrk+qDUbIM/8ZkjILlytImHk+JHKy25rf0+WnVKL14HUacnAkXrwq7Dcxxk2GyHAZZqJxg++EQGjIybcN8BTpNANI7tuoYAYXfBSR4pBznOKQp+g28iSBZKDquNIHrl2d4sx9PARoN/kES+TP6cvvCTF3/2BtNh8p7LePMBnhZGR0QLUbaoZOVofOlo5cIeSHa/yPDQC8rxgOr0+V4sndNefSNXH/f1eIPxzbbo38upJxOMLx3J1H4w+qb0nrey+dDdCx/SUba8Lej0asccKTCr08kH4JLZ5G6cDu2zZ7W96ZaO9m1lB0E7Daci7iDabXzqp37qgoKGg6hU28Fwi7j7eeICxnLZwXGz89mtU/tUR6MJHKKrt1ydonCULZm7Kj0NR0cD2GJJD1q6gnASm0qzPHHhz8HJq4yvCTmhyaZejm/y7HHpg5fTMRdpC7rJik8/0wUvW8AFC+V9wKAHH3wBY+pGq302VwajKZOhH44N+z6cqi+mw0/jWB/qB1iOfz+e4Wu3+oTnZJ4xEzcf4i3TqX/pzk6BRToGlM03zSo8pWl7Os7acmg3Wf6W8L/RFjjedAscHkHwL/Nuvbrm505jB8xsTn8wfcEnJmCszq2fuw7PwOm0cHWmTsLj42znb5yA5vzMxR5XiTnIk6Gy3YeAgs9kleYV5Km3thbT7qdBBFsM2dsi3y/u6FQlT7YFo2zhyC0kMBwYD1g5Hu3FA9fOwNHfwnYkb+FrE096sjUb1dHCTz648JXB2g43+5nePVy82tn8OFP+Cbevh5/jFS7eYON4CuJhQ7zpANO9l1u0ybiVWZ8e/PRNnUddyW085uxqf+s/efXaWvgTdkUPUoeXrF2F1LjicUB0EPWshlN1r8oLGm69Wh/WSSmdwfDBJypgMCpDgxwhz4Q2MxoejrHw0Uxcgyf1XQFBwyPlriDbotmSkRM4zp3L1f6ETYpwLdraRJ84+BbSXIDpgbOwW/R4CyAtarQmwV7X5K/tdBUwChIFjtme9mX92ac9bl/Hvx4kch68+V379Wvqajz3MJ58Wf028JRNU362WRl9ltlcSt/c7cYbXPIJHKCAN/uO1yIu1cej/o3e7pb/pZsGjGkHOTrJmv+SOdFr9MZFO05NXNNzU8CTod5D6ev8S2j7SW8wfPCJCxgMy9i2fHMacwx6OQdPaNBaVPSJoJzFOXYbnCbautYhmDjPa4cxB5Ue2WCmb1+urRZgdAsWTrboZ6YrfekvMKTvFA9a9lXWP+Xq0YPsQaMPrB7EJ5lQfFp9wnPlJbj9GKc1Zgf5+I/0w3jNMVr8Bzn87Jlys0zPvp7uaHt6+tErB6dsZbaVjro2u3hH/YiLaYPNz1DxVufTLqaT53/zApTYk03pDwcmEy2ZCZXRZX3QZn7ekHfH+0A3z813r1R8yZd8ydppdEOg8c+eIP0zPTEBIwNzTvUgo3MM3D5zUo6aA0OGMwSEHMZpHGU7Jnthxy6DfG2ALTCTWW6RV0aX4Vvw8ZoYBY1o6spTz9RROR3Vp033DF6VzR/3S3SUpk/zYxMmvglnmY7q6Zu4e3THsBuvxgkZP336PPXOcmrOQbzldAaXZ075h8xBYT7I9tqeMP3xpP+g4mh7/cHPp/uAUeBOLoh/bweaOZAdRzrCoU/o0pT3rom28Sy/HnR4nNzB0w7jK7/yK9fDjq5jmP+Nf/0LLuXj54kIGDmiju8dNOw9TozZoco6vRy1CXBUC448fKceBrHsVAQ+G2q7NtXLDV4w3uqnIFwZfzzprB0w+ime2qqv+I9hYpsY99ifzQedeEvxTYiWPbUT/6zPtqPDJQs39WZfC3PPlw5w0ia+cm3v4ZTN1qMNiIeFlZ4F+eeASGbST+GiH3UffB4+GXRl808SHE+l+BprPOme/HRN3Wthbwzsh0+ebElp1Q82zjoepyJf9VVfdfWJn/iJx7uHR9mDnqkvGvhEB4xl4KHTGT0dGC4+g7McusksRx4Wa5ODExrA6EvHwUnp08Y5h8UDzoGMP1ww/ujVJ3yGXWOSTD7lqWdfVq9dsPLUgWef8XWEPyUz212ydxF3A9ahzdrb68YabUL4mciVTtmQ3njiB5deR9EDcfLGlxy413+dXcmlc0K0pf/ga+2r02d+yTNN2fhm23DNT3LRlOHRpSB64xYOHV5KHxgdv7uGX/M1X3P1yZ/8yVd37tz9aldtxRdcisbPExEw6hxYZ4eNx85eR88ps6M54ZSu1c7BsVsDx4FagWTDTzvSOSN1ukH0djYTH037Rx0brxTfqux+0G6S0nmK9zoafvTJ08Q7pSv+4JK9W1lBg7XJT52zXJ+CxEtL38EvcJNnlqe+ZI/QmB0qp/gmbpaTb9yr72EyYGU8q3yYL9qPVrCY9h/5Bx9+PLLyPOBlk2BhR4zutBZvgYXf8dWuNqT0wcvqJQ9vffVXf/UKGPP/f5LBt9eX7BMTMDLoQWBOeUYnDcQNFTYADVIOTuceopfROgKEC0455erRwVK06ns4ea+jzXbu4autzY7SbPOU/j0u/gnxlOl9WvvdVvRwr+cu5e7v3t7JO8u4a/c6+Unby0+aMn14TvFN3Gz32L/hx8m7b2NPW/KHuZBe824Ghq51kA1Pr2tgcE6jpfjSs2D9ObSBLxvQ3SksYHig0Wvw6PI9egju0nMqYOz6drfKEScJ55HTuRxYJhGtwJKWHF09PvXkg3DoZfgCDtq5FD/61D/xye7tWfitzZW29mbSdkc2+HSn15fPVnkKjXL9qs20FyiOemp/yFZMVr32o4HRT0G4rkPhTf7Ybvbn88GDX0rv3drd3/SozXL924SO7JMe8pTOI01hk8eTncbBNTU4Owm7h6mjNuCMl/olYOTRW0JOfHr47grfNlCcanLp3XTP1ACDDWiDOflmOT3xb6O9Alk6HiZg1E5Wzn5Pu2aZTLbcN2AcFlrt7GF6jvDAcCpgHHkar51viU47ZxltyleHu1HAOOje66TnVJp8s7zn1X52xQeGD+ZntioHlWWnHQKGcqca2nJr3pO0nqVxoJLwaCO+2l+w8TphF/r/+R3G8uD204KpPhdOuFOwAd3TGvw9ftYbKLz344+XndlG5ojfBvO6dE4/+TX5DvKnFmr2pYNMuTajVZ9w8u7LJnGZTL2oj3s9LZDevYhe+9PWVW6HEOMOTnt2pGeMyeStrA0Lr/bTsa/Dk9mn+gNPZu4+8dsNCAZu7butKXtoUHCQvW0tVy+Q0GUH4bV4X+zyjdCe96ktPHJ2LXjAbcgjHo+EfgkYyxUP/sOJOXxqaTAmrnL8S3ZDzsXR4MR7Cu550neK9344sjcNGOlqsdbuqQUT7+rj8FF1dGUL5Dr59MTfAsuG6Pkkv1ePnnztg9JR33bULcWDphyPxVs5PJnaPCeXzNQXL51zkWd3+tEFiwKG54HkAkQBA11goUuWBAzf0PBfJ/5hzYd4fJW8F/20IU37t8qqbx0/zutp0yVgLJc93E+On1py8sTNchNmTQwDtxs8vFPHufLUc8qO2WbldAXhO/bdL3hpw8M9/qqv9vYLfuo1AaWpdyFO/KQvSM/M4cFl78FnU1Vt47FALbi5KFucLWJ1iy48OeVklFuIYPrA9IdXx1+Gt5AtbnDqUq6NaNmc3tqavOGyvzpZCYQD+cJXxl/5yleuL48LHP5hzVe7vBfEPsnFUGO4dFwCxvLJs/pzHDytbgPX5G4yB++S771oiRY9iO9cWVsz471NSm8w2epB+NppsoLocxuNL5kg3LlkcltQTfKpW7lU2xOi4bGg4kVPRwu0hQvK8eNT1z6ozo4WaPwTRsMXfwu+Oh4Zfub0TB3K8CD5dKQ/nH6V+HX6Fo+6HQWYLH7XL/ztov838dVxXx/3R0kCiXalS8BYbnh8P3PwTrXSpG7bDAocDXTn7HPQ0zlxU/cpfDKT737lbJuQjHptgHKBIHx8wdqPH/5UWm1thMW/tZMc6Oju1pxttkUjW2QtrhZTCyrYQsJLFl+LDY/6XKwd5dPdokoPyB74Mj1lOOVo+CUy6Zj1iY9eG2iyNGnJRw8uxu2nMbEbaGzI66tk4cOnk7y6axf+19g/qf3Mz/zM1Y/92I+tvyvIhsZv1Q9jvxl4tLHxR7+ckixX3/yn3UISOR1+brvhbxow8KYnvWADtYdoezvgpPSkE2yiNpH20CKASz4dC7H9TP70wVWe8lMHejz44wuHt5f7Chgt6Bb7DBjJB+nEdypgWNxTl/rUpV4f8m92wc882wuPt2RRnkrxBE/xwE06W8po2VY5WgGDrL5I3SZVhmcr22X/FO/L4y996UuvvvM7v3P96XO6a3/BS8DgvodLOTQtc7E2MHBeUTYITaD4gg3QhAa1yZv+YLomjAamN/vA7JmThX7ZgimrN5ksrGyId8IWbwuwhUfekduih9u3XRtTV23Gi2aXQR4t3uwH6xe4T8lMvspgeeqIfkpfuMm/xy3fH2wx1vuFGp3cbCud0fd9aZzpnLuI+OtLOuHxNt/g6bDTkPIpH7lm4T9O/Lfx13/916+/YSSHf/ZvQyzchjzi8Uj4LjuM5YrzPy3KOI7OfRqxJoUqx84cy4RNmqAF0oKFM+gGeD85qkcLpjt9k49uk0aei772Jr3J1YJVr1ygSEc0NggYHeGzvz6QxzOhcjZOm5OtX3iiN2HzrT6HU8Y34ao8Sz8W3W0DRvZOE+tPAeBUwMg3YDrwe1BLMi6SgEGfen7E49ul/tv4a7/2a69e9rKXHe9OpWvBS8BYPnygn6MjSe8mZcc6sbfBBsmUicFFhzeALSADbxE6wnbhzSCry47cHcGV5WgtYvpK6YejWzv0yXOxK2dDtCYhWbk+TBhtwtqBkya/+tQ1y/hKJr009aYnHjA/TtzrujzHd29LfQyiz3L8+35NndHO+QNdcJGMJb78WVvqgojbqQWMn/3Zn70EjAbgUcB2FudgbVjQPtk3z8HhLEqLqYUUfwvMgm1Bx9/iVS9gFChAbUQ7FTC0MRedtmqP7torWJhQ0feLuYl6bvJqa07iJif8TOfw8dBvQoN4swM92WxJJnz1PT38hHuZSXvQcu0+rO5TesKdsw19n9nR+CtH518XPgWMn/7pn776uq/7uquXbwFjPUJ+CNbaWf046N0qz/A/+uWU5MSILMdx4F0vnoXIPiLiGwG+xiVw+DqXj+z4YHAL3CCW6G4hg2hBtAZ88pwq48OfrVO/cvh0noJ7PjzJpQ88N3lP8U455fvxpBuMNzhpldHK9MOX1aXk79bu/t4UN2XuV86m+E61Ee06uNeDd/ZJOd1g5XSi22XYRaA5qJgf6YBD8/8r7pJ84zd+45UdhgDyH4fTFzvlpffgz61ybIceCf0SMJYr7v4shx0cM9BHx4XDJxi87du+7fqa8sd93Met/zERMNwiLGD0fyYt7gaefIGhNtP9bMMmlXazJbi3ZU6cPe1x1GtvbyP7sjFavOyINm26KW7K3K8824z3VDvRzsG9nuoTphcsT32uo9hFSAKGg0ynJuZaAcO1i5e85CUrYAggZGqnNq6rnwsY05b0TJzyc+Jt1TrVIAQ5LYcv3MYIdzfWXq0dhT9x9gVl3zn0NfG2/F0jaOu/nLUNNPn0h6v9h4F0PkzaT5CH0fU4ZLMv3fv+7unxTbiXmbSHKdd28CbtTB5yyWbHpIe7DuI3VwUNybwLpy5gOP0QIASMb/iGb1iwP4DSPn58UjZlR/apnwoYS+gGP8+5gMFh00kzYORIPK4H+Ir4F37hF65PlfnPBruNfUrX/fANyJ7vJnVtnGvnJvIXnof3wG3Hb45XizMrJm2W0fftqOORlbv4aXchNX8LGAKEUxIBAyxg4KXjHrmD7nlRH88lYPDWlvYOmwOJFo/tnlOPvp5sh+FPjnwMdZ+SC7+vh99PhPA3gXSe03sT+QvP694Dc/xvMpbxg42/8iVgPItj6anMIizHewirwWtgRGqBwd8M+BtFn1v3FWUBRCDZp+TD7+vhmwDVbwObMLeRufD+7/bAfr6YA5eA8SyP6T5gHK8ab3Y0QAKGvxhwCuL6hVMSpyYCDVppHxj29fiC6a9+G3gJGLfx1v8u3v28uG4eXQLGszy2BmPuMDS/rwsKdhd2Fb6a/Dmf8znrL+MM1hzc/cDu66e6NuVP0c/h6L6J/nPyF/zr3gM3HfvrxpmOyynJsziWBmMGCHUXNyVXmH2bEu5dt38++9iP/dgVMD790z/96qmnnronWEyTzw3wHn/TCTN1z/Je36Rdyvf3wLPt/3171YPT4sYWrDzplcleAkbeeBagwZgBw27C7VHJPeyuOHtA65M+6ZNWwHjRi160/uX9nHnnBniPPzVRzuk8hd/rO8VzwZ33wLPh/3NthA/urWxswcp7HnXyl4BxyjOPCWcwzgWM9Qjt4Xl9n1YvYPj3J//NILjMwZzlae45/LnJMmWvK5/Te53Mhfa0Bx7W/09rOl960Dbm2M7yvqVLwNh75DHWDYTchUuRWr1TEnXZoAgQrl8IGi58qgs0czBneZp9Dv+gkynd5/RGv8DrPfCw/j+nfa93X0/O+N1kDK/jofuyw8ijjxEahHYIytPx6uHg5Rkw+n9JAaNgc8pUOi7pyfVAY/ugFu7Hl77SLMPt62Sbf8ncFKarOXoJGDf13EPw7QfMILhe0WBQPSfEPCWxyzh1SrI3Z8rvaZf6694DxnqO920tOjW+6QvSWTkIR3bmcOD9UnrIK18Cxv089gjojv1rwA8Dx/Hl1Deg6i562lk4Lemi55KPecBz+MFyKT4BHtiP921NmvODLH3XwUUcfNXT0271fvOndvApXwJGnnzMcA5MJw89Q98gxvNu223Vj//4j18B48UvfvHVg9xWfczduai/pQceJmA0P2aTLWS4ynsYv92shY5Ol2DRNbH7BY50klO+BIy8+ixCT3waKAGjW6nqBkXyVqrHwu0wPu3TPu3qvd7rvY6TYjFsP/FWv8An2wMWW4vvtpYa6+vGe+ret6Hea+nK9AgWZfOuuXddG2wmfwkYtx29R8DfoFHVADRoBsUOw4Nbrl8IGHYY+3S/wd3zV6dfIq886+GiL8Zb/KQrkQe1MflT8FQbcKcCL/k9P9xt7aIjPcnO+vQb/TOxqyO8sZanbLzhJj+cnHy08NEEhG7L44GXQO2h+99Tdc/9+ADTO73TO60PMLlL126DTH1Jh/rsc/OVjKQ9yfxlw+Vt1eWOR/uzH4S9dhc95zWMO3fu7FmOg/gMwjUIk2BOBOX99w3mhGiiXKPySJq6Q14nfx0teXBv774dE9WkNVmlFoAy3ia0em0GJ055ptqFU55+gtv7aS5U+uXsYpts0VpQdLG7nH46ZR+cwUsGTd0XudfXqzYcebrx4qHz7/7u75ZMtHTWNl6L3IuN7//+778ORO/zPu+zXmj0bYv8xKZk9RMNToKnR7oEjOWGZ+9nTlqtGoxSt1Wdksjqe/59Pdnr4H7A58RoAjQhmijZdb/28MWbDdfJXEdLHkxn+tmnbBKnQ70FXcDYy8V7Ds42Z7vKLU5lfqG7xbz3Ex62WOQWuMX893//9+sPi/3nqIXtqV7+PhUwCjIFB/UZMMhqO5uUBZMCRv6ZduQb32x9m7d5m/VBpi/7si9b352A0wf6+OYSMLbBfRJTEzfbmuDqjytgmBRNHpOEDdqt7SYhvIUHwkkdZVZl/Mx+pCfypIV7EJhdbLdA6PUBYxBOu/UHbvapQJht2bSHe7viD1+dHHssYpBftDEDh78O/NM//dP1b+b+LvAP/uAP1h/8/PEf//Fa2GTpKWevOj3q+tXi3/e/oI4PLb+op7OFX3Ch1ycSvNjo+ypf8AVfcPUhH/Ihx/970U+yjTNd4eAluNrOr9qXyGnrckqy3PHofxqENDdA6o8zYBhUqQnODm3LBr8JgC41QUyIyZu9yeKtfArSew4fLTj56LUgLDJHV1Aw811T3zMVOJyX7z9KS4dkYk+78/seLubxk3yoqYNP2MReeG2wCd7RXmDw36Kvec1r1r+ZCxivetWrVhCxoAp66a4tf0CtL8/bIF1ytGXvYcHO76jQMftinNgjk9UWaDx9B/ap7XqYgPF5n/d5Vy984QtXwOh9JnrKe9vg6WGTRL/EB9IlYCw3PL6fBrkWmhjqjzNgmOjaMsDlJsO0Ac5kmAGGbXBN5iY0CF+edGU6LHZtT5o6mqxcjoc+NgkSvhXZebxttC+Q8dMLXvCCq7d/+7dfC61FwvZz/g2/h/o20/QFPH72sBVNW1MHXzr1+MM//MOrX/mVX1l/F+hvA50q2HEIFAU98hZwOtXppkPgkbRT/9VXWxvfsuvQv9pvHPFJ8DJevqRH8p0V31bxQenP/uzPXtcy+FKbS+9BFm/yezx90iVgLDc8ez8Ndi02MOqPK2A0gWZbTS6TDt7ksnA7mlukytFazC10dfzh56LHA2+hOCenJ/340hFMNn0tGHIWHB10FTAcIV0cFjTsNEx8/WkBzf7C1Vc+zv9BuJmmj+Dx6QtbJEflAlS++bM/+7OrV7ziFevjtz/yIz+ydhX/tl28/M/DIiNHB1vY6vb68tvmc33VxtzZhSM37cFHR/h9fRF2P/jdGfGdFc/4fMqnfMrym52ZNukvE6VzpurslS4BY3rnWSg3ADU1J8TjChja0o6JODNbOspYEI7m/iPTn+v+9V//9TpydoRsoeObC52+Fjz8pKsXeGrXxMOfnHq0Jm4+mTz4THKnJM7Bv+iLvmhdvHOrUCCxMExmGW+3E8nA5fc9bByCtV0dP336IvFXi0Y/9Pf3fu/31s7Cx29//ud//uq123UM9jiFqK/0whXc4OmF1wZatinLEj5p4siwZ2/rYjzwsrFTtjvb3Ta7C8/4fORHfuS6fS9Y1EZ+zsbw7Mkmtkr1nYyEly3myeUjwMslj/anAUjrHPTHETCmfm02OQwyW0wqi+sv/uIvrv7kT/7k6vd///evXvva167AYVttIqC3aMiZxE14+tBkuElXtjNAYwfefYaX88uE0fKVSc7e93u/97v63M/93LUA7DJsueFbBNrTLnn4hw0Y+YwdtUG3NvjnN37jN65+4Ad+YP0fR6cjApW+CCj8gt/iOhUw6MUrr4f7tsWuHTJTNh72zPHTP7rR85Gdl4udAqoHAAWKD/qgD1pld0zwy1L9y8Z01R48n0qXgLHc8Oz9GISZDEbpUQcMussNvrZMQhMZzQQWLH7pl35pXbD7zd/8zXXxbt6uM6FMGFlZTi99ylK06NX3vPEH2dYEDsKh7xeMdvwjnNMSD7l96qd+6voOaufk6OS0LeXvc3AxjZ9sGqhVDJ8e+gULOzGnI9/93d+9/rVc0LWrmndz9KEFV8Agnz/pTq/Z8XonAgYj4sEva0NAcBFYoBCklAUK/47nGo+nh80rgfUd3/Ed1/MY7boKDOlbHR3tzPay/xIw8tKzBBuEmjNYpccZMLShbdlkdXR0lDIRfvd3f/fqR3/0R9d2+nd+53fWDsN1AxPdpJLIPGNiHXRuSp8xmZdQ9CobnP0NzaYCxYRzUWUHGcHBrsL/WHz+53/+1Ud8xEes24YWSvrpzF5QXdrDhRw/yUMpsyH7pk54AcPtUxc7v+/7vm8Fjj//8z9f11wsLDydorXg2qGgyeGzK1vnwpw24UOjx//VPLXd/eALwWMGC6du8G6nCrDK/Calg0+Vaxuttva47Jx24afDPOKLyykJjzziNAeC6gZI+VEHjPRrw4Bru4lskLtm4Qhpwv/yL//y2m3A45+2pQssWYJ0uh1Yv5IBaw9Un5mO6spLz8Z3LN8tHG1In4WiD/KdO3euPmW7iNe/xFkcFqFUgKmN7NvDxTx+8Jf4gJ8kpzZ0pg9OULUT++3f/u2rn/iJn7j69V//9RVs4QQKOw13Sjo90jb7wQLG7Bed2qwP+FrUaNXtEOwgnGq4LgEKlgKGv9kEKwsS+GW66Jf4L930Smyp7Wjhpxzc5LsEDB55TKnBSf2coI8jYGjH4O4H3CA7GjrnfvnLX371gz/4g2vim+R4TSi2kp02znJ9wFe/ooNw6VGfmezkUzVEAwAADrdJREFUVU+HsqRu4m6MyyaBycKFt/txhHVq4oLeZ33WZ1155NmWv6CCrzbSvYd3W3r6N34YfrDwpf2Co4cP+ctpiFM513/cMXGbVTAReD3l6RpQfqSfzm65dn2IzZJ+xWsZL//xwZbW31VsfIKC0w1/1P2Zn/mZVx/4gR94DBj8I7OXbP3hR2V9AhsXevVF1q72JfYs32/l5ODJSXglPJeAsVzxeH6asGlvQNUfV8DYD7jBNshd3f/pn/7pdf79R3/0R2vCmBQmJVtNoCYZG+maOVxw9gfuuv7uabOuvBbIYdKzd1N2XAj6YGHYels4/sfFP8ZZSI6u+mAy01Oe9sy24EvT/vyEVyCS+ANPC4dvLHpBQhYkBAv2hq9upyHACNSvfvWr17Mbgo3tvDbo1SYoCxjLzo0m5Y+33HYXnkfxIJZ+6387CX0u0yE4ZT88/dLSu0H2K+tP/UXX3/pIDz4pXHrovASM5ZrH89NApd1glB5HwKC/rJ0mjYnkqcTv+I7vuBIwTGBHQ8nRZV60a7JkKzgnNpnaiAfuujT9cKoMJ5ugdGZDu4d047El93avnYYHlFzca6eRHlDaw/QEp/2z3RZKR+C5KNOLJkiA2uFjAUSg4C/QzsIToE7/+N81I9dBtFXbwQ2xgmS20ckOpyMuZnqu4ku/9EvveTckWbx8tgLtpoA/GvvsxTv9qr7np2fy5YdLwGhUHjM0ADM1wHCPOmA00GATXPsmtMnrVOTrv/7r18UqE9kEx9ckIVdgYF+2ZzNYGX2W97zo51K8ezp8mV3Smqhbu5JTFHi7Crda3TWxRfdWpoBnkWRTbezhUjR+4g+1r4enhy0FEIFM3W6CjN2PugACosOrC86C9M/93M+twOH9Ezzos59rh3Hot3a1ie56hes1+vvlX/7lK2DYEdZGvCC9UnoFCO3khwIGX0nR8ct7vkvAWG569n4agFo0eKXHHTC0LTuK2Bq/7GUvu/rGb/zG9fyAiW6ymBAmmeDR5GFfk6eJDbcm9KZPD/SjiQhfr2b/yDxI0rbFIFmgLQJ9Ya9TENczumvimYP+xDp76ZipcQhmf/bCl6ORD6dM9zwi4xOIJdcQJH6UBBAJv1PBH//xHz8GDe+gtHCzMztmvbYFDP0TMLx96inOUwED/0x05g+06sr8CE66uixl3yVgTI8+C+UGoKaaGOqPOmDQ2aSoHQPuKOf5Advi7/3e7736xV/8xXVeLYigmzQmusltorC5CQ+PLs2FjFcbxwm1yXnS8VEk7bdwmtDpRXvDLZi88bajeGq7xdhfNFhMFtW5iU6uTBfb8XY64YhbX6KDZEpk8mv46Rt8s/38OgOGXZ6AsddTG+lVx6PulMT3X52S+NNugVLAmDuqU/LpiDbr9MrZEU+42Q+02U9jf7mtmsceMTQAM80BelwBQxtz62zRu17h+QsT1nm0q/t2GW1rBRV8MvkZaJyXT7z+mDRSi8yEkmf/FsMD/PDZuYBBHbrs2oXHxi0k1zTcNRHo9Gnv9ymHxs59wNDmKbnbdKH+00M/vxUwfuqnfmr5v4BhZqz2Nt5S7acHdKHXXClg6HMBI7n4kw//IJCuS8B4EM89Apn9ADawVD/qgEG3bOFa0NruXFXdxbbXHF7FtrvA105CwJBtsWUTXVBx+9CbmWTJSLWjLGDUR3gTDXyYRN8+YMw26Fb3GrcnGm3R7TTccvXZQ6csBTT9p6tglm5w9iOd8PKDpvpOxyVgPH0Navl7c+r0j53SV3/1V6+PR/n6nMB40/S87Wi3ZtlUSHjWlQ2C21mi9E/+5E9efcu3fMt64i6+mzb4bPHtJ9+089kKGO0CBAQ7ja5fsK2AIkCU8eFxsc51D1f3Xekn28LjP/KyBSk3PngeJtGZzQWg1dZBqYmiLZ+h82bme7/3e6+nPwUOt1o96WiHxaYCRnqoSD8oZbfyDIDqt02NL92XgHEJGLedP884WjWhKHrUAYNO+k8tgCawI+9cPHOhJ2uxCR6vfOUrr374h394Xd230/BmazygRK88F/jDBIz0sUtiqxQe1LY2BAO7CXcQ7DQ8p+CuiQCCxqb0JJNtTluiwc1TuPCr4Vv+TL9cAsYlYNxy+tyd6FOoCQX3OANG7Vhg16X4ghaLBWSyewTaW5nOvX/1V391XShNHx4yMlyLLPx1bV5Ho2vqK2B4iKnbqtoMLzC4i9A3ID7ncz5nnaLYZdiBTBuVTwWGS8C4d0SmfzsQ8JFknB10Lhc97/XZI6u1wFJoMEqPOmC0ONIPhpvtnsK3UEG8FqQdxvd///evgOGFKzuMLiiim0QFiPq5b2factMyXQWgpW+zp2BhAsOZtCBetzQFB7sMH9pxx+SjPuqjVhBhJz5yeOfEnzYXgOK7qa17vmXvhqSbTju1y0XPu+PUqSSf8c/lGsZ+9hwcM9FNKLjHETBawBacQdFeuL0daNkz+fHBu5siYLhWVMBwRG8xFDTSMfU/TJn+ewLGpixcRzw7hRY5Xna5a+LJTwHjMz7jM47vmnR6wqb6PPVP+/PDg9qfrnx0CRjbzmSbS/xxCRg3mFUcNVMTCu5RBwyBYb/lboHU7rQnHFvCx69uh+G5DW9m9marHYakrQIRmSm/GB7ih669vnDtALSZDZqy0OcDXb6W7TV4pypOWcgnk2mzTr5gUdvx3QbSKdFx2WFcrmHcZu4cJ84UakLBPY6A0VHXwrIAJG3Wbgtv4vC0SCZfAeOlL33pChhus64Fu/GvxXrQm0569nrhHiSlM3vogGthp7OgpY7mNrHnMT790z99vQbvromgkV1BupSTz1+1m/7bwuyl5xIwLgHjtvPnuBATbEKpP+qA0WKge078FgZ8R9FwFszEKyfrlKQdhi90CRhLfuMpYMQPL7UAV+UhftgggdNncNqqH+pS7eLvC12ezbDT8N6JxUvP1Dt1R9vrvav95r/ZSvclYFwCxs1nzoGzCZpgE0r9UQeM2gjOtiwotpTR5BZaC37K2mH40I5rGE5JXlcBg03Zq6wPc0cAZ3Hqi+TUxAtqPjbzlV/5leuuiQujPQU6g0Ljk+ykLWW3/Mnn9F4CxiVg3HL63J3cU6gJBfc4A8ZcYLVfsKieLROa5DJcd0m8aemip+867E9J0tXCO9VuPLeF096pF97CLqNlM/tcZ5G9xWqH4fkM72J4Yc13JFwEJSNNu6uHWwy3/Jl6LwHjEjBuOX2enpAJNqHUH1fA0MZsR1vnFkF4/I6yBQxwBgzPYfh4sAUptTNZlfGzb3eQbl1kW7kdAP3hChgUd7E3+9jfK+F9ct93NLzIZaeR/XTMlO6Ju025/tNzCRiXgHGbubN4TZyZmlBwjyNg0F/WRguCHeGzocURDT+aiW4BuobhlKQHtwSM+pMOMqVTuGg3hVO/cvaTp782oqHDsRmMX0DwgpaP4Xomw2vhXoP3yX3fzug5DvzpAss3tXfPN+27BIxLwNjPj/vWTcCZmlBwjztgNPmzQdtl7U96dsFZbBaUJz1d9HQNw/skAsa5RD59WyOrnQ1xxM0dQjrwzwWeDvTKnvCkJ9y089jeRrQ4JTgpPjsOL6X58IyHup7aXon3klP605Et1ZeSW/zQl05i9NwvYMSHt1Q5+8HL26p552l4efnskz95BZAmTK7Z18NfB5tsePbyk3aKDlfA8MHg7/me71k7DH/eI2Akn151WV1epwRbfS3grd6DXnYs9MavHbzokgBFJr0Luf2spXRYULV9pB3w6tlQAKIrnDchfWnc6+Ee6hKo+0JXuuKtH+FvAsnWnj5NG657cIvu2d/ZNp0SeAkYyxX3/FwCxiMMGPd49gEqM2D4wx4XPW8VMLY26bAAZkAoYDAJzeLqQTABY9IfwOyl02K1yOjaCgv3/O01eNcvPMjluxn+EcytV3dT8Mot3OD92p985FeA3IT0KRrcrQLGwS+bgmUTG+i+BAyeuDddAsZzJGBYLPts8XYEtgAs6nYe4eciw/OwabVzCEpvtN1SdT3D8xgChl2GT/W7a9JCF7gKNmSzJ1uC7ELDGw9c9Im7BIzLNQxz41ZpTiCCTSzlx3ENg96HTRa4I75TktvsMLSrv3ILql3D/2w6hQH9dxTuG5g+1gPXTqRTlwftA117G9Th+1S/05MXvehFy//sy56bBgy21T+6z6VLwLgEjHNz4yx+P6FM3NJzMWDomz5bUJIFua1WyFXXf7QZMBAKGJ2aLOYH+El/O5gZgPr6tge63DXx/x5useJ1TcMuY47Pvnm0Mtrs536c0S8B4+nx558OGPnu8rYqT+zSfiLNCflcCxj6WuaGtbi2gPEG24L0wJRAYQF3GtBOBm/XMuYCh79t0r520qcN7YFw7PBNzC/+4i9epyae1XCNQACb1x9OtVuwCOKpPXCfLgHjEjD2c+K+9f1Eei4HjLlQLXynIXYWjuz+iMfR3AeF+8ewPtFvqfGTI5CFPX10XwcPBjoseomOaU9tscFdE7sMd03cahW4yeGnY9liV7Ql5ZmybdqJJ9nJewkYl4Ax58ONyucmHOHn2g7DotmfWsC5I+Eio6csBQzvpPhGqMDRQmsBtiBv5NwdE10FDAFL3c7BGAgY2kB//vOfv4KGR8Y/7/M+b9018QEepyWNV3aol2sOrRyuflQHLwHjEjDmfLhRuQkYcxNR/bkeMPTVaYD3OBzRXXR0jcJ/uvoXMP8ANhe4Bf0wqYChXYuV77uWoQ4PZ5chOPjYjk/6sc13QH2FvPFqnNTp3QeE6NmbXHXwEjAuAWPOhxuV9xNpTrTnYsAoALRjUL9z5866K+E7FW5v+tuCH/qhH7p61ateta5p2A107WLvrxs5+cDU4lYt+Gj/uNi3gOHPloyB7DSpUxOvwj+1PQUqwOBvnNIJN9NN7LwEjEvAmHPmRuX9xGoiEn6uBQx92i8wC1fAePGLX7z+AkDZKcl3fdd3XfnGRv930iLe+4vO26RT8oLGvCtjIQsAfaHLqclXfMVXrHdNXG+Jt3bTOccOLnx8e3gJGI8vYPx/AAAA//9EIW55AABAAElEQVTt3WezZbtR8PFtDDiQo8nMxWBjTA4mGB6MySanF6TvBLyjCqpIBVUUYMBEk0zOOZtksgGTc7B51k9z/uf2rNl7Zs7M3ODDVpV2S63uVqsl9ZK0wn7Kv//7v//vYQv/+78LHJ7ylKfI3pJX9trXvvbwT//0T4c///M/P/zET/zE4eu+7usOv/qrv3pJt5ieRD+1I5Vqn/y7v/u7Hz7mYz7mMsrv6ff55DyW8HWve93hv//7vw+/8zu/c3jZy152+Kmf+qnDb/3Wbx3+5m/+5tLO6aU94sy/wRu8weGN3uiNlor/8z//c3i3d3u3w4tf/OLDR3zERxw+4AM+4PAv//Ivh+/+7u8+/OzP/uzh93//9w9/+5rXrH593ZDzoO2jzxpBG3zqU596qY92aZ+g/Cmbru/7vu97+MIv/MLDC1/4wsO7vuu7Ht7iLd5i8WhHoXbWf8pqczR7aKz+13/91+EP//APDz/6oz96+Mmf/MnDz/3cz62xm5wpY+lj3G+xcpA+xsZHfuRHHj73cz/38P7v//6HZz7zmZdtUm/0U95en3vNk0V3ge2EbKbdbPiv//qvh5/+6Z8+fPVXf/WC8toq0OEWvot+NbOnnsbCl3zJl6zxb4xo572Gp5wdxsesQbHv8H3+Xg36IHQP6jD2E/Rd3uVdDv/v//2/w0d/9EcfPuqjPmoNqJ/5mZ85iJzGH//xHx/+/d/+7fDfm3N5kPY24RqYy3G94RuuCdiAp5tBy5G9zqTYBveNGzeWfibkh3zIhyyn8YxnPOPwhhvv1IeM5OQwKp8TIdufHcaFozk7jIbE3WEDKsoGlvx1XGFor2iyaatJw2FwFlZTH/uxH3t48zd/87Wy+Pmf//nDD/7gDx5+4zd+4/D3f//3h+2icXkFyl5XgUcdxsVKx1VRaOXTSoMDeeu3fuvDs5/97OUsPvETP/HwvOc9b+mY0+AchNoD4qutlYGzv88O4+wwjIkrhTmAMF5nh6GtXXm7Emuv5eZ0GO/wDu9w+Od//ufDr/3arx2+8zu/cy3T/+RP/uTwj//4j+sKPm10JWMPYjLoYmIL8lMu/ZQ9/elPP7zxG7/xcnDPf/7zD5/92Z+9HMfbvM3brCXym7zJm6zyZHAC5ODNkVQGzv4+O4yzwzAmrhTmAMI4B+11W2HkMGqntsJxGJ3VcBzyyuztrTDshZ1D/cVf/MXhP/7jPy73z8nLhnhM9GnDWVa9oKCsuBD4txi/1QaHIaiXXp/wCZ9weMELXnB47/d+77UyshpCg6f6ycwxhicjXYJ3chibsIOtU7SLv/wmPx3B8xkG69wazmcY23L9Ohx6mgBiV18TXLs+7uM+bq0yHHzaoii3DXnlK1+5Vhgvf/nLD7/5m7+5Vhkmr+Aq/rSnPW1BE6cJCApkzHpa1azCi58m5IIXk7RyvK1AyOQc6MphfPqnf/o6XDRZ6TDrrI3pBJJTXeRLp2+Hng6P16Hnn/3ZchbpEWxLtTGfHUZGOQHPDuOaOAyTp4nYpLmxHSq6S2J1YTJyGCaYM4u/+7u/W1uT7/u+7zs403jVq151+OftLthTtzMQNCJ5yeJMHFgK1SNtch5zGMqEOZlP5d9oq/Pp22GnuxCf93mft+7qWHW86Zu+6aXDsCpRr6C+HEkOQ/vVlb7zLsmlw9ju8KHbh7PDON8luW2gzoFy3bYkJkATxgQSTCoO4+M//uOXw/jwD//wyxWGif9v292RP/qjP1p3TNw1sT3567/6q8MzttuGJh2nQoarPNnypxyG8mnfpcDFz90cBjKO4A03vd9909ctVnd03Dl5p3d6p1Wn8lY86Ktv1pmzODuMR/t/M9Tqy+5esR37nG+rssQu7AfqHFzX2WHMq/AjjzyyHIZzjBwGM7GFyf+a7TmM3/u931vL9e///u9fd1CUu5PBQbiKz7sb8tmxKzunAlfEP8O+H/b5SeuuyXOe85zDh33Yhx0++ZM/eZ1nuGPCWdCjOvFUX/qQW6TneYWxPfNydhhzeN05vR+YDSxc19ZhbG2r3dr7yHu8x3IYnsXgMN75nd/5cvuAzjbjH/7hHw6//uu/vh7o+oVf+IX1cJM7KQIZHIJgssp3WxQ/55SDMkmjXQwXP+kzcdJ7PNkOOd/yLd9yPdD1SZ/0SctxvMfWhrd6q7e6dAb4RPTiDJWdHcb5LskcF/eUPjYgY7yuDkP7arfJZLLZknAYDj1b4qPzvIZgpfEHf/AHh1e84hXriUjnGX/5l3+5ruhk9BShq7zwn//5n5fnB5xFW6AHdRhkJ0//2JaI9HaekXPKKaCfga6VnR3G2WHMsXFP6SZOxPNq9H/VYbzjO77jpQOYh4i2Jr/927+9HkX3fIZtiglqxfCf7pxsV/R5G7SzDDZGJxxbXWT7u0Fycjz6yR0Szs6qyF0Tj5D3XMZ0DPUx3MSfHcbZYdxtzN1W3mCqwIAqXFeHoc21W3tvXBx6WmE4RMxhmNxWGCap6ACU0/ilX/qlw7d/+7cffuVXfmXdRfGegskncDBkWnHAVY+yaVv5qwZOpxWPLY8HujgNd004DHd49Jnbr+pSd45q1l37zw7j7DCuOgZvGdCY58C6zg6jK7VJo52ew+Aw3H1whmFC5gRMuhyBrYa7Jm5BumPizokHushz2/F/Ls4omrDw0lYb07ZX7qiNIT3w0k+gF/2tMmxNevBMGccw64eTJ0fZ2WGcHYYxcaVg4MwwB/V1dBja2kSSNmns/b1DwmGYcN4IhS+idzXvau3ZDNsRTuOlL33p4Xd/93cvnYKJ/L/bymRNTE5k47VSIetBtiN0VT+5ZCZPfznsfM/3fM/lNF7ykpccPELe1gTPdFitmJJxvktyvktibN1zMHBm+L/gMEyiJr+Jx0FwFm6rghwlOzTR2acrs7RVhjskDj6/8Ru/cd1udRfFlgUP2RwM23IgcNOuZBSugidPJL9+I/tptiYXd00+9VM/dW1NHtluFbuTUt2goB3T6ZwdxtlhNBbvCTbwIp4D+DquMJp0tdtEssLoXZIcBnuwBYciNEnxhfcNju/4ju9Y3z3xbQ7nG8pMSA5D4FzUkYOa9lW+z8MJp/DKyLJSoEv62Zrc2M5irJCcw3hGw9aq9uKTzvHFe3YYZ4dhbNxzMHBmmAP1ujmMOXlqJ9y+nRyIgGbSZSs4TsBt1V/+5V9et1m9a+JjO/Do5uFkDgN+yjxl9+qe5TPNYXAQ5M07MR7osjXhLD7lUz7l8oEuzqtVBZ6cH2dzdhhnhzHH1l3TBtAMTRC4/USS39Pv81PWY5U2AS31r/rFLbqmLxmCiXRjuzK3wnDoOR1GdK0Q8DTpfZnLl9V+8Rd/cb0G766JrYkHvaKPNr4JpQvT7nD7PFz6k70m/YajnzdcBU97Os94v/d7v/UEaB/bcSdl0V+0v/TZYZwPPdfAucpPEyieOVCvm8PQxtqrndIchv2+Q8+W814+U2YytuQ3yWZQ7ursLMMbrT/2Yz+2zjR8Q+OvtndNyMfT3ZXOMtJh2hnubnk0yZOmV22Qp6tyD47pN7dYu2vSIS467W21cXYYZ4dhTFwpNIFimgP3OjqM2glqu0nGYbzoRS+6xWEoZ4scBlrRxARNOmmO4NWvfvX6KpdXw3/4h3943UHppbR1+LnJ+i+Hn85DyCF8g4I6ps0XcvzMshxGeqhfQFOaXn2hi9NwCPo+7/M+a/XBeQnkpL8zFk+wcnhuE/fY+ym98Aqz3ArGWOGgPudzPmc9F2K10zlO9CDdHzSou37RDqH200+fnL/p+aBWPsG/70CdUbjODkO7Re29sW1JXrQ5DNsSWxIrjCbEtA9cA9NAVSZvcDrwdJ7hENSDXVYZ8ItuMyirLpkm+cb31G1gw+FPZnZPN/n0kA7vfKTJb5XTaiOHYpXhlXcf2fHBHWcaXlYzsTkIcvrojjs7zl44DN8v9aEgZzMmnbrRCtJCDoPO4dyNyWH4CLAtEYfROQu+aJMHd7+BrLPDuF/rPSDfvgPrWGKvo8PQPm2eA18754NbHEaTGB16fHNyh1fm4NFEdKbyPd/zPetK7RFyXzEXTDn0ppyBjmdeGasLbQGNoN7ZJ3AcRu+s5DDgOaF192SDgq1I75n0joy6yHb1J5fefUDHQ2g5jP2DZmjxpRc56cVh3NicrrszZ4exTH84f0DnGn1Ax6C/H4fRBNk7DniOwAGoJb0Huny23xOhyxls5dNhGFJzhSKf7FOwiaqcrD0/HBrlyXi7t3u79X7Jh37ohx5etK2grDI80OXK36qEHF9Ft5XqbwY8ubr03WTlGMgukh+e7meHwQq3hrPDODuMNRFNGpOtJbvJ1+Ryh4STcJbhuxm+Nu4/atoGNNEMLTzHQhM+iKaJKg0vwAXJasViZWAyK3+zN3uztb3yUprnSz7wAz/w8Mh2XmO70mcGrVR84PiHfuiHDj/+4z9+y6Pu5E/HQmZ6nR3GMv/Jn7PDODuMWxzGnHA9cwHny+Ie6PLxYE+CuoPyt3/7t5cTfY6wOfmnA4CfE1IZpwBOPFlwnAUd8OXI0Nt2OEuw5XIAaltii+LlOk4MPRorjByGcwxnGLWp5zxa0aTb1OO8wpi9ejN9dhhnh3GLw3AXRDAhm6wmkTOFP/3TP13PZjgT8O93Vh3wylsJdOUmw6QXS4Mmphiu8omvrBWGsiY4neDh+kKXF9Q+7dM+7fDc5z53leUE6GdLQlcHthzGqm/jpeeWudwCkacdZ4exuubkz9lhnB3GLQ7DFVqwpDfxmkgmmG2ISec8o9fg4Uzm7m5YCazJeDHkcgiy0kV5sovyQvTw+zxHQS80HJVVhFWALclnfdZnHZxp+EiQOyXK3SWxwrC6sI1ym3htbba2LPk7hwF3dhjL7Cd/zg7j7DBuTp5tiJgsJpQJ2a3DrrqcgDIT0Sf9vu3bvm2dC/zZ9ul+t1nXauRiJfLaDe6DyUiuSS8KcOSuybvllR9bqaCtLL3aoqB36OmTfu5muPX5tm/7tktXd0n2DoP+6iSvmPyzw2CJO4ezwzg7jMsJOyeuydSENsE4DsFkt9Q3EW1NOA9XbjSv3RzKuoJfOIeGHjnJxk82mPwpezqM8Ojh0wkUBTTPetaz1irD1sSTrd47sfqwhaKnuzseb3eXJEcznRY5U166ns8wWObWcHYYZ4dxOZkNjSaOSWMyFuVNMhPXcxgchXdN3LL0DQ13UnoKNNopi0NJfnLQLQcznNHeYZCBvvOUuQIiT94tVW+w+kKXB7p8Rt8zJw5lX7F9q9QZhm0JB5ITWvVs9dPL5icHopxewtlhLDPc8nN2GGeHsSZIkxs0aUzEJk6T1shR5ilKH9vxEJcJ6UzDeQEcnuhNQunpGCrLMUyHoUwUZt1oOQzBlkLoLAO/euQf2W6tultia2K1QVcOzW1VerprUv140gs8O4xl1rv+nB3G2WGsQdJElTHRLN1Bk1U0ocLnTDznYELamrjV6go+l/x48JqQySMfPgeQrOkg0KxJvDmPN7ioe8m50Gub9WvLQQ4677L4hKA/cvZshtus/g3+mdufMtmKeJfkR37kR5bDqC3xTn3Vq43pcl5hsMit4ewwzg5jjYhjDsPEMbFNMuWW7z3nAO8/Wq0yPNDlrEDaW6490JVjIGeuJODJFJqgaJqo8GslsNXprxul0RXl02s5ko1XnW4FO8+wNeEwOBAHnx4L59g4NHUX0wuEE9JH+uwwWOHWcHYYZ4exRoRJKDRxTXDBxGzCroPNzWmEtzVxnuHVd0+AeknNwaJbrZ1ZxC8/J2MOo/q2ii9fZCNfnU1s+eR5r2QrhFo05JNhq0KmVcWzn/3stTXxCLlzDIe0dHv1dksYLX6ypckFzw5jmfSuP2eHcXYYa5CYoCbOmlBj2OQsTEhlOQAOxWQTX7X9kbMlv5WGp0E9qzH/apEMgcNoCxKOTKVP2V3hlUeDd9W9OQR/2ix4+lTd0ZBt0jvL4Cg4DSsEeCshOnIe/mfFbd9WJmQIZ4exzHDXn7PDODuMNUhMPJNSFOaENak6bHS7UrD3FzwX8dd//dfrCu4cw3mBuyYmqW2CiWkyiiYvWeA+zIm/nMiFk0kf9JyVbYfAIbUKWojtRx2tMmxH3D3BQ3fOwpfEcjTTQeCf+erkcM6vt2fdm/DsMM4OY42EJmyTZebhmuRzYmGUNxF9J8NZwfd+7/debk36j1Y0IpkcRvLkpzz46r85PG/9Rc8hCMmZFMpF/wT/xttKI2dFdw5O3POpLz5w6nD+gM607s30lRyGAeBVZ/e1v+7rvu7wq9sJ9DLw7XKfcIzOn2EOxPP3MG5O9CYIO+3tle2m3eD2eThXeld8Kwsvp3nm4Td/8zeXE9k7GvxwojqnA4iWzAcNtSeYvPQPwqMphgdzGH0Pw2GqM5Ieg8cb/b4eZVcNZHFoQnbJJhwrh/d69cWts8O46hC4Gr3BYVBc9SPAajHYDNp5xb7XD+jgPzXgmxBohH0ejt6chlWGB7r6pJ9nM+C7qseLHk6dtgwCuibHQjzgT+0JJi4dgvBoiuHBs8PIao/C8wrjvCVZo2E/sRoiTaBT+Ym3NXHg6Y7Ed3/3d6+7Jx7m+nd/hLRNQLI4haI6u5JyIGeHcV5hNJ4ed7ifAHPgn7ckD3dLonPZe25NfuAHfmA90GVr8prt1qu7IPpgrjjwzBXR7KMHHTD1fzB51RFMd3RiePC8wshqj8LzCuO8wlijYT+xGiJNoFP5PZ4DsMpwx8TDUn3SzwqCsxCTOScpXPhkPgisPcFkVUcQPj3A8ODZYWS1R+HZYZwdxhoN+4nVEGkCncrD20pwBIIDQQdzXnvnNOZ3M/qaF7omqbQ6yNjXpex+Q+0JJqc6gvDpAoYHzw4jqz0Kzw7j7DDWaNhPrIZIE+hUHt7qwbMOZHhOw+T3FKgD0Je97GVra+I/QrzRuiYnpo32Jrg5ScnY17UI7vOn9gQTUx3BdFh6nR1GZjoJzw7j7DDW4NhPrEbMnFhw+zycye7ujsBh2JZYcXh3o61JL39Vz/9uToXTQEsmGedDz/Oh5xpET8RPA7O650A/H3o+3ENPE92EF3pYiv29U+KRbG+zfud3fudacVh59Jg5+tVPOYwNPqxQ/weT2zgIwqMphgfPW5Ks9ig8rzDOK4w1GvYTqyHSBDqVn3i00XMcnAgH4XuabU08m2FrcsvdkYvzi4fnLi4c0abcvl3pF6R/zgIMD54dRr37KDw7jLPDWKNhP7EaIk2gU3n4JpyVRoefHsjKKfhwjY/YuGviXZO+fMWhPOytSHrWnmD42hOc+qMND54dRlZ7FJ4dxtlhrNGwn1gNkSbQqTw8XvHY1kS5F9F8l8Ij4941seJwJ6UXwR7m2YX6hNoTvIl99Axmtiv9wfBnh5HFboVnh3F2GGtE7CdWw6QJdCofHkQbfZMQ3lur/gjJXRMOw0GoVYetSTycRrx4HjTUnmDyqiMIn65gePC8wshqj8Kzwzg7jDUa9hOrIdIEOpWHRxNdcnIA8tK2Kj7pZ5XhK962KJ7V6EUuB6EdnFbXg8D0CCYrPYPwaIrhwbPDyGqPwqMOg7FaJrYPlXfqrZO9rfr1X//1612BBkYi9x20jaT1JaXKHy+416OBoP4n+12S3/3d312HhPb8Pkjjq1bpX7vkxZmXLrL7u9+4cXjRi150+JjNKb7whS9cX9KefGin3GTNPqp84vZpNI2DZJQ3ftLJNym0zQrj5S9/+Up7y9UtWZHDSL99HTNfHXCn9Js0vbc8D1UnX/qB4cGzw5hWv5k+6jB09jy8Ykg4DsOBlavDN33TNy2H0aFVHbQ3vvvtOqqOuF2FxwaTPkmf9T8ZHQb9RPb0bUx3FTjm6TC0aTpwbaud8UfjU3Y3tq9o+7Pij/7oj16frHvXd33XVUe02QZPMdxVIHkC3Zv09CwqQ+PcgvPzNq7DTy+paR9Hon40jSc8x0J6ko0+x3SMNtwxh1EZmMx0gCP77DBY4tawHAbjiEJG2zsM5RyGZaWB/I3f+I23OQwdg3/7uZRzdhjLrHf9qQ9MGBPKcwvs7OUtk0xg22MOg90X/6K6See25iObw7C6mA4DCVoTTSBzxoW8zx8ye4Cr5zHUJYDKHHS66PjYjtfgXXycZ6TTY+Ew7tac2f6p79lh3G65S4ehowQdLewHFByH4SOvOvlrvuZrVqdnYOVHwzZQbg6Zm6U651i4q5xjTHfA7euZ8p/sK4wrO4wLm2pj7dT+GzduXDoMW5J3e7d3W86B2fTvnCh7e93BtCeL9vWrw4UH5OjUgeY1r3nN2o5wGD64o71WHz3QhSZ9ak+Vhi+/Lw9/FUhmMXng2WHcbsXlMHTodBgt95ArE+B0qo+kcBhf/dVfvZaUGRiN9MzD7UMdHow+uKe/33zy45/yr7vD0Fbt105/HWiV4Q9+9g6DbVwg9rbKZleB2XfKMqbcITGG1OPZDNCHmJyF+dq4f1e32rBydSdFmDJO6VB9p8qvgldfMbng2WHcbsWjDiPj7R2JzvdBFEvlr/qqr1r/eGVQMO4+3l7VTUyyK58dFO5hQPXMUD1w19FhTPtro/bf2FYYH/dxH7fOMXxmzhmGgHZ/gVgF9/lT3dhn/1pd5DByFqCtidWqF9KsMjw6Dvr8477f9jKNydmX96nyLWzpDCYbPDuMW8y0MpdbkjqipSPjwbUndftL2tXBrbGv/dqvXdBXliwlV9iMjMfXlY6FBkNTeVLVUcf47gdXXfFO+dfOYWyN1D72rJ3a/8h2hvHiF7/40mH4v1FBH80zKn3+IEGdZArqLXJKxowydVhdiOiNGV8btx3hLHxw55WvfOU648CDxjjx4Z3kwXWBghPgHjQkH0weeHYYt1t2OQxoBspYdcZ+YMm7DWYp+S3f8i3rpNtSkhNZg26TgabPsZGbLOnLUCdfdDp8dV/SPGBiX++U/3/BYTAfh/HxH//xj5vDyMZsnxMyHuBFeA5DgHexcYfEePqe7/mey6+NW30oF3wBfP5nyTGHUb2L4T5+6FVMFnh2GLcb89JhVMRQM9ZxXRlcmVwJ3Ef3nID/rnSl2A+Q5OkIYXbELJvl0VT+IDC5yZiyr53DGDau77Sbw7Al6QyjLYk+bUsy3/nIVleF6iRTlGZ746UxUTko1Dd0sGWxNXnF9mfJVq4eG/fFrrYyVrbkJMP4k052dV5V50lPn2I6gmeHMa10M32bw4BuQDFaVwTpjGmvaRnpLMN/avorumOhTlAWfzLglD/MjiezQPYMs97r5jDYUHu1sSuwtmtnh57dJYFHp4/xzImt7H5DdeeImujJq7ztBkdVH7nguH3sgS6Ow8NdVhmcQ3Iak8nHL6BR9iCBHkV6CuDZYdxu1ZMOQ8cKOowxG4gGp4NPe08rjJe+9KXrQSPls+PqgL1DqEPIRrMvh38YgewZZr3X2WHoA23Vfu3swa29w4iGw9jbatrtXtPkiSawcGzlYox061S9OSt331796lev1Wp/hGSV4dX4HAPexhh9w58dxs3b0WzOLmwqrLl4MQ64QH0joPmAD/iAw5d8yZeslac7ZxzjvYYrOQxCTXBnFp7HcLr9zd/8zWvvqXNzMlVOuRxCAyrF0czyBnq8DwrJnmHWe90chrbO9rG5eOPGjUuHsb9Lwt7Zf2+raberpOtjPMkMwinf9zM9OQIPdFlZfN/3fd8aV7a9zjfiyTHIv8HW3ibGciIXk0Ed9xPoWCRfAM8rjNuteekwMhTD6dQmfyuMOloH61xvGnq010def+EXfmHtOx1iRaeqOqFq1VE9+/J9WTz3C9U9w6z3ujkM7ax92m0yuQLf2ByGpzytLj7iIz5i3VZVjlY/Cfpz30+r4AF/0gec8sNXv2oq9wSoVavtrrHlQN2Y2r8Gj57ewhxvC3EfP9UPph94dhi3G3M5DMbJUBmN5xYMPrg6WJq3t6Lw9SR7Th1sD2oZydHgnfLIwSfMuuQnXv5hheQmL33kr7PDMJFyGJabHtiyushhdGWuH3IYwez1oDD5jZvGEbn1hTJRXyl3ETKm3DVxnmFM+cQffGNq36/pmczyV4FkFpMDnh3G7VY86jCQ1dF1EANmVJ3HMXAQTrWdbv/Yj/3YOu12NbBPxZ/x8Z26Ikz5t6t3/5jkJiFd5K+7w8hpvPM7v/PhQz/0Qw8veMELlsPQbitGq4/6BG1xb7Nsdy8w+yZDXjRW4HIY0VUeRGPseNqT03AR4jSsNIyzxuMcR/Ta13cvuu5pyChO/c4OY2+pzd7bcxVr05ah9h3QxIfXWSBaA6GzjF/8xV88fMd3fMe6MjjA0vGtNFQ5eZNXfber9HAwtSNps77r5jDqE22VLv/2b//2h/d93/c9fPAHf/Dhwz/8ww+PbLdZ3+RN3uTwjGc84/C0pz1tfeGb86hfs9VVIdtm3+onA+7YRI8WjbrRdEYhzUH80i/90vpuhkfH3YWDR9sKCT055VuBkHnVkM7ZDT/ZZ4dxuyUvHcbtRTeNpiOEaVR5BrWS4CAsHf2XpiuCNw99kk2H1ol45xVG54tz4JD5MIM6Z5h1PVYOQx2znnSYeINeiC67yrMJu/U9jGNvq06Z5JRf6Yt8p+Jv9mZvtlZTz372sw/Pe97z1vcw4ESTIefx9Kc/fTkPfxGgn+YqhFwhPatv6j/bFx2ePR5u9jvaHMY8M7PKcOhpleEJUOPLtsSzGa2Opmzpxpo6Zkjfidun0znaZL/5m7/5ev+mf293d4Gz7VyPHLRCvCtznz+1A3uOkL0EdmIj883NBq9m+ESAvHko0GHykZdeU8+Hfpdk1X7xU0XhpgINcHdMPMDlwEoHuyJQHK9G4un/KuBed7Glee1mjCmvOh4GTG6yZjseK4eRPdSlg9MB3oCWb7BxDEJXeGk4k8Ita7cXfZnKls/r7clCJ9Se8CAXufJbWrm6OIM3fdM3XQ6CozAJ3vIt3/Jg9fG2b/u2h7d6q7c6vPVbv/WK8DkUzgQ/3cnUn2IOrwsJnPK9PkvJI3pGV3m8Ux4bcBAcpzHlQmR8efERPZsZTwJadtvLVYZ2xmiCs2zSS9OH3TxO7/zn8z//89ftyOkw8D/MQK9pB7LZX8hhODvkKLz8ecxh7PsnHWuz8vd///e/5baqMRHdquwOP3dcYdyB75YO8pCNtw95vm/91m9dWxNej7OowQ0sMuF0cmVwGlSj5B807A0wZT8WDoN87dHh0nXcxNPJQAe7ohr8aNjL4PfovaurB+JcYX1Mpw/MsAnawr6N8HvcpOcADHiri7d5m7e5dBI5jRyGMg4FngNpJYJfu8icA1ud+3rT8V7gXp48+9iaOABlB6ut3/u931tXVHa2pRL+c9v+duGhA95iek3dlBXgtSc++Nk+7XYOxGF8wRd8weEDP/AD77jCmPVUx1Ug3aZd8TZH6MUmV3IYm7x0Wu2+aG8rDHfQHIw/7g7DQHf7y0debU0cglplOOMwyASNzRg1YhVsPxrDMLMzK7tfeKyOZD1sh1FHgw1AdWlTjpE+yjhOoauivDMfToG9DAhf2Hb18Np3/+MRXzYirzjrX8K3n1V2kWmLAsdB6ROR85oRTjln8V7v9V6H937v9z68z/u8zxpUnAdnQ4b66q90CFb/VaBxYQwJHEGT1tbErVZbEhcjzsNj5La86tsUWbp414TucPQiL/2mHtkOTh1FfHgqr32c5Tu90zvd4jCe+cxnXq5u0DWm9Q95DxL28sjSDoHsa+MwNMoEcH5hCclheDbDqiMjKGfcDLw6S6dvwctqxzp4Fd7nzxpQg5cehYftMGo/+SZcdcPrZHVrLzhXEhwFu5gYtnUmApwrq0nCcXgCkjPGT27tkC7CiXsbpkftPgWnHDI4DMtWd1g8w/Hc5z53rTY4jH1Qb/z3Wt9ehjExHUbO0WrL1uRV261VztO2xGGo5zM4Vnxoi+TSH35vi+rMfo2/N7hw4PGgi8aV15bEgfHnfu7nrhWGVUfbIXT4hLPDWGY4/ZNRo5A34HWuW2H+S9OgN+BNAlcANAaGSWJweWJvTaRNCMPvZSb7fuB+8E7Zj4XDSH8Dp7oNWlGAN8idR/jilPcnrCrYzN7cldTWjhyQ3TgSkyZ77e1QPWxIvjbir87ol603GnRCfJXHj0//vN3bvd2aHG7HehfFaqMrqzrwz3Yek5nse4HpjXbK7YrKXsaVFaxzHWc87MOebfHYiP5kFWv3bO+0zTrzubBJ/UeH2meLZqyww6d/+qcf3u/93m9tz6yCkqmueMItxH387O1ARPrqo+xxz2cYF31FztLzYr494VuSFOIYXA0to32Vq8MqE4ORKY2mqy4DN4jrbLIeRth3Xh1L9sN2GLOj1Vvd8NplVWHiG+T24a6QnISJ4L2cHIgTbwG9ycBO2QeevKJ8AY2VjZDDQCdkYxNxL2sRbD/wygX6vuM7vuOaJK6s7hCwl4kZP5nqK78YH+AnOxFBJvlw2iKyizHEdlavtiYORNlt0s1JD0/Oav8Gt8TawsxPL6hPueDbs1YbxqmDYisJjlPbnV1465fjVNb2ZzFe/CRn4q6ari34Zn/Is8u1cRgG2fTwOleH8oRO++07GRSdRqOtc+/V0Ix5lbCXO/kftsOg15SfnnDazClwoq6QnKithtVDt8Rc1cXXbnYR2qJJNzGTNe2sXNDW2osuXeAMNLEBmBx6TTq0nIJtx3Oe85w1QVxZPcdh4syAdu+AZvlV040ffG3p5vhQzj4crkNgK1h2ZFMrNGW1Dx/62rfswiaEB6UvAtussJU9c3MS7hxp77Oe9ax14Hnjxo3lKKwu3uEd3mHVs2RuTNlSnpzwF6KvDMijv1B7tEMg/1o5DI0ReF+rCEtve06HoPafrqgmSB3agGAk8W7GRnOVsJc3+R8Lh0G32jL1hOsdCQ7Uib+zHisONmigNcDTs0F4zGG4Gq6wDdTaGf+sm+wV0V1MDHSLdoMsit/g1G8O+UyU5z//+YcXb1/qsnTtFL3+Ij+51T3rvJ80fThCQXuFmVefYKvm0wq2JA5B/UUB23LIVmXGYONr2iObkkHnYu2wanDniLNwyOnOCLiPbrOSOwPZ5JH1oPYgi/7CtXcYs6EazuvrTFcDE+UV2zsnJso0KuM3ECd+3yF3ys+ymd7Lm4PmsXAY5GtPA1X9ooFktdXfBvQ/I+iUdVfABCkqS380BXWIFtHwltAGFlyTJdpZ/8Lh3RJotx8zZ8nAb8I44OMsPOTlwNOtxPd8z/dc+LaTq+6LdqVf9T0IJHfptQkhV3qOp2ygjRytA2LnYxyHbYoV7Ku2Mw6rjeQE0yt7aO+MHJQtmJXUe7zHe6xVBDtwHp5P4Ug4iu4Q0YFsfOQIya6u+4X7dpNjLAhsoG5b1df7MwwN3U8URnSb0J0S+07fzbDSaG+uHE8OwwGoQbz1xs3l4zLT9rPL7wdCZHtI/gyT77F0GLVHfdXp4Sv/4+JZAk7UdoR+Bl0OAx+H0YBUXqwdy0lsA6fBCna2cMz++Jts6QJnoOO1qhA5C3dGXFFv3LixHIU7I5bmyvcTY7Ztr2O6PggkP4eR/tpXe3rux1mQ2/ccBqdsVZsd2RKPKGiDtrAXB8kBiOxvRcFhGBduH3MSbOKgVzlb0YlMF0IBnsyH2f7Z7mye/tfKYTCgxmocowqMrPNsT1xVv+u7vmt5RlcES0iGxiOa2utjrxt0FbwMyi8y6ITgBfokIH+GyfdYOAx1qUNs4pv8Bphbgd/wDd+wHKe2u0oKOYDgtF8TdQ5INjXYDVYDHxQb/HjQkxcsXZ4MPCZDfB7UcvuQ0zBZuqqqQ3vwGsBkCVNP8sKvwofwkx2DOQF6pJMLjwN29nTHya3obGvrK84DdrbRZtuuHlSrrTmIbplqU/Zv4tJBf4r00A/opB9W0F71CNV7bR0Gw2VUDW+Awdt3WkbZd4quCiZNxkeT4fHOUH4PJ82xdPIqi1/+sXAYU352MGANXGc5Pprs0JMDMQjYx4BrwjX48JqAJjWckH0M4q6KytAYuKLBLo832dJFMsKjIwcf6PahAz1X1SaK9tClC0B4+tQ+6YmXv9+gvmlD+sqzVfXBcRjZqis+G3tegwMxrjgTkf2dbQj01N4ek9fmHCN7CORPWHraQp31DzgndPxLyH38VA9WfSVM+eaLdr3eb0lWy7afGlwj4RlRR7oCWJp7+9AEcp5hy8IwaPCKhdJ7uC8vv4f7zksOuoftMMiuzQaRIG/AaqO9tnZbQjdwDV5XPAPYgJ12MCFMZLj0JhcenzQ82ARShh5UR3i4dGITEW5G9HQAozVJcxh40lHbmsDSeMh6kKAtZLJZ7SKzPoSvDI6OU08TiWMQp5z46BbPbPdMk5vs0hPSa6+DvLqFh2kH8rKpOgT6XyuHwaBCRq2hcA0wTsJ5hmil4XxDwFtciAvcSiuTCC7kTZ6L5FGgs2dIP7jHymGoQ8dWtw529bPCsi2zZOYIRBMQtETmBBog9JPOMbCdQC5nwBEIc6AqE9Sb48hhTH0W0fYzbRFfOtcP+q/Jp2xOCGXH6k/+VaE6qysbskE6kZdeyVZWubLGnXL4Y+1Whm5GOCF5ky85ytUhVCdI51Yw7D37cBFf8Ucd9Xey6CrQ69o4jH1nZlwNLQ220uAwfAvUSsNV2DKvDose78Z8m7OoPLjojvzUsRVN+oftMNRBflFe/fIGgGWyg06Dy4RusBkUnIbJOPWVVhY/aMDAhW+rQJ6y6sSbrNLl0y84ecgVlM1Qfk4kg/hY/ZPvqumpE97qBelfGyuLvrYFqzf+iQ8XnGX4yitvomaX2kuPbIEu/OyHdLgqJO//hMNgGI0tytfBDA8vSPOStiYchvdOrDqcetcJk29jXJ2Iuw5cgqprZY7/6HxrjIb/HAz+n8Obev6vw6PPN27cOCoknqOFR5DamZ7xBrOBPJquTF25Kyd28hiQygzcbCQ/Bxb85CcjPfby0BUrU18TIzlw6YFuBjSz/lN0k+cq6fQLkl/byYHXPjA9g8fK93VPWul9IHu2T3mOgR5Tl+w8cXt5p/L0n6E2wc3+yA50cAZmdf6VX/mV6yyjs8DkuNvYfMk+ykprb4+GG/89Z4PmmC3gZ7jv19unEGkKTUPzuIJGMr4yCsG7j94ry/N/TRjJBBI4FjKnHDJ0jDCNuxDjRz0rorsYVHUAvl5ZZrAXbw8oPfLII4tbfTMcM+AxHB68e/4pa5+mh3Cp66bzsbCni6a60qd85RNGE25Puy+P7hiMNhnl97SVhz9FV/ke3o1/Xz75le3Lq38P49vTl4/+Xvsh+uTuYXLhS4NF/GIOCN786XwGnxX6V3zFVyyHMecXWqPIKE4e+hnI9pzNl37pl64LptW2w+59ONWOh+4w8sRNfI0V4RnB3t3W5FXbgzYe7/UXed4NsL9nlJbn7ZFNdI3HD2ZIDZInG6yBpW/Jb9ZYDmPj0fGeN/BgEofhrwQ5DHzHQnIq2+fD4z8lI5o7wVNy78Qzy6p/L+du+WTcq+57efHv4TF5p3iP0e7lXSV/St6p+q8i+xTtrPNYPeEmXWmwiC7a4N5huEvyZV/2ZWulgc+YFpO3JW7KO6IsmX1Ax3/WcBjuFs36sVX3XsRDcRhTaY1TWRO/MhM+vGWV22DeBeA0rDZAd1I4hJxCjcgY8mRYdTgUFCzJ1NkK4qgD2eiWATZeMjxz4GvaHMaLXvSiyxXGErj7WXwDt89XlK7lrwpPyb1XOeo/FvZy93k8x3SfdDN9rI474U7pNXnQ6OM7hb0Ox/Lh7lbnsXK88d9Jj30ZWemf3ORMeEx+9MmccrLH5DOHjHcPAH75l3/5WmnsZSxZFzoZEekQnfyTymFoKKVMahNfgDORBRNbntPwtqFnMjgLL6l5sSgHgF8jrTSm8cjgjKxUhOhzGGijV743GJx9G2dR5GWjUz7DHr/PR0vXOiXcVeApufcq41Tde7n7PPl73SfNTN+rLpPulF57mtlns6z0Xo99PjpwXzbz+7beia+yyR8umLxj+scHlo5vD5WTRY650oXPHDK2RTcIzBlf6HeG4ePbzbG9nctXb3rK7x2GLcmePr7b9Nwm3PFL057yLvkUynAaWKXKpsMgSp7TsD2xJfEkqJWGZxXgchjt3cgSW31IZ1zyKk8PMJzy8NI3btxYKwsOw0rDISjaY2GP3+fjmfLDXQWeknuvMtR/LOzl7vPxTP5TNNFOOPngr8KbnL2M8PcK8RsLyaFDepQuT2Z0yY+/PBj9Mf5JJ72Xd6w8mmA0U760ciuJeYaXw3CnzVbepyM8OexWfVv/eWGdOuVQso86chjG/9yS4FM+4cqMn4eyJUmexhYzRGU5khQKj94qwwd3HOZ4GtJzCwzAWTAe3hwFmFHB6pGeoTxjC3ls6Ue2MwuHne6U+OaDLUrylc+w13efj1Z91RnuKvCU3HuVcaruvdx9/l7lT7p9XTN/TH64STfllY6u/Cm4lyPfhMBDTrJKl1c++Us3PpUL0cd/E3v8NxnHS29i0Ryjq57K5KWNe8H4Le/1fncY3V30l5I+k3CLw9guwot/40vedBjkKfeqfv+t+oQ6DApRVKwDKFgMX2PgNchbht4xsdJwy8ibiF7S8pRkNK1YyDX5M2gGy7GgTw/pyqcH5jB8EIXD8Bk6DgNdxl0CLn6SF26fD1+byr++wVPtqh2zfcfS4ZITxF86mj1EczeHHQ/aY+nqUD7T+zzefUR/qn78hfjk9zqUP1V3+D0ky3huRdFqAh6taCvSHHFR9flL2xEOpDG76t/aht6lM326YOZQlVthfPEXf/HaktueO/QsKBeC4YMPdYWR0CY1peuIGqasSCkNspJwCOqtww5B+79WfGia+BwDA5OBH149ZMDNeqTj0yH4hBs3bm5JbEc+7MM+bJ1poMu4tQPcG26fj7YOKn/d4GzfTNfOcNknqLx0NGAxfn0V3eQJN3njCSe/549mD6t3QnXo++qaPLOOeJSfwu9lyIeb6VlHDsP4pYe2gOowbjkLzytZXbhD4oLa80tTjqmujlMOA61yK4wchhXGvK06dZ2ySz/mDoMCDFCHMgLDMJJ0huEIvJ5speG7jS972cvWOxho8DrklJ6OIePCOw/J4BpHPr69w6APr2p10f+OMtrZYdw+CdiRbfdhDqrSe5qZj2bK0lfyovIZJ++d0lMeuurZp/cyJt+sf0+3z0++WXYKj2bqVD56cJ/OLviM9V7l5ySswH1fxjmGcz5jfvKfchhkTblWGF/0RV90cFu1FUZy0jc427n0f5iHntMgKRguhyGvLIcBX5n3LiyzvA7uX+EZx6mwJZkJrRFz6RYfeQu/wfkVaPQOTwUOiVHwOOR0dsFhMNqNbcUx7+oshoufveH2+WgzePnXRzjbUDpYe2o/WFSGbtJGFx8YLto9feWT527pKSPae5UzeeOZuNLgTKunfOk53iuLb0J0M1ZGjjHqrl8XRW+mej7JjQAHnP6vxrkF3CkZ+3a4qMKln/TckrTCSOf4g/Sa4aGsMFTGAQgpOA0BT4GUUKYBezxD8ZwOQe3VxF5Sy7GAwpR/KW+TOz9Fh44+wlxxOLP4oA/6oPUJfYefvrSUbot4/Ozx+/wgfaCkNjxIOKXXXu4+r8478Z4qm3xksq8+jR6c6UkvfSxEP8vSNzjLZnqW36ucYzxwM+4nZhNv0mi7sdscUBYfXNto0IWtqGxGDsL3cM0BF0kXUHdGfO+D07AChyOnu4hkqatQ2+kgNP6jUf6kdBg1IMXL3wkynmWWPRsDOc9wu5V3/ffNmP7hykqDTIZCX6ievcFyMAz21M3ZPG174Mu3H/xBj//ceMlLXrI+8oo/GckEkxdunw//oPBY3VeReUqvvdx9Xh149/zR7fHoK5uQfeWjnzLD4RX2+ZvYW+WSJSa3PFrpGSZd5fGB+zjpp6zw0TfRjTPpYpO8OjgLE9mYnPUrjzZetNJowUlDhrGfw7DaEG1LrCo4EeOZE8hh5Kiy6YIXttsMfbl6V4+g3LsknWHMLYn23yJncdz689BWGCmkQVVaVRQpKjtWjpYMhmQEkaNwlsFxdNeEsdAxHoMXyBeSXeNnPofhC1OPbHdKbEn8ZybnkX7JC8Z/Kh/+QWH636+cvZ7J2cvd59HhPcWfnGB20gel8e77fco7VmfywOSA5JpkexgumvhAtMcmYBOzMRUNWU1WvMUmN4g2PhexYvhk4TXRHdqb3PtQ26pjwsqCdMqh1F708J1XeI2+i2B6gtl7wYv5tiEvadUh4LXC8C6Jczzb8yfk0fAUSnHKlc4gIFxx4kszkMAxcBIeg+UwnGd4PoOjqNMyaryL8eKnusOhIdMKpa9je5/E4Q+P+6CHntVzv5B+DxL27U3WXu4+H90p/srxzcGe7esv5cmONjj5pKONHo68onwTsr42aSrf88PPiYZWxNvFJwiHPnl73aojfvQma/zVUx34WwUYmw4eTdSb4CaU3uu8CMaPcn2QMyBXqF+UG785jPRMf+WX9PXFxVyDn/KN9xyG7fnj7jBSCJwN1djZYOXCxNVgBoBnFEGHeA6jh1V8scopsY/u8OgdZupAvBksw8w6KoPTIYzua1eewWA4B6D9d+iqfPwkJ9Q+H/5BYTrer5xTeu3l3i2v/ikLvdgAbaI18eBNKPtvfaE/4ZpQ6ET5YLLqe2VNRGXxNFHllU9+vHvd8M76o09eelUvKGST5AWjS255PNKTTh2v2+rfjKd4hWnHcNVVPghvbLpwCeSpNxn7cmVCDiYdF/0Jh4He/MpheNKTw+jRcHVUXxDPDA9lS5JAFdYJKixWvofRz45ob9aAYwiHoK/Y/qbAIajbSw6B4kWHpjyoy5bj2XTIkLPuPLU/G/6Mz/iM5TB8Ut+n5XWYTtjrvuRetGnKghdOGVhZNPu0vKA8mgnDg3OAho93Cbn42fNnW3aYMTzYZM5WcDNdfvJL41PmymrffTeHMft0ypfOYUx9TJrpKOJHI2aH8hPu5ctP3DLXRd9tnTdNeNd0No5wcV/IuNM42JdNOdLHHEZ1gMpzENoqdOHUtuSBovomvbTHExz4e9LTltxfLFhxx7uEbj97XS/x23LqwdbCSbqAs+Jjlc5yLPITt8+jcWu1f7zyWKxPyjtNthRkMPUwIKMZVDpweeoNvzz/xeAiCy0ehnP4yWl88Ad/8DoA9Vd4fTJvdg6d6iD42jV1hQuvnkI0e6gcLiitjglrT7AJI1/EH9+so/Imnau1yGYm+NzaWR1YzVm5oancZE3O1HWvMxq6HdMDLnxw6pmsSTdtsMfveeNf+hlLGyKaWbbHKctNHJsAx/oSj7Dqupm8/M1pHCuLaC9z0kornxN8lsdbeWXwYvlsrE60rdj1kTlhNeFhxS/8wi9cF0rneVbb9xoe6grjXiqtYdHu8xosZCDQgM5peFPPeYZ70k6OGQQNvgYu/pZ2cOpIHjqHn2+8OQxf2mYwTsPzGM973vPWn9cwqk/ntV/Em56zw8gyUSoDZ0wnOhTDgZNWOVzlOQcTvmgC76+4yQkmc8rBwwnkDHIayZW3QggPiujTi00FtsiWNzG3TtBwTxa41zW9muArf+FoKgvGe8yxsPOdwr78UtZmv8Kkqbyy4KQJ96iEmxiPEkzHoO8FMsPD+eC0b8HYin/2Z3/2Wmn4erqxfq/hCXcYFGWUGtmElIevzARyfuEZem+1ej7jVdsTbw1qxokWlC8yWg6kq6YyDoHTYER/ZHPjxo313xz+wMe/XnEcViLokgXSjT6nJrBJ1oSPhp6llZmsOZFJT3Z5NHjwTv4pB2220+7CTCufcpMfPh55ddY2dORMWdq/D7N8X/ZkzK8W7NuhnTtla+tli/c8F/S1P7gTc5ltDF0iLhLGvFh9yQFX3PplwRhHP0M99WLFjN/YqN8ir17j2kWRw3jR9h0YaQ6jb8tEfyf4pHEYGqlheUR5A5ihGBO+j+54EvRHf/RH13mGQ1FXR7yXRt94ltG2lsNxFia+4MppQiT3jS3Ttpdv7OX8kY/DT6sODqPtCf5L2ZsMejXpdVBXanUWK5+TPlplRbLwyIPlkxP/hMmOHs+x0ECZZWvgXQzE8DlU9LN+tAVlApiMyp4MMP2O6TLbUfmd6NHEc4zu0oE8KqzUbTA5s2Av09ia4ysecB+TM2XoPxc1wdjQh8rxGiMCGs9cfORHfuTaktiG95Rnc2MR3uXncXcY6ZNR5DOKRmYIDY0GToNdZTmN3jdxu5Xz8KUuNJ1NkGkJznjh86Lh0eh4yzkOQXmrCVCevNmReGZIbx0kHSzdhA4qjyZYG5O1h+qLbw+jRaOdYvLgZpj4mUaDTzuFZEajTEi+9J4G7okM6ZaudEn/O6XTOf7yk2fKqXzvMNoSsGH0E0oXk7GHU/dZlpypY+lgsoPmijEsb7wbN8ayrbcHFV/wghesv8N0gXR+0ep71nsq/aRwGCmXcfZwlpt8VhW+m2Fr4kzDp/6sMvB1gDNXEgyYUVzlGfDSEejMrQLGr171zQmEXpm4Ogn9NjhKo+9anIzoV9kFnzSeYyG+WXavtEuPTS6YnAUv2kZm+FPyj5WjXbIv4Ja5ZGeTGU7xT5rHKj3bXx1Tn1PpaOMvD8YTnGX7tLFijN2Lw9jLU7ewfi/Se5pVvpVd0l6k93rrE5EurTg4DM7C9trdkc/5nM85fMiHfMhaTVtBmxfok72UucPPE+YwjumksVYFQo3ICByFoPFO8/tzIA92+X8TTsNJvwMcjbcawcP4IhxIno7NUHXOLI9nQnyXtBTRaRcQ2AovncbK737IVy8oCkFyW0pOtmO0ytMj2klXGbjSO72qE+9MRz9xyZ9wXy4f76pvEj+O6b1es+p70WvPfzeeST/Ts17pKWem4wHFyz8jv+CJNriXFT+8sbxfQee8zAHbbI8N2I585md+5uH5z3/+WoGYS8Kq/2JsLsQdfp60DqPGaLBowmoYz2lycQ7eN+EsHIR6RsOToQyM9rX2clsaz8oPGZzR3mGwUbzB7Ca/j5XVcdN5oJ0BzT4qjxd9zm3yTZo9/lgdaMLvYfzVeQnxDL7o9jB5l3wXbYpuOtRwTxaYzumzz29Gu9m/EdwF1tdB5NlHesqf+NLxoZsRr4Au2j28SXHrr7HcnQ4rCmPJ/LEtcajv8W+rC1sRz17IV0fzypzgZO4WnjQOowakMENqjC2EMo3RKBGeYbzJ91d/9VfLafhkmW2KW61uw25M61V3xsRvxZFxklXHKlcmCvKCcvVFFw0YDTpXB6/VR1fZHqI9FvDRKX408UYvH26mK9/DaPf4WUcDd09TPhnB8GBygvei0+R/vNL0K6Z3Opf/360/10Xpot/vpFu82S4Yz6wLLrsEL+kkLnSTnDaeaWUC3GXdg6/6PCpg1LqYGvO2IJ4zcrDpXSl3Rp7znOesw33bdnRdpIw9F2Jj/W7hSeUwprIMoUHuDjBWzgJeXhlnwnF4kOvlL3/5OtOQ9syGSY22vdxtZxcqa4CMDiA7h4CfMUXhmMNAI+ZY8Beky+9hNODkDx+9/F5OZcH9oE1GMDp5de3DMVw0k3emK4/3WFk0TySkX5EeM12e7vXtMV1n22pvvNGH38vHO2P08aM/VT5pSyd/1md8WlFwFFYVbpVyFjdu3Dg897nPXZHTeNaznnXpFBrj6jZ28T6uDkPFM9SgibtbmgwNEeYknbKnXHie0j+p2Zp4NsMhqI+MtDQjJx5QPj5XFuENN2PZAypTP5liulQ/WMSXPDAa+HsJ6YR2yjzGezfZXECHsMnbwzvJmLrgKx9M1t30RPdEhakrHWZ792XH8ntc/LW5/Gzfnqcy+Mri3+skH018Ex6rr/I9HyfhANPjAByFLcezn/3sw43NYVhhwHlMAF0r9lYU6jHu9N9NUgAACZVJREFUu+BVxyn40FYY+wbuG3VKgYk3Qa0oBB5PQwT4lk/kwlcG73sBDkE5DSsNWxPvm7hzgjejLMNwCpuR1KOMPN7ZHlA53HQY8dPjWBvTY1+Gfoa9PWYe793471R+Lw6DLmRUb3DpeFE/lw+/5G1wy1zSp+PUY6aXnCfw55b2bHoc021Pk7rw9WO4+Pew8qDy+CdsAsLto7omrbQwYeVoySqWTwY6WwwOwW1SfwPqhTJOI0fhCU/zia625ng4DzILySt/Cj5mDqMKM0L5O0ET1e1QwQSeB595xgwHmszwJj/H4SU1/9ng+Qzf0rDycJ5B7uqAzVDOGhhu74CUi8pyEtKnQmW1Lxj+FN8xPF7tScakSR54Kr2G2ybjXoI65uCQn3t4eZKWLtIXcdatnvQJfy91PxE0qx0XFZ9KK649ex3jCVZeu0H2dMU2XvVj2wOTVDp8y36wMvT4yVGHfDLINLGtfmeEE5PtYJPDsBWx0hA5Efxkkl+fl8crGOvhwLuFJ43DYDATmwcUGIjh4DVKmXQGzsgchobqAC+k+bKyuya2J7/zO7+zVhpuwwqXhtnSVhnhqmMhtp8MBz9D+Ilb6Qu6Sb3nRXeKH167TpVfytrqUUf54NLh4mfiZjrZ4Bw82NCxsSjkgCbPKth+kgnOdOVPBKTnGhcb3Iy47AhXW2d7SwfpG92eh8zGW+loZjvJMjlzBNIzn3OYOBM+PH62JLt6TGj0d3IY+NG7uPqmhTkDlzz92YWRfHhywQKa2f7wp+BDdRg1elZGmbsFfBqW8hkOnqMQNBJ+ylNeUO7cwl0Sq4tXbK/D+6sCTuNvt0PQRdsgAi+MBi82WaqHXDixepRVnh6L/4IuJ5ROYHSlZz5cOsgfC3hWVLil7xSSNeGkr/5kKgsnvezAJjJXCOp7ooJJYLKA2qKPTCT5YpOzCRlEr6wrMl75JmsTG4RLHv7GAihWFj8opkv5yqPHW6gvaseUnc5BNKI8mclp3JKpDL7+mTRw8skB7xYeqsM4Vtm9KEFxDkPQwHg0PIfBuDUWfQaosfLRex7Dcxm2JpzGq7aX1GxNWo1kcPWpN2clnwGlkznrqjwdle3p4gWjm7B05fjpUD3wwuq+i0GBp7jK9p1Lj60gfYJok3s5HC549/LRsuHkhdvTpceCysegW/TJHzrHw37FcPXHtG1lwVlWurpMFstyE1oZeU1GuCYqXBOrOslHw2FwCvHC5SSki8lFp650IWdfd7Kinfm9HG2pn/ZQmaCOY3Ahtx98+q/xjL72JhNOGo0w9V+Iu/w8NIdxl3ruWjwbFDHcxGcw5RMv3YRjAIegHurqb+UcgvbHL2TUceTYAnUAKi+gqa5Zz83Sm7/hw+3p9+XoopnypdE2UZMXnJN1yrgsv+B3DpHDqGwPbw63DbvxFKRaG6RzEM3SFbyYHGxXVNYkabJd8owy9AauSdLEaxIrg5tX+OQHm1wTKmuw43ewlw7xVUd1h4+vfgDRKK9NaE7FyVd7g8qEY3VMvn05nml3+buF6kJXmozirG8va9YV757mWP5J4zCOKXevOJPNpGcEHW9V4g4JJ+E8w6f9OA93UuDRGhz4OIzOR/ZGzJBrCFwMhK2S2yZmHUPfZASPtWHSS6MtnqI/hofb8ydb+wzKJsmExyZCfMksD8aLz6RtAkrDmbDtnyd/fPHkLECTOznyc4WQ3skHkwEmF6QfXPVP3vjQha9d9CyEA18fQ/o/HrpfC4dhwju/MOkMRIPDisOToJyEt1vdcnW24cM7/t+hOytd2Y9N8DmAchrBOgdNk33KmOlog1NuuOAxvjvRTz50oonCDiaiA7GiSVVU1oSShpfHz35Fk83ELqItjV65ukx4eSE9pgx0ynMS0srDJyt+ZclJpwkrWxVuP/pRiI9cMR3CL6Jr9rO3xWPZvGvjMKwUTDYD0kBhRE7B2YXX3z0B2t/NWXlwJu6ecDbONsT2dccMTp4AehR85S+gdBNdutggDcLPtLzQpJll0sX9wA9fPcmNnw1MbBM5ZzEhvGiSijkMfMmsznRDp3xG9SmHIx+NkIzg1Ld0MN2jXQLu8SebcxZtSZNDfrLTaS82/uC+/PUlX5sfD32vhcPQ4Q2YrjQZT5lnO9xy9cWu/m7OGYeHu3xfw5/HiD0DEu8e1jEN9galSVOE20+yJlswWhC9CesKbRLHaxLCN5mb5PLSysmb9Omz1yEa9GLl0VcuX6itQWX7WBlIBigES+/zi2j8KE+XU5M3fBD7TJNRVFadQbgZ8E7+Wfb6lp7tfqx1vxYOIyN1pclpMKSBLG+1YVVhtWGbwmFIe++EMwHXS2sJOwGbNOSWNgmbxPAiXJM+GE5+8uPdn9LHk6OwZZDOiYDkVR96+hQaRE3E8hPuaZWdmkTKCvv0KR700U4a6RnRTN2rZ8L4g8pK42eH6pp8k27iqz/cKd7Kn8yQ7o+X/tfGYewHQPkgg9p+2Lo4+OQ8rC48t+Guiu2JbYkQT+k6o8k3JzucyWrCN2mbxDkIsDh5p9zwcPt6kgdWHk0y6FwIB56K0YLRT9yd0pP+WL134lWGhxPPzlPHeGcd4fawuuOf5ZXB3S0d/73UOet4MqUfL92vhcNo4OnAOj9c5xJNNjRwHZT6roatCGcxB3GDDExm0GQtwnEGVgAchnxlYJO9dDLAGaoPbl92Chc/Xm2i/+StrvgrC8460dTW5MY38/v0Xsa+/JgMPMVJn157nvB3qisavJOudHDWVxrv5A//+gQfL/2vrcPQ2QbJfqBMnAnGcTTZZtmer0FVx0wonUPa4+WLdJLe1wPHoRTkrxqmzHjvJqc2xgviiW+fTu4exr/Hl09e+VMwffbl8Z8qRx+N9J5Ofpbv6eVf38O+fY9Ve66lw2CsBs00JNwp/KSb/NKzbKaVFZIrP2lmWll06QKi4TD2tOiFeG7mHv09hY9iyis9eUqDRXTRznQywfgmbqZnebIqP5WfPNHuYTTByu9Vz1n3TJOzl5ns1xe4b89jpfe1cBiMU4eDVg4tz7vyTwNGE1QW3THDT1z1JE9+RrT7iHbKkN/LuVN58vd8yZgwOXsdypNRiG/m4w8nHx3IruDEobEti7cyMkpXtofVcy8wWcHJQ26yw5+iq/wMr26Ba+EwDIwiE0jnMFy598v9ynMseDiM6PYDT/kM+AvVG2zgToj2TjKTF0z2hJUFlZWesHpm/aWPyYObPJNmptUh3slhsF+64J1p+erZp+X3tHBXCVP25LtXuaf4p6xz+nD4/8ESgDgLfFdDAAAAAElFTkSuQmCC;" parent="90" vertex="1">
                    <mxGeometry x="380" y="270" width="50" height="48.13" as="geometry"/>
                </mxCell>
                <mxCell id="88" value="" style="shape=image;verticalLabelPosition=bottom;labelBackgroundColor=default;verticalAlign=top;aspect=fixed;imageAspect=0;image=data:image/png,iVBORw0KGgoAAAANSUhEUgAAANIAAADCCAYAAAA8T5zZAAAMP2lDQ1BJQ0MgUHJvZmlsZQAASImVVwdYU8kWnluSkEBoAQSkhN4EkRpASggt9N5EJSQBQokxEFTs6KKCaxcL2NBVEQUrzYIidhbF3hcLKsq6WLArb1JA133le/N9c+e//5z5z5lzZ+69A4DacY5IlIeqA5AvLBTHBvvTk1NS6aSngAI0ABWgwJDDLRAxo6PDASxD7d/Lu+sAkbZX7KVa/+z/r0WDxy/gAoBEQ5zBK+DmQ3wQALyKKxIXAkCU8mZTCkVSDCvQEsMAIV4oxVlyXCXFGXK8V2YTH8uCuB0AJRUOR5wFgOolyNOLuFlQQ7UfYkchTyAEQI0OsU9+/iQexOkQW0MbEcRSfUbGDzpZf9PMGNbkcLKGsXwusqIUICgQ5XGm/Z/p+N8lP08y5MMSVpVscUisdM4wbzdzJ4VJsQrEfcKMyCiINSH+IODJ7CFGKdmSkAS5PWrALWDBnAEdiB15nIAwiA0gDhLmRYYr+IxMQRAbYrhC0KmCQnY8xLoQL+QXBMYpbDaLJ8UqfKENmWIWU8Gf5YhlfqW+7ktyE5gK/dfZfLZCH1Mtzo5PgpgCsXmRIDESYlWIHQpy48IUNmOLs1mRQzZiSaw0fnOIY/nCYH+5PlaUKQ6KVdiX5RcMzRfbnC1gRyrw/sLs+BB5frB2LkcWP5wLdokvZCYM6fALksOH5sLjBwTK54494wsT4hQ6H0SF/rHysThFlBetsMdN+XnBUt4UYpeCojjFWDyxEC5IuT6eKSqMjpfHiRfncEKj5fHgy0A4YIEAQAcSWDPAJJADBJ19jX3wTt4TBDhADLIAH9grmKERSbIeIbzGgWLwJ0R8UDA8zl/WywdFkP86zMqv9iBT1lskG5ELnkCcD8JAHryXyEYJh70lgseQEfzDOwdWLow3D1Zp/7/nh9jvDBMy4QpGMuSRrjZkSQwkBhBDiEFEG1wf98G98HB49YPVCWfgHkPz+G5PeELoIjwkXCN0E25NFJSIf4oyAnRD/SBFLjJ+zAVuCTVdcX/cG6pDZVwH1wf2uAv0w8R9oWdXyLIUcUuzQv9J+28z+OFpKOzIjmSUPILsR7b+eaSqrarrsIo01z/mRx5rxnC+WcM9P/tn/ZB9HmzDfrbEFmIHsDPYCewcdgRrBHSsFWvCOrCjUjy8uh7LVteQt1hZPLlQR/APf0NPVprJAsdax17HL/K+Qv5U6TsasCaJpokFWdmFdCb8IvDpbCHXYRTdydHJGQDp90X++noTI/tuIDod37l5fwDg3To4OHj4OxfaCsA+d7j9m79z1gz46VAG4GwzVyIuknO49EKAbwk1uNP0gBEwA9ZwPk7ADXgBPxAIQkEUiAcpYAKMPhuuczGYAmaAuaAUlINlYDVYDzaBrWAn2AP2g0ZwBJwAp8EFcAlcA3fg6ukBL0A/eAc+IwhCQqgIDdFDjBELxA5xQhiIDxKIhCOxSAqSjmQhQkSCzEDmIeXICmQ9sgWpQfYhzcgJ5BzShdxCHiC9yGvkE4qhKqgWaohaoqNRBspEw9B4dDyahU5Gi9H56BJ0LVqN7kYb0BPoBfQa2o2+QAcwgCljOpgJZo8xMBYWhaVimZgYm4WVYRVYNVaHtcDnfAXrxvqwjzgRp+F03B6u4BA8Aefik/FZ+GJ8Pb4Tb8Db8Sv4A7wf/0agEgwIdgRPApuQTMgiTCGUEioI2wmHCKfgXuohvCMSiTpEK6I73IspxBzidOJi4gZiPfE4sYv4iDhAIpH0SHYkb1IUiUMqJJWS1pF2k1pJl0k9pA9KykrGSk5KQUqpSkKlEqUKpV1Kx5QuKz1V+kxWJ1uQPclRZB55GnkpeRu5hXyR3EP+TNGgWFG8KfGUHMpcylpKHeUU5S7ljbKysqmyh3KMskB5jvJa5b3KZ5UfKH9U0VSxVWGppKlIVJao7FA5rnJL5Q2VSrWk+lFTqYXUJdQa6knqfeoHVZqqgypblac6W7VStUH1supLNbKahRpTbYJasVqF2gG1i2p96mR1S3WWOkd9lnqlerP6DfUBDZrGGI0ojXyNxRq7NM5pPNMkaVpqBmryNOdrbtU8qfmIhtHMaCwalzaPto12itajRdSy0mJr5WiVa+3R6tTq19bUdtFO1J6qXal9VLtbB9Ox1GHr5Oks1dmvc13n0wjDEcwR/BGLRtSNuDzive5IXT9dvm6Zbr3uNd1PenS9QL1cveV6jXr39HF9W/0Y/Sn6G/VP6feN1BrpNZI7smzk/pG3DVADW4NYg+kGWw06DAYMjQyDDUWG6wxPGvYZ6Rj5GeUYrTI6ZtRrTDP2MRYYrzJuNX5O16Yz6Xn0tfR2er+JgUmIicRki0mnyWdTK9ME0xLTetN7ZhQzhlmm2SqzNrN+c2PzCPMZ5rXmty3IFgyLbIs1Fmcs3ltaWSZZLrBstHxmpWvFtiq2qrW6a0219rWebF1tfdWGaMOwybXZYHPJFrV1tc22rbS9aIfaudkJ7DbYdY0ijPIYJRxVPeqGvYo9077Ivtb+gYOOQ7hDiUOjw8vR5qNTRy8ffWb0N0dXxzzHbY53xmiOCR1TMqZlzGsnWyeuU6XTVWeqc5DzbOcm51cudi58l40uN11prhGuC1zbXL+6ubuJ3ercet3N3dPdq9xvMLQY0YzFjLMeBA9/j9keRzw+erp5Fnru9/zLy94r12uX17OxVmP5Y7eNfeRt6s3x3uLd7UP3SffZ7NPta+LL8a32fehn5sfz2+73lGnDzGHuZr70d/QX+x/yf8/yZM1kHQ/AAoIDygI6AzUDEwLXB94PMg3KCqoN6g92DZ4efDyEEBIWsjzkBtuQzWXXsPtD3UNnhraHqYTFha0PexhuGy4Ob4lAI0IjVkbcjbSIFEY2RoEodtTKqHvRVtGTow/HEGOiYypjnsSOiZ0ReyaOFjcxblfcu3j/+KXxdxKsEyQJbYlqiWmJNYnvkwKSViR1J49Onpl8IUU/RZDSlEpKTUzdnjowLnDc6nE9aa5ppWnXx1uNnzr+3AT9CXkTjk5Um8iZeCCdkJ6Uviv9CyeKU80ZyGBnVGX0c1ncNdwXPD/eKl4v35u/gv800ztzReazLO+slVm92b7ZFdl9ApZgveBVTkjOppz3uVG5O3IH85Ly6vOV8tPzm4Wawlxh+ySjSVMndYnsRKWi7smek1dP7heHibcXIAXjC5oKteCPfIfEWvKL5EGRT1Fl0YcpiVMOTNWYKpzaMc122qJpT4uDin+bjk/nTm+bYTJj7owHM5kzt8xCZmXMapttNnv+7J45wXN2zqXMzZ37e4ljyYqSt/OS5rXMN5w/Z/6jX4J/qS1VLRWX3ljgtWDTQnyhYGHnIudF6xZ9K+OVnS93LK8o/7KYu/j8r2N+Xfvr4JLMJZ1L3ZZuXEZcJlx2fbnv8p0rNFYUr3i0MmJlwyr6qrJVb1dPXH2uwqVi0xrKGsma7rXha5vWma9btu7L+uz11yr9K+urDKoWVb3fwNtweaPfxrpNhpvKN33aLNh8c0vwloZqy+qKrcStRVufbEvcduY3xm812/W3l2//ukO4o3tn7M72Gveaml0Gu5bWorWS2t7dabsv7QnY01RnX7elXqe+fC/YK9n7fF/6vuv7w/a3HWAcqDtocbDqEO1QWQPSMK2hvzG7sbsppamrObS5rcWr5dBhh8M7jpgcqTyqfXTpMcqx+ccGW4tbB46LjvedyDrxqG1i252TySevtse0d54KO3X2dNDpk2eYZ1rPep89cs7zXPN5xvnGC24XGjpcOw797vr7oU63zoaL7hebLnlcauka23Xssu/lE1cCrpy+yr564Vrkta7rCddv3ki70X2Td/PZrbxbr24X3f58Z85dwt2ye+r3Ku4b3K/+w+aP+m637qMPAh50PIx7eOcR99GLxwWPv/TMf0J9UvHU+GnNM6dnR3qDei89H/e854Xoxee+0j81/qx6af3y4F9+f3X0J/f3vBK/Gny9+I3emx1vXd62DUQP3H+X/+7z+7IPeh92fmR8PPMp6dPTz1O+kL6s/WrzteVb2Le7g/mDgyKOmCP7FcBgRTMzAXi9AwBqCgA0eD6jjJOf/2QFkZ9ZZQj8Jyw/I8qKGwB18P89pg/+3dwAYO82ePyC+mppAERTAYj3AKiz83AdOqvJzpXSQoTngM3RXzPyM8C/KfIz5w9x/9wCqaoL+Ln9F8ljfFELuSR2AAAAimVYSWZNTQAqAAAACAAEARoABQAAAAEAAAA+ARsABQAAAAEAAABGASgAAwAAAAEAAgAAh2kABAAAAAEAAABOAAAAAAAAAJAAAAABAAAAkAAAAAEAA5KGAAcAAAASAAAAeKACAAQAAAABAAAA0qADAAQAAAABAAAAwgAAAABBU0NJSQAAAFNjcmVlbnNob3TDyHJnAAAACXBIWXMAABYlAAAWJQFJUiTwAAAB1mlUWHRYTUw6Y29tLmFkb2JlLnhtcAAAAAAAPHg6eG1wbWV0YSB4bWxuczp4PSJhZG9iZTpuczptZXRhLyIgeDp4bXB0az0iWE1QIENvcmUgNi4wLjAiPgogICA8cmRmOlJERiB4bWxuczpyZGY9Imh0dHA6Ly93d3cudzMub3JnLzE5OTkvMDIvMjItcmRmLXN5bnRheC1ucyMiPgogICAgICA8cmRmOkRlc2NyaXB0aW9uIHJkZjphYm91dD0iIgogICAgICAgICAgICB4bWxuczpleGlmPSJodHRwOi8vbnMuYWRvYmUuY29tL2V4aWYvMS4wLyI+CiAgICAgICAgIDxleGlmOlBpeGVsWURpbWVuc2lvbj4xOTQ8L2V4aWY6UGl4ZWxZRGltZW5zaW9uPgogICAgICAgICA8ZXhpZjpQaXhlbFhEaW1lbnNpb24+MjEwPC9leGlmOlBpeGVsWERpbWVuc2lvbj4KICAgICAgICAgPGV4aWY6VXNlckNvbW1lbnQ+U2NyZWVuc2hvdDwvZXhpZjpVc2VyQ29tbWVudD4KICAgICAgPC9yZGY6RGVzY3JpcHRpb24+CiAgIDwvcmRmOlJERj4KPC94OnhtcG1ldGE+Cq2/aD0AAAAcaURPVAAAAAIAAAAAAAAAYQAAACgAAABhAAAAYQAAJ/xOyuwQAAAnyElEQVR4Aex9aXcbR5blS+wAd1Lcd4mUSO2S7bLcVa6xe45nqrunv/T80vnQH/qc7nZ1VXspl13WvnETJVIkxQ1cseUy9wYQFAQCJEAiAZBCHKVAJHKJjIibb4n7XhixWMyReqm3QL0FTtUCRh1Ip2q/+sn1FlAtUAdSfSDUW6AMLVAHUhkasX6JegvUgVQfA/UWKEML1IFUhkasX6LeAnUg1cdAvQXK0AIfDZAcxxH8Extb3d9fhpFzxCU8hiEeQwQfH035KIBEENm2LabliGl7xLI/mv6tyoP6vIYE/YZ4PVW5fVVuei6BpCWPpYAjkjJtSaYsSaQciac8AFRV2vrc35RSyKtAJBIJeBSYfD4RAuu8S6hzCSRKHAWahCP7SVt2Y7Zs72KL27IfF0ma535MV+UB/V6RcNCQxhC2sEeasDVHPBLG9/Muoc4VkGj/UArtA0Bb+7ZEAZ7NHVu29tLbLthQsaRTU0Binc9L0UBqIJgAopYGj3S2eKStySOtEQOA8oif0ukcqnznCkgpMw2i9W1L3qxa8nbdkqVNAApASqZETEgiaHni1IiNBMyLqey38wElpdrhvwDUuYBfpA1A6mnzSF+HRwYueKSr1StNEa+STufjid8/xbkAkraJqMKtblmyuGbJ3LIpi+u2rG05sgsJpbx1br39j7tuAe8V60QHiKt1e9/XFfuLgKJdRMnU3iTS2+6R0W6vDHZ6pa/dJ80AGG0pHndeyrkAkraJVqOWTL01FYgWAKbNHTgaMEr5O8FW7sJLqused20MGLqCc8eNPv+0QNLPpj9zn1O7ofVn7u/6PP2Z+3up39Wz4mHTEkqkJWwoqXSxxysTQ34AyysRgMzvy22RUu9UO8efeSDRtU27h3bQ63eWPJlPyTw+17dFYvDSsTMLDaDTdgMHntqOuRCHix5cuYcqDBZ5ndxz9XddD/0991Pf/xCSMwced37u9Yr9riVuAIBpg4001O2RG6N+JZ06mr3KjnKzf4qtZzmOO9NA0vND0V0LILJlesmSZ28seRd1lCTC1JFrIGLj6wGowHBEb+iBnAtonsdrcIb4uGsUuryuQ6HfuV/fPx+Qijn/qGsf9dvB8+EgAuZCsyETA14Z6/PJaK8P39P20nmYbzrTQLKgsyWSlixDpSOAZt7a8moFHrp9SCJ4hnIH7lGdfpLf9CA8DgR6IOfWp9jzC9aNAORW8ID0D/r+h4BU5PnHXP7Yn7Vkolu8H46HS71euT7shwPCJ42QVHSNn/VypoGUwBzR9r4l8yum3J8zFYg2dwWTru6qdLrTiwWCHsgfK5AIdLaVDy+3cAAqXqdH7oz5ZQxSiZ68BthQZ72cSSCxU/iW28Fc0fKmKbNLpjx8ZcLd7UgCLnA6Fzho3e6eOpBKG/4aUF0thtwa9UHN88lIjw/zTF5XbdnSanmyo88kkLSXbg2u7hmAaAaeOtpHG7vsqrSq4zaI1H1wOwUmddfC/7EuCtg5lSoWiAWvXOL9D71Zijy/4P1L/EGreC1gO1zsMeRyv0+ujQSUF++sMx/OJJCSUN3IUlhYN+XJq5TMLluysunIHrx3lfQCFQuEOpDSiNNACsEmam8y5BLc4Xeh4lEqNWdsJSNX/y0RrNU6/EwCiRSgjR06F0z5ZTolb+Cxi0OlIxm1kv1QB1Jpw5b6AtuMLxZ66vo7DPl03C/jkEx9mLRtgqQikM4imM4UkNgJfKttgUP3ZtWUl4umPJhLyQrc3ZUEkB4+dSDplijtU0umDnDwrg56MEnrU2peZ4s3w3jI0YFLu3xVjj5TQNK20fJGeuKV9hHnj7ag5lVSpdM9VQeSbonSPrVkigRFOjG3RIn06eUAvHnpeSXSi85aOTNA4uQriac74NPNr1hQ6ZJwd1sgpCJkAmpdHUiFh5620artbMitoRdhF0EQXEfAw7t3JSBj/V7FGKeL/Kypd2cCSAQRt724A1KqDT4dgDSVlIU1urrTpM+6apc7TN9/r1UgacnU3WrInYt0h3tlqAshF41wh2NG/SyB6UwAyQaIGGe0gdiiWTgYXi5CtXtjgk8HSVQBBsP7IfnhX6hW3f39YZOU9E3bSvTYjQBABNItAIqkVr+PYDo7Kt6ZABJDDRjxyhgjSqJp2EZrW4Lo1+qodHq01IGkW+Jkn1oi0YMXRPzSeJ9X/uetIFQ8n6INnSVbqeaBRJUuDsBE9xyZhpfuxxdJZSMhBYMwMI4qXbXeW1UHEsavrsNRQ7lWVTtdZzqRUuhMUoe+uhmUa/Di0aMXATfvrKh3NQ0kbRvR3f0KoRHPoc79OmvKOwTrkbdlcNO9UYVPPYj5Zj2q6IGca8cVe/5R1+Zv+jqFjtP3P9RYRaqmha5brv0aSB2NcIcPedU2MehFmPrZsZVqHkiWhXBxuLt/nTHl+YKliKk7cDowxqWa9HsFniMG4gcAx5d8klMD4DggHjdg9XUKHVfrQNK2UgjeOoZaXOn3yL0JMB664A4PcG4Jb8waLzUNJOaiS6VSMgWV7t8f0MmAOCOodGz4ari7dV9y4HPwFoojOhi4+gQCSf+d9akBcBog6WtkXfbQnwf1ya0EbqzOP3RGZXfo9qRTiX07igDAb277IZn8oA4RTHUgnapH9uMgom4n5enrlHz7CM6GNVsZodV+QenBWwgAeuDmqnLZjaHOxX+nGshFnq+kYS6IWJkiz8+ut5t/JzEfuAf6VzcSpvzdhE9ujjCa1ictUPlq3VaqaYn0DgF7j+YSCNojw9uRTQTswSuqpJGbHXrctU8LJIKI1ygk0Y67/8HvRQChIIh4kSLOP7hXBf5ghid6Z0MBJEwBmOh0+PJ6QIah4hFItQymmgQSQ8TpxXmFgL3/fpyAamfJNmhACaTTqqZKp8dSsUCiPpdXEJRrAB9znSNBxIc55nz9vJX61LYSqqXsX7rD/3A3IBODfiSeRE68Gk6WUpNA4ltpB5GvLyCJvn0EKhD4dHpAcnBUuxwHJNZPVRP/qcGcU+Fizs85Jf/XI4BwLIh4xSPOz39Dd/cSQGwbvkQ5Bvo7vPL1Db9cH/FJD9J4MXNrrZaaBBLd3fPvUkql+3nKRE4Gu+peuuwOLBYIBFO+Aa0HjFuqnb7vwdsnu/LZf9cYkHTVCCSGyjBD63W4w6/DVrqJ7EPdCEuv1VKTQGJOuh+fJeDuTiEjkCgDtBZUOt2JpwUSr0MwnVoiFADCWQcSVTxyKHWSyUmA6Q+fhFT2ITZbLZaaAhKpQMxRx4C9bx8mkIvBQlotuLux1VIpBkgczJQI+VQ7/uQmkNStM/fm34WKfo5Cv1d7v56oZWLJP3xCxoMfufCQErkGsw7VFJAYIsFYo+cLpvzwLClvN2rDS5c7oPQAVGDI/RHfsyWCAlTOMTyP13BLtdO3y1Yr1f3wA/ex6GdIf6vN/zWQupCI/zbIrPTijfX5pb259mylmgES6UAMkXiEHAzP3qTk5QJWkkD21GozGDjEOPg0EZlqBzcNhLxDEMcXkkQ8PhtIec8vcuex18nUQ92TB6NkAyktFtP7P/wfEccK5ZmTPvyxLN/UlY+5PBQUlT6AnLueNq9MAkhfTAYRauGrCe9tdkPUBJA0p45JTP7zfkJegArEiTmyGGrBNlLs5IzrVaf7OnIgcABnt3Kev488P8/xhXYR1AUBUVQlDl/ZEFs8timGS8t2sMpU17WUPFyD9B7+rl5aIFXaiAIcH/DL//kspNzhtZZ1qCaARFfnLtzdJKX+x4O0u5uDV789CzV0pfaHfI60RGys7cMo3XTevErd+6j7KAzxv3IX0LKM+J4YyYQa7cZxI77E+yupXgSQ9GVTtiF7plf6u/3y97dCMjkakeaORgkyVr1GSk0AaWMbUa+LKeWle/LakjUE7NUSkFpCpgx3JKQ5aKXfkDXSeaoaAFK5seTs7oq58k5ke0c8ABWiKsv+xKVg03YMrCNlSBMiZwdBGeq/1CV9N8ekqau97PU66QWrCiS+mRj5Snf3X18mVVagd1XIT5fbeFql8HkcrIUq0t1iyuWuuLQ3nO81MxUNByHHVnRL4vOvxV5eEu/mGqRTDCErVBGqa+RzPdogGOKtowPS97vPpWl0WLzBoBhM/lDlUlUg6RX26O7+E6hAs0tYWQ/Aoremmmod708CZWPQkYF2R0Y6LRnvSUl7I344x8WDAenzBcTc2pLduRkxp5+L98UD8RBMAQxYEh2rWAzbEsNMSXBoRJq++kbCkzck1N4hvkikirVK37qqQNLu7hdwd//lRQq5u2HkVtk2oppkA8xcCb2zyZZrgw5WT7Clr82W5vA5B5InA6T9PdlfWpTUi8civ/y3eN6+UfkTDO35cfMtp/XUPI4SB2uXOrDbjK5+CXz6ewldvyMNY1ckADBVm9BaVSCtbFryYDYJL116JYkol2OhxytPI1bilcM+pFpnOHjzOUkZ6rARYGbIcCfTRtmw23QvV6I2lb8H+NVKhXNgE9mJuJjzs5L6y5/FnpsSz+42pEESUgnJFfi2c6nQg8uSFxhw9TkWvIkNzeLtHVQSqfHvvpLQ8CiqVN1Qi6oAibYrPXWv3kESgQrEBPhbyE/HtMMEUZVwpBwJVOtCXlNaQ3Hkprbks3Ev5jAya72eb4F0AA1lK6Ej7NUVST2+L9bUM3Hmp0V2t8Tww1Pmok1yJJAAMgdgMmAsecJhCY5NSNP/+F8SHJ8Uf2OjeKF+VqtUBUj7CBVfw8rj07CNfkZWoDernDOCbURpUK2WwH0JIgK8I2LKRG9MxnpsJHj3qgTvatHkjwRI7AIlEaDiGeurYk89lcSPf4TzYRG2UhgLHcHqr0bJAIlvWzoY/H1DEvn0noSu3JDw8Ij4W1qrUSt1z4oCiVKbnjomwJ9DSi3m7mbQ3irc3dUurJveeltN+c1oDDkDLERnehW3i95F/v4xFS/e/n6oUtbcS9n7479JiioeOlC97JTqUOHXHjqAEkl3hLfjAqTSpEQmbkjDjdsS6OlNe/Cq4F2sKJD0G//tuiUPYRtNI2PqyqYtO2AxVLMQIAS4H06pRqy2TS/dJxcTcDCYBwlWPjYQsT98sDtCfr+YSwsS/eHPkoRk8q4uiye+77qtlHc8EEjsiMzmiTSK70KXhC9PSuO9LyU0clE8oXC6bnkv4N7OigKJzO4oYo3mlpFWawarjyN3914crmb9lnPvOQtemRBmv/BF1wQVu78DXrpuSyYHUtLRaIHrhYQcH5FKl91QXqhPQczTWJsbsv3imaRePhHPi4dibMAd7oV6V2kXqwYSK4m/D2yl4UvS+JvfSejyVfEDWN6GhuzHqMjfFQUSQfRqGVmBYBuRwcDVx02AiNJAaQoVeeT3N9EgyrzgpAvu7ltDKawmZ2FtU07Gcs2ljxdItJPoDXNSSTG3t8WafSH2d9+K82YuzabA78qWYue5XA4kkb4PO43359xXV4+EJm5CxbsukcnrABPcrBUuFQESgUIbYxnu7sdgdxNI81h9nO7utL5dHSCpekHa0K0dxgt26IIld0fh9sZnGCoeaUofo22UbwwSMPabV2L98K1YmKi1t5EzGgA7kEz5TirjvrxAIphQvM2t4h8YgdPhmjTc/UyC/UMVZzxUBEiawTAPd/fPoAKR5R3NrD6uXmZAk/vvtMO9qm22xlCawXARzoWrAyaSFKZzRLDzMn11+OSPaA9BpCTP+hpc4U/FxGZBzXO2NuDFC2Eku+/FOwQktj87B5snHBFvW4cERscldBtAGh2rOOOhIkDai9tQ4+DuhqfuPmyjBbi7GY7A9EsEUjVAxHcZgUSQX2h0wGCwlbt7oMOSxpCtJJFNkVUvCkQKSHCH26vvxJqBvfS3H8QG+8EAG0L9pt6I7jVWXiDxdgCStpV8vUPin7wpIcwrReB4CLS1va+7e1VTV64IkNax+vhzBuvB3T0DabS+k7Y7aMNXC0SZl5nS9cmn+/yyLRe7bGkIWPDeEUiYRedB9aJaQIGFFB0wHqzXc5L8+XuxX82IEcNcE/hvboOpIJBYO0pM2HIeSCXf4EUJQsWL3Lwjwd5+8cPrSDvP7eIqkPQbfxHu7vszdHebavVxursrDSANCd5X20aML2oCcEa7Hfn0Ej124PoZgDcC2thxdSAdHn4EjPVuWZIP/6ZsJePtazH2QB/SXrzDp5Rlz5FA4h0omajidXRK4NKERD77QoIjYxIE48EHz6PbxVUgqeVY6KlDosf7s3B3Y0WJbTgYmOixkiodQaSFC+9LdzYZDC1hSy5dSMglSKLRXg/SP1FCpiFXB9HhoUcQcbN3tiW58Bp20lORBz+KrK24bisVBSR48AzMI9HxEP4EjAeoeOG+AfE3Nx9+mDLvcQlIHIw2ol5TsryeEC6a/PCVyOK6ITETbzSLHZIGU5mf5+ByCg5pTKh9BBK/8r4ORBLZ3d1NptwZTsko3N3tTYZE4Kmrl8ItoIFEBjbd4Sbc4dZf/gR3+CswHkD05amwmVQjF75M6b8Uox1k3pSsg7e7V4LX7qTd4eMTErhwQbnJ3YyncglIYKU6CQRY7sniUlQtEPZoISxvt0KYfPVDtaKBWv721j1EwKh2zQZS5kfuR+gatqQM0ja64sECVw7Y3RZm8rNO0Berf37QAgSTA9A4iJw13y5I4sEvYs8ibmnlrXgSYDwoUmv5vHjHSqLs2lHVQN08LW3iH72s3OGN129JqH/AdcaDO0Cy4+KYUdndficriGWZXXLk4fKALO60y74VRtgwDMAyA0lBIAsHBEzWV9Xc3Ee7LeQzpR3s7hHYRncu+ZEOFxLSgb7pUrKP7L4+L38TUNbGhiTBw6OKZzx7IEZ0VQSkVhVqUaYHLR1ICLMIRsTDSVqAqfHOp7CVLokfMUte2FBuFVeA5KS2xN6fl+T2lOyvPcZyLD7529pnMrs9KpuJZolbwbKySwiYQhIou+GU8wMTwx1hUyb7YspL19+JZUMagOrcC2SfWP/7gxbQKh5D0B3Qh6ypJ5L8/o9iw/EgfsTmw/HAY8pRSgIS+5BSibZSMJRmh9+8qyRTGO5wfyviYVwqZQYSh7QtdnxFrK0nYm1ze4SlKgPydPueTG9PyOvtbtlKNaGh4ZJEY5fa3rzDIVHDXfhB/cbfc4r6DT8ahqMyAfWB3X1nKK4C9xobPGrNpZxT6l+PaAENJGUXJRJgh09L/PtvxXyFmCW4x1VIOAZzOWySkoDEOuvOxifZ4YHL1wEkUIeuXpdgd494AXQ3cjyUGUhp28jeey2p9Z9BI3kKU2leduNeWYqNy8zOFXm4ekWWY91KvXMMrBFagopHoLCd8iGmEIjYtnxJMd6pATkY+tuYgwHJTHpTcgHcOr+XfDIeVS+ltICSOOgMgsZcWZYEAwBBHTIWZsWzD3e4vzyMh5KBxIdghyP8Qxrwwu4ZlADC0TmvFB4alVBrq/jg2St3KS+QMraRtTst5uqPYu1OiWFtwENmyK51QV7tjMkvq5/I/M6Q7JoNknICaRWvhKdSL5wSjuehGkhkMEyAAkR3d3+7hRwM9bmiEpvy0OEElL0VldSbeTAeXojz7Fe4w9+Vh/GAzlZAOnTXY3aww5Hg0vEGxGlCWPrgCID0iUQuAVCDQxJoboF2Uh7VU9ekrEDSthFVOnPjr7CToDM7KQgQNLYEZDE2LPfXfysz2+OyGm9H0r/0m6GURzpK8uiHyvdJAPa2WnB3J2UUQGptNBBrk+6oE3VWvpt8ZPu0imdAnROAyXw9K/GH8OJhjum0jIcTSSLd/uxsgolAxODydnZLcPI2mOGIpAU7PNjVrdgO5QRTWYCk3KFWUpz4sti7IDRCpSOY7Di8OLSDoL/RPommuqHe3ZGp7SvycnNU1hPtCmQ8xo3C9uTmA4OhATbwIFjdt4cTSLFlC1eAI7ubHVZNIOnBqJN3HNe5ur5cqFr/7UbbFXPNg7pzDgm2kolQ9NjTR7CZEEm7/EaMfTCTvSdLlqL6hJ130sJzod45SNjibYY7fASEVkTShm59IqEBcPKQ88FTxpD5sgDJTsXEim1AAs3BLrovzv602LG3eAhkNCFICCZ8pJyw7DpdMrN1Rb5b/EKpeJbhw1uDGWBO2mKFz9MqHdndnDMaBbv7MvLTkd3tVeBOA6nwFdz9RQ9EHzqUnDAG0mlA5bszBxcBZCF7DFd7N8l9q4EXASqhbCUruiEJZB6ypxFJ+/RXMZAPzwlEoGIBTCWWUwOJ9+MAIMjh9vaBOuQnO/xWmh0ehiOinPnwTg0k1bmJLTF3QBnZgY68+6s4sddpECGlVRohGZSQKYxGfb17Uf68+LVMA1A7sJWSsJXcARID82y50GDDNgIpFfNG1bSNCBwCRW/6OwFEMHErBkgEEDcCKlsysS+4r1rgsvd2xQJdyMEErefBX8RZeguVnqSrtIe26E4u58uBIOcLCu5wXx/sI9hKjKQNDw1LAMlS9MusRJwfOvxUQFIg4hty/x0MzqfKS2fvP4anDnmjwR7A6wDbe1GjKg0v2Vp8QB5H4Q7fmoRU6oE7vPFQxU67A+2n8tN5wWDogW10e0SwOjbS3VbRNtKh25Q+BA2/s2hAFdOpGiQaQDyff3MjuBJQsSit9HH8vVKFSfcNgEkWX4v5/CFY4pBOa2vIkYeUx0Xmw2O9KeHKWpRkMlV+h8DVO1DxYCdNXJMAbKdyscNPBSTbTomV2he6u62NXyCNkP8sTmm0/aEkyrQKpQ5tpT2rXZbiV2ArTcqDtUlZ3u8C5OiDfg+6Qg15/BEYWOgHtl2A+emCmC9CMpMbw4b0tWPOCLmjK2kbaXAQNOy0QCCgtnJ1INtJv9AIIAIpmUwqMGWDrVB7lnM/55W8BDG8dkl48MzZlyrUwtnZVJpIMfnwXAESpbSZQC6HJhBaEacEiRS6/akE4M0rFzv8dEAyIcpjCPTaeSbW+g+wjeaQCXMfPYsVDAqAgmCyoMolnAZ4767In5a+krmdS2peCZbLkdKfICpGBSSDgbm7uYrEWGcMyUzI7vaC3Y0rZF52qsPKOYryXEuDiKAJhUIKQAQUN/1bntNOtEuDiVKJQIrH4+qT+yvxrKw0+8eLBraiUUlAGjHHgzx/BHc4nE6crMPG5z6qqLqWWyLxegCTgTeoEQQ7fOiihD/9Iq3ilYkdfkIgcTRCnUiAHrKHBtt6jEwzP8HBsIj9RzcUG5Ft6QFBdGFvWL5f+UpeRidkI9kB6hA4UmzvQpfAfp5b6GdeW/cBa9jZaMp1JHocRVYgLi8fwfqjzMHgduQrBwttHQ0aDSR+lhtAfGZdNGgomQgkftJmyral9LFufOpns+CtSyBmySLT4clDESaW1IwHdvARYHIFSHzYDJigQqlkKcFb9yRyDQlTysQOPyGQMgyG2BJWLoCrm9sOWQxrmUY6aqinDyGQoskL8OBNyvPoVXm8eQXucARlYWU8ql55SxEgoloXBPm4GaDpa7NkrCsGNkM60SPVukpEvhJATGNF4HDT9pAeaHmfrUw7NZgIHkongkmrfNznduEzWpCICa6xhHx4NgmtkE7ed2CHM5r2GFvJNSDxwdEeTiou3pZ28SOxZAhh6eVih58MSHYCKtw23N2vxFz/BSCCLgxp5EDVS79tjgcSbaUEJNBGoge20mX5YeULSKghiCOqPfBsETRHX+aDMUEJRLWNQGoCFagXVKBBsBdGu5KgAiFMogK2EQcRJRHtIAKJnwQS91Wj0EYiiKjqadupEnaTvq+1uS7m3Iw4YIgbM/DkwT3OpWNUe+TrXEgNBSS3GgsvEtpKHqh33k6wwyGNGu7ek+DFcZXuWCWXzFevIupzIiA55g4mWyG6d56DCvSdmj9yAC7UErcsbvSzvoxLMmEvze+Ny/fvvoZ0uizRRBjzTb6jJVPOgxFEWqXj3VsZ+dqZwCoSFhwNBtIO84D0SW52lJZEGkiURJWQQuknO/y/lk7am6cBVQnJxNpYuzvg4S1JcnYKyfhBHVp+KwGs9AHHrWqX7Delq5JIN01GvaND3otK+OFsCN/7SgKcqO0fFB/oRCftrxKBxNFI22gdIJqCWodZ7M2fMW+0lBYfJaKZh1PFW0v0y+OtL+TF5iQYD72ylWxSjGyua0VgHFfYPpREPD7sN6S72ZTxrn2Vn66z1SdhrIrtpm1Ua5Iot720hNBA4qebkkkPRh1Jm0CyFFKHGEkbwPIwPi4PA8lUFSBhsBjwNnuSMSWVArc+hyv8Jla0QCQt3OHM70CpWWopEUgZ22h/AexuJL9AqIS9P4vFn6KnAlLSaZItc1CeRSfl29efYcK2/z2Q+PY65qkUkOCpa0CoeHebIYNIqXUJ3rquZiZ6pNHvrm1Ua5Iot7mqIZkIJh1Jm3q3IonnGCugDvnegB3OZCk5tpLrEomDhBsL2Q6gtHkiTWqdpQDspQDilhgAGD4hO7wkIDkWIl9TUXjq0uxue/clQLSBBotl3i7HDfn0c+j/KZFoKxkeUEi8DQj8uyz/8eZrebk1BvspgClduIozXjzVBJl20Odnf/JarQiAZEagEXDqhjqS0gpGg+pQ1Ybu6N+8Pu0gure1g4HAqsVClU47HrRXTw1gFyvL9jlgh2NeyXkBdzjWXaJ6pUYLOw7F7XooEGkgqTcv3eEYX5EGxQ733v5cJUtpBDs8eAJ2eElAskkF2p1XXjp766c0FUjNGdEblG4Q1Sol/Md2ZGMz0eBqYlQebX0pL6JXZHazTbYSGJxQ1WirqzbIAZIGF8dtCN6+Tqh0Y7CNmHKY4eMNCInhnBLPdaOjVL1Rd9pEYZAg+alpPiU0QcUOpTqn55lisZjr80y6fd6zw+ck8QiaDFQ8YweLlkHFU1laM2BytSHSg+D9LfCdKzPCShe50CP2VYSkX70lrZPIiXcCdnhRQNLsbnt/GXYR5owYsLeHLZlxd5+yIZRUUoyHLllO3pQXWxPy09txWdpHGloA5ABI75sh/ZcCCFe6Tkuj/rYUVLp42t3d5P66RvQ+ETgEkJ5w5T4OoFosfJkQTLSR9IQtgcV9bhQNJDIePKAPWeDexZ48gicPXrzlBZH9HeWlVR3sRgX0NXNBlNlvIGbJY0LLwlKa5uC4cjq0ffK5RIawaFmJ7PCigKTZ3dbeDMQ044ym0nNGZkalO/XAoZjnin0hidktcIdflf98+/cyB3KrnpzNe4sMkJrA7mZyxyHYRhfh7u7A6uN+SjKMZ7ahW4Ug0m5ufmovnVv3K8d1CaZcLx6/u1UUmNC3HtzX2dzEYmXT6VUtkPbYQS7xg+7J28FlqFUBEKkr4zdKJRjRYiNhCtnhjb/9WsLI1FoqO/xYIKm3WAI5zHag0kES2bs/YbFX8ukgllkJ1QCnfQNnEIGnY8PP743Jn9/9b5nCZO1mIiJJCxObcBhQMmUX3toHtBA4FxE+Tk5dpdjdrKe2jSiNqjlflN0mxfxNCaRtJap4/NsN1VfXRUsmh+xwxXjA3NKzh+KA8eBg0TKuVq46V40lfVaZPo8Ckr4FJTIZD70DEvzNlxJmTjwkSykld/iRQGLjKiDFVsWMQqWDl87ZewSVbgVV4LuE22lBpJ8mbXwyJ8pGsldebN+VpxuTyPEwBDC1quSNVPN0YfvwexPsoL42JMDv5gp7VkXY3XpgUKWLRCJKKtHBwP1noeh+5STt3t6emqzV+9yqP9uGjIcUGA82UrR5Xz5WjAcCy4kjbs0DOkrum7IclSkKSJioTYHU2tohfiRLCV5DNG2JucOPBhJ0SBszwRbZ3evg0pEGRGkEVkN5JNGHLcVxSHspZjUjFH0Y1CEEAL69DcZDH974iNdR9kf61mwfLlPZ1Zp2d491x7FQmFURBoO2jajO0clAaaTB9eET1fY32kr7+/sKSG7aSroVtCR0sMCzZ/qZCNQ8Z2EOy8NE0yqeGy+iYoHEua0Qcod39YIdfl0avvg9GA/IHY4XpY8pxo4pRwKJtpG5D2Iq2N32xn9BGuHBkeAEsa7Y3Hn7si0tJJBMIJHkq51x+XH1S4Snj8GDFwELApGkGRWPx7VFDBnu9iArEFYfvxCD+xsqAoUkCt+wbpVs24hq3VmSRtltQvBopwOlk5u2UvZ97ShsJUzSOq9nxIMVLYQrpzNHHjP/lBtMxQBJHQP1jveGZsF1lsK//wb5HW5KGOmO/XCRH1cKAkmpdAkktNgGuzv6EE4GhEnEwe7mzcr9sHlqyVusxAflUfS3cIdPyOxWl2wnG5U6F4AWEACgurAa/EQ/Avbg7u5qSWKpSjKd3WV3U/IQSNrdTfWuVueN8jTrB7s4r0SpxI22EoHk5gtIS20b6yylELNkLc6LIG5JQG51AC4BmMo6vooBUXaLQANzkiC19oAQ8NnvJXLjrjRcGpcgsrSy7keVvEDS+rK9vwhS6k+wjWAYIg8DJ2PL+qAFasY6U8XbRQDg29hlqHiT8tfla3CHdysgRUBAbUICoqELjlwfTCrbKIyVO5i72012tx4IVOW0t+68AIkSSTsd3AYTnQs2wioUD+8ZIqrnZxQ73AB9SJX0ACgwOorcXSqIeNkMkIxGhKCPXJbw9dvScu93SOE1DPPt6GmNAkBihhrkA9iZltTKvyOEnA6GkzMYinz0g8M0kEwngpwOncjQelm+W7oHVW9IkVwjoP30YrHk9FKVKelscZ/BwMoRSNn2EUF01oFE8FAiaSDRjnETSLqT2ZYmVkePT4H4PIN5pVfIPAS2ON3k7P/0f/roE3yeCEhkhyMbFuhLFsDEkPS2b/4JMUuT4qcKD02kUMkLJLK4HawmQdso9eb/we0Nn/8pGQyFKlBoPxuT7HBG0y7sj8rfNn4n09ExhKXjAQN+udKTlEtYjmW0B3kYoMK6yWDQdTxvQCJoqM4RSNpWqgSQtGS3wQ5PYJI2CepQ6sn9NDscUoFRtlUBkgIfcpDAVjMxgexHQsmWf/gXaUDClDDyhnOStlDJCyQbnDoLifCp0llL/wrJNJV+MPWqKHQp9/bTHT61e0dlHZqJDoCh2yS3BlNysQfrv7Z6QEwlKZWuevfqwCtrIGWrdvz7rNpIlDzaTqL3joCqJJAc3M/ComWJ+Qw7fAHs8L0d5H1ASE66wdOfJ/n/JBIpcx8LzPAUPIm+wVFp/qf/K03g4UV6esXfhJXoCpS8QEqBUxfbQXRj9BGCsf4LWTNfVxVIMasJPLwBeY2J2mfRG+IL98jtiz7p6wDPDXxXD+wpt0HE9tNAojqnKUF0PFDdO4uFQCJwCCDtBq8EkHRb4uZQJRDJi7mkGGwlC+qdH4klPdtb6M/MW/GkL+9yAAnpu1q++WdpJJCGQRtqaSnYzfmBFIvKfvQVPHUP8VDfYQEp8KL4QCd9qIK3L+4H0wlibqkRYBqW6b07SPg3KmPDLdLREkxT9XWjF3e5Ex+VDSTttaM0OstA4oClfVRpILETtL1pbaxLbBpZh5iEf+6FGHCHOwQZy0nG3ClAxFseSKTeAWn5+h+l8S6ANIo1lo5YFiYvkCxQghI7b+H2BuU9+q1IbL6qQGKqLhtzS3t2t2w4V8UKX5amdqRSCmNt0AouEFYHEodZ+Yqej+OE7P407KQpzFe+hGMLYRYnBtIpQcSnOwmQ/j8AAAD//4lLvsAAACRgSURBVO2dh3Mcx5XG38zmBUAATCIpggQzBWaZsuRsOZdDnetC3d94VVd1oe58Vz5Xne1zUE4UJYpJDCBBEjltnHC/17sNghBA7AKzOwtwu7CYjTM9Pf3NS1+/5xSLxVBWtKBaEL84If7sJ+KP/1aCxVsijlN7rPhu+16G4juDUk4elWr2pIS9ZyRM7zGHp2cioZ7GV07FfB7VP4cxcF1X0um0ZLNZs00mk+a9qI7Rzv2EjJk+yuWyFAoFsw2CwLzXjn4kEglJpVISzkxJ5eZ18W5+Lt6NzyScePK0Dzrvmmk6D8xcaOZHz37XrxSlOjsjyQND0v/DX0rvq29I/vCwpPoHnv3islfOakAKg4qE3oIBUvXhv4s/90XMQKoNTuj2SJjaK37mqFTyF8RLD0nAe+IkxQk9BjBYdmrRP7VA0oufyWQMkPS5Toit2OIGkh7f930DHPc6APryhvijX0rAJDatWRDpj6IE0sFh6f/Zr6X30uuSP3BQUjt21Pq1yv9VgQSK6E8ZIF2Ryv1/Zvt5HUi6hybvEKsctPm36ncZNw1meiTIDImXOy/VzDGpJl5CUuUAUpVHe4CkUsgCSaXTVgaSSqBKpdJ2iaQ3Ja9ckvLcnIQPRyV58zNxR++IPzkuYbFQm2/NTpQIQKSHDKol8ebnJHX4mPT/8h+k58JrktuzV5I93LTXaKsCKWRCBn5VPIDkjf6TBHNX+bmqdrox/9bYXSvfVrXN5S8poipd/qT4qHiF1EmpovJ1gdT82FuJYIGk23aodgoiffhzs1K8d0eCO7ck8eV1cSceSVgqSoiUqs2zJs4pIhDpEUPmflBalOyxUzLwq3+U/PnLRhq5meyaHVoDSDWR689/Id7Yf0o49yk7nweqldoJGjCtuc8WfxAilXaImzskXvaEFNLnpJp8iWOqegXIdUBbZCvZCaASSSWRqnVqK+nrrdgUNJ7nGYlUKpXMth1AUhXcASz++BOpoNL5qHQqjZy5madXrpk5FhWI2I8TAmJV1bN5yZ4akYEf/0pyJ0ckkUPrSabWvMxrAkkH1C+MiT/1ITrrFQkL1ySsTsYMpJqK5yTy4mR2i58+LOXMiFRTh8RPDkroZBmI1tpKCiZ1OKg6p+pdPp83oFpzhDv4A7VPqtWqAZA6HPR5O4AUVsoSLCxI8OC+hF8wt+7dlnASBwPSSFwmMePbcIsKRBzQCTxxvZI4/TvFOTYi2TMXZcel1yR7YAhFCDv8Of1aE0gq9oPKHCd8DxF8VYKZv0pQvM/hQKyoLaIqXrtb3VZyrK20H8fDKWwlnA8pdTzsaDmQ9IwtmBRIvb29Bkj63lZrKo1UElkw6WvrgGjVueg4hYs4sp48kuDubZFrAGnsPp7hBQQVN0FV3Z8zYb/SrxYAKbH/oKRff1OyZ1+V/PBRSQ9gOtDv513jVYGkndUBRVFECs2Kv3BNvMd/YHsDP8QiH9ZVvLjApLYSqpyT3iXSc0K8zAkppo6L5/Ja+/1UQdBTibzpgKpUUiD1YICqmrfeQEfeiQh2aG0jlUYqnVotjZbGaGZaQuwi/xamw/VPJVju7lYQNXNTihBIOm/UYZU5clx6f/BzySGRUoM7UevQgNbp05pAql0npI967xbvSnX8LfFnPpOgcA8wzYuTaPKEI7jwT3dRV/GSveLmD6LiHUXFO4sH7wAevAwqHupBCwFlgaQAsqqdqnrrDfbT/sf/TG+UCqDFxcU2xI+Q1joRMRccH6kz/ljkOloOQKoqoOanuS+qJOK6rTNhnxm5iEAU0i91MDhp7N2duyR3+qz0ffdHkjt6cl3byPZnHSDp3R0PXmmKANUt8aY+EW/iLZHyAw6Kzqhgiq3RNydFH7IS4g4P868imY5JKbFHPOMOb52tZIFk40kqmfS5Sqmt0IzazuSxgdiWe+scl5tbknuy2kbEiEbvivPFJ8Y28gFVUMLdncCQbyYeFxGI9HoF1bJ4qJaJXXul59XXpeccKt3IeUnv3beubWSv9zpAqn1NmQ5eYUo8JJL3+Pc4Hm4ygSsYX0zWWNQ7233dIo5TL4nTc47Y0ikpIp2q7iBvqzTFlmuBZFIg6WOreu+sk0GBpA+1kVpqG9WB5C/M4wXGwXD3piSQSPJoFA0H20ilVFy2EfNDQz1VHCCpg8My8P2fSv7sJcm+PCTJPmzu+rVePuNWe94YkDhRv1rERsLxMPmOhAufYybhePDn6qI4LkPbqnj94uSGxQdIynioJveJF3AXZJBa5cWzUmkreu8UOJYSpA6GVttG5mbLhPSmJqV0g7lz61otbjQzWbvP6czk87ardXqTDWBWoFb6PX2SOXZSBr/9JiHKEUMHcrO4vLVfDbSGgGRVAb/wBFc4fn/c4cHcR4DpSWfYSglOGMdDjTp0CQ/eYfHdPpRSpQ61jvFgwWTd4Lpt9A7WwLWJ/CtW6liVTretBpGOR6hghcXgPXoglaufSEDcKPH4obilheYlkY6KAkAfm2zqJVR1U/oGxD1yCnXurPRfvCz5oUNiQPScuNHKQzcEJP2RAVN5FurEvZqtNP4HkdK9jrCVHJwLbjJtJFEheUaqaUitucOCbG4LkGxg1gZpO9VWUtBYV7d1e7cSSPamEhQWpYpnzrt7S8KrH4uMjYpTxPsLwIyru8G7vpm8EYFI92VsI9RNdXfnv/sTqECXpffwsGTU3a32Gippo61hINUOXDS2kj+LO3z8j8QDsJVc5UVV+bgxEdhox5r5nuOgwvHwsI1KLjYSsaV2sMPtRFluK6lU0tf6WSc1vRGqbWQBpA6GVseNdAQS2LD+zIyUCbr60ICcLz4VmYBPZwenmXGKCkTsRxkMSoXz6EjqyEnp+9EvJI+7O4fXLkWQvdnWFJBUFAYe6kDxISoe/n8Ctf7i9aeMh9jAxMBwaZQdHiTbyw5XwFimg0oku7xC3+sUMFmVTqURbH/jYGhH3MjF/kioIwNpVNGY0e3rBGGRSlCBOoLBkCd8cuCIpE+ekR4YDJnDRyWFgyHBzbDZ1hyQQLK5KJVpItFf4mv4VPzp9wDWA47bSYwHZYdfNIyHKu7wwFV2eGvd4Qoa6w63Kl4nxJaMSo5Kp9JHpZDl1FlwNTthmvm+gycsoYwFqEBVqEDePZZI4O4Oy2gxcXnpOAFLBUrs3ieps5cle/qc5I6flMzel5q2jex4NAUk/ZG5MFCH/MUHAIk7zNy70N7vdhTjgQAAcaUzOB+OSwnHg5dgQZaqBU8VCnv+kW2tZLJqnqp4Cqg4JZMFkUoidSwokPR5K+2iZwYUEDkaJ8K54F35QHycDaGHGQCw47SNdB6oBpN6+ZBkLn9bcq+clxwOhnQ/3t8mbSN7vk0DSX8Y4ArXuJJKJeO9I64Ulh/WwKQ6bzN6r+1JFNu6Du2kau5wT4GUhouHuhcSvFWNvZVNwbRSMimwrGTSz9rRrLRR9c1KorbEi+zJAZRQVTpWvob370pw+wvxrxGAnZ7gEsTHYDA3U40tpjPi7ujHNjoh+cvfkuzxU5LbtVuSG7CN7ClvCEjWVvKLjzEkP5dgntjAIkstKuM1ELVpwtiTWNrWgSSwHZzMANShQ1LJsMwCdniQ6Dfs8KXvtujJcsmkqt7yR7u8edY7p9LHPtoTL6oNqrqUNfgaPHoInw4bGkeDM3ZPpMBSnBgZDCZm5FXEHdglCewiVel6Rs5JFq9dimUSyvDeaNsYkOq20lN2OBy8WQK1RXh4xG1q9lJ77r7Pnjjqm4IJd7iDOzxIw73LwnhIHxMvtZ/YUq/5+NnfRP/KSiar5imYVM1bTTJtVkqp9LFtuSSyalw7vHP2+HarTO7qE26y97+UkPVGApvBWZgTh0nclG1kb4x2x5vZ1vcVMi3d/S9L+uLrRqXrOXpcsnjqNquCbwhIej7mAlp2OG5wD1JrsMDdp4I4D1hXYqRSTGAy3kOOrStpcyMS5FhFmxmG1DqIC1gdJpu5Io391komBY8FkgJLL5i9aBZwGwWTBY7dqiTSh1XnVBq1wzu3ckR82N2Vu3fEv33NcOocvHa1c+Sa6LxoRGOJGkTKYODmGqpX7tBRybF8PH/ilPQoqMjFsNFrYM99w0Cq7cCyw+9Lefw9nA/cfYp3CLTh3owNSNqzmmTSlbROlkV/2eNSzY+Ix0paL0hJEDYeaKud58b+W6AogBRMCip9KJDs1n5n+YVc/ny1I1vg2K2CxwJGt/pQECmg7HdW20+U75k+0w+z8pW1RqXPr4h/85q4d2+ILMwaZrWxjxo5aJQg0uPRL+I2pCfok3A/TgVsot7zr0ru8BHJDgxIEirQZtsmgaS3dqLlUIcKk59DHboqicLH4lYf8X4c0mj5cNA3ww7P4707BJBgh6ePoN71S8BK2nY1CxQriXSrwNKHgmn55xZA9j372vbVgsJKHvtagaOgsXbQys/t71u1tf116YNL4hL/7m0pvf8X8fDWicaM1FOHNOCE1+9C1CDSI9aB5AzulsTp89hG56XvzFnJ7duPycZaskb6tU7PNwmk2t6r5TkpzD3AgwcZceFtOFS4w/0SgkHtpfgBFaT2iQ+Z1SfHg6bw8llJ2w71buXY2wlnJZSCSpu+b0FlX68Ekfki/xQ8VgLpc236ut0SyBy4/s+el8tScRdiqg8ptfTun8RjuYSZxDoFGo0bRQkks6+aq90BMMkDSCNoQLlXzkovi/d05WtULRIg+T7xCYJsQeGOCE4HWfyC56O4wyEldoCKJ0niSLDDgyyu8LwmS9nTNltp5YVamnR1EOnnVlotB8/y58v3YaWQlTr2M31tP7PvtXNrzmt2Wtx72Eak1ip/+r742EbGS2cX7LXbNlK7SL10JDJxXzoAu/u09EBKzSqIcDDoyteoWiRAsnfJoMg6/DnYvdhKwQJgKuMO7wDGg6PMhvROgHRc/L7LuMOHpIqt5IcNqBpRjfRz9mPBtRZ4Vv7UAka3HdEUxNhkMv5IHGwjjRtVlVu3iKcuCd2mUdUpcmmEDc9aI7cf/hwgUnd379kLrDU6uGEGw1rjHQmQdOcGTOUZ2OEE4EjjFSywzIJkKZ2R40FtEQKy2SHIrK9hMx2TIrnwdCVtp7RGQWT72zEg0mtfjxuZbEAfvk0Q9g6LP6EGYTMZELVbEikgkUb0DHGfkOQ+pNGZr0kelS5/4rSkd+/eMIPBjv/KbWRA0h0/ZTzcIq70AYNJspQyaZZ8ZYijKDcyoCt7GMXr+p3OwR3u9Jw1+fBKSRwQ7kAtv0PsdlwUJ9n+fVjJqIkegzFs5Ns4F66+L4LXbul6N3LNo5REOgzWuYCDw8XdnYKMmr3wdckCotw6qYc3OoqRAmmJ8YB95E99gGQin3PxNmK/7g5vZFA3eibP+50FEumOncwBcjuQLCXLuqXkfoCU47HxiPbzDrvdP7NODv/xmITXWB4BkJyHd0zwtUYFaiDMEDWIdNDrQHJ7oQENwe4+8YpkcXenh1hrRPq05AbY3etdy2iBxKAYFa84TiiJZRaspg0KUIeQSp1gK2EoobPb3OGww9PDEFoHcYd3joq33gXrpM99JcGShciH1R1+9LY4SgVqhsHQChDpPmmqKif2vCTpU1CATp+RDI80rzWeZ72lUY5lpEDSjtVspTljK2nK43Dhwxp1qIPy4T1lh5N1CB6eh4rXbc2PgCZ61GURmp/O/+gtEj2SXcpoHXU1fjUNpD7RzdGWP2/+8F/9he4P28iBGOv2IHlePixpJFH2xIjkDvGcsizav2bt0a8e6KvvRA4kPYTaSn5xCq/NbTK0vl+zlSC0hj7Li+1Af7UvbXiHgWawnUSN8aCJJUtZ8uHBeDC58Lq2UkPXwNpG4RRsbkAUUNPI1zx1JDPR3HDPZTDoZI8aQLbXVqXD3W2kEXnpslCBMkdPGD7dZtjd9hBrbVsCpFD998SWgsJ98juwDmX+KlIJ8a/Uodgnq4p+8uG5WQK02Eo934SHd6RrK601Q1Z539pGAd45970/YxsBpukpIZi4PoOhDUBK9A1KavgYKh3sBeJGmYOHsIuym2J3rzIMz7zVEiDZIwSlSRJLIvaxlcJFcjyXMEq1ooXgFo0TUPWLGWReFq/3dbx4J7GVdCXt2vVv7Dm96FtVi2xdI82U6r79e2yjL2sG/noMhlaCqC7ltH/Jl/ZLduQSfGWAdOqMpHbjrW2RSmfnQ2uBRGZ/H/qQv3BTgqm/AibLDq+7w+MCk72gKdzfeYK0mZNSoqqFl9htx6W7XWUE7GS0dY18VDr3yrvUNSIFsa4zeh6DwY75Kvvd9Fu672W2kcnd/fp3JHPyFWJGe0lrjbfWmBSbPtKaO2gpkIzjAb3VX9TEkiyzmMeDRwovTcxvgmVrdqvVH9T0dMt4UA5epec1vHgwxUNqmmqSfnOHUzWw2+wIqMAxWYEeP5LilQ+p9/q5OKN46hphMLQaSGQFcnMkMyHNcI5Fe31vfEdyR45GzmCwY7Fy21Ig6cEUTJpY0puGVq8raUvXREgsqUnL+beyP218rSCpMx7ywyKD30LFOy4Ff4AUTbjJW5gspY0nGemhbFag4M5NKf75f2F33yQPfNEsnViXwdBKIHGWRlrCn0tCBcrh8t5xgbTDsLs3moOh2YFrOZC0Q4EmllwgSGuoQzAelB1exYNn7CW9z8XU6hfXyb4kiYFLUs2dlkXniFQErx7M9VbXpI3prJs+rE5Sjb04LJEI1d2NSld55//EJ9FjQzkYWgki3beqlARZld2dIa1WHruoh7VG6u5uV2sLkFT6+CTiDxYp4TH5J3h4VP+D0LpEHYrZVnKS1L/J7UUivSKLuW/hDn+5C6RlM1CXeGhWpADqT+Gj96QCiyG8d0tkHi/sejkYWg0i9RCnMhL2DxqbaODbP5AcVKAUdlGC5f3tau0BEoNp7KXCA/Em32ElLR48dYdXqYujxMLYGsfWC13P8eBnj+EO/z7u8OMsV4S1zPsvuq2k0ijBI+VSPBnv3MIffydVtY0aYTC0EkQ6Z3T/AElzdzsHj1AY7LwMvkF6raHDLffSrZyybQFS7ZxZkKbs8Dno9VpKc/EDcoeT56wjbCVVL3mk90nQcxHJdBrGQ20B4ItsKxm7Q71dVWKC8/PkYGB5xJ9+JwGA0s/MmOnWPF8xtVoNomWHS2jeBUipWtOol0SPaars1fq37Estfto2IOl5WMZDdf6aVCfJHU4+PDcoGDXKXJQWn+zau69JpiXGA0Aq5L9mGA8vOpDUNgo0mckdboA3CKxfxcalcPJz1xm1C0TYRqFmaCI/Xa+qdARgNSNQKxkMa82htgLJMh7KszdkbvR/WAB4VXLOLKoDy9LtHW6tnrb8fcBUZzyYgmV9P4IlfuSFVu30rm6AxJLxyl/w0t38nBXQ2EVaCkUX68UsiUISPYa9OySLc2Hnmz+TPNJI83ZHkYOh2enWViDZzpXnH8j82NvizX4imRK1coJpTp7YzWoXxv4o8q1KoVV2yt3UI55U7PmuUfGctJb4oLymrQC4yk+221sWQGRTgeZFMhMA5P3hv2sJ8E3QdY1r1S5JpAPOsRy8colDx6gicUEGvv5NU2UvrmsRC5DUg1cpTsLD+1iCh/9FBk7Kw7S1Jm1NlVsVSLxZdQZk0SXjEPnDE4OvEdQj5bFXhN6kyVy2f1vy0s3NycKX1A4m3bD78V9ZSj4mQYr1W+qps03BY9vy5/a9Vmz1ODgZdH1R73comgyQMthJWqoyrhYLkCx7WGvSlu/8CyreFe76UdWkVZA0MJzmoq/+RS/MSDHoA0gj4u75SS1xCiRcE0B+zu8aOOqW+IoCSdfteI/GZPGDtwDSFUmO3jIMhmeApGNhxqONp6XH05gW1fRyp16R/p/9WvKsNWq2wl7UPY4FSHoShvFATdrqoz/W3OGR1KStX9jV8bFi7Nb+UgBFKIAqpIkl/cEfUCLmpFn8FyoT4gVgPJhro4kmyUvn//G3ZqmEA7Pbge6l9VZNJbu4QIQkcjQrEIv08lSR6P8+EomsQO1iMKyYREsvYwOS9kDZ4R6lYfzpT6AQkTucihaOpqnajK1k7pBrg2TpzBt4EqT3ww7He0faYy8zDDsc1UHZGLFSmxro+Ca/4mMXVabGzTojR9ndD+8jATTB47Il+e2WRHpOut6IcEli1x6SmVwyFfZ6z19inea+TZ7x5n8eK5BCv0xQdgEQfSzlu/9qsg85acS2gmnDLRoQ6eHDJEn3M1QAxFaq9L1JIv6DqOYVbCVdBrJ9W0Barcqn5NwgP507SszIVtizN7g4QKTDjTQKkYxZFurt+NnfSu7cq5Ii5XAigpTDm72asQLJdt6bvS6lu/9BiZhPEEbkQhPc4Z3Q8FBpvEQXAFb7vis+QdoAiaRu/G3ZKNUQ+qw3Gh2T8rtUYrxzBwbDPCWCcXfbFgeIOKbWfFWXe0BSxxyB152/+HvDqVMPY7uDr3Yolm87Akh+YUKqU58Zd7jmeJDK2PI+xvdc78BUtg5Jxh9mX+ZCkoRdC1XFMZnaMAoKIr/oSuX+ghQ/HBPvITc1H+lrbxwxnbctVRn2k+Tz+IhkkUS7vvYNyZNaqxNApJemI4BkGQ+mJu0EFJRF8qN1klFfl0xYtG2YzjEcos72CQquVCeSUr7vSenGongT2INxq3MqjVClXcwAl1KV7jd/KLmzX5Mdh4Yl20Z293pXpSOAZBkPPmmOvbHfsNyCpemaN9wss1jvFNrweV0y4Xdtw8HafwiErnHEeVMJKdxSIBGUnihyQ4vZFlQJaKQhYOIaZE6OyI5f/B3LyC/A7ibBCYnxO6V1BJDsYPiLVL+e+CsqHoHahduoeDNcYFWv7De626hHwAgctY08hyp7rix+lpDyGGz9IjVgq/HagurU0XTITiZHHoZ9kj/7qgz8+OeSIztQp7XOAlJlQSqFxzAeSMQ/RvyiwDLmFF68RBdJrZg4NUHrwMrHwTALgB44UrxJraUJ4kU+tmAQnQd0I/0PcHJ4ODsSe/dLzxvfk96Lr0nv6RFJ4/7utNZRQLJpnjwKPPuj/yYhpFYnUUKsx6xidNpVi6g/Fkj+vMuKlhRACqUyWiHrU7ySyDhzcOoEqHU+zo70kZPS/5O/QSJdjI3dvd6QdxSQLHXIp6JF9QkraXUBYPkeQbi59c6j+/kGR0DBZGyjG2kpPyS/xlRZgmLMQAJAWtdIVTpn115TNLn/ez9GpTsRG7t7veHtKCDZzi7lwyOuFMyRqbX0kI/iVTNs37bPVmNGjCpqXQXbqHg9IZXHnWEbab3XsFKSxE4YDOSny5+7hFpHokfy1XVq60wg1fPheRQt8x//hvzh1+uxmy6YoplI6sDBNirgYBh3cS6wxAhPnT+NbeSBrphtIwukDNXH+374C8NgyEADSvT2RXP6LdhLRwJJVTy1lzTrkHGHz6LiVciFF+DB6XrxNjUNVJULDYPBxcEAiO4jiVDpquNVPKUqomK8WWnMqM5gEIipuVMj2Ea/kjxu77jZ3esNekcCSTttGMiLRNcn34eLh2SauUruAJK0d714613TNT+3zgV1dfsEXysTCSndS2CPctOagfpUitepYxkMDgwG5xgVJM5ekv5XKRCmDAazIrdz43gdCySdDTYfnjd1RbzxPxHbuAv3LUAqxXjXXHOadv4HBkiEEgKlAU3yeIxEGsX1PYVKF3fcyEgjGAxeWRIHhiT1xg8kC4Ohd/ioZCCmdnrraCDZfHj+HEudH5PjYYGcAVpGM4S60m3NjwBIUoaAP4dz4R5AwjaqjuNmno/ZNlJ10jIYYP6nj5+W/I9/BYPhouR27JBkllIxHd46G0gMsLGXFu8ikcjsafLhaYHnrju82Xml0mjJNpp0WN2Ptw4Gg8aMwlLMRFxA5LA8xUnnxNW1RizY633zp5I9dqplFfaaHb/1vt/RQNLOGyCVplkAyGpN4w5nASD58Lqt8REwKh1OGmsblcdgMHyBgwHbKKyoNAJIMTaHXBhupciCPUpTnrss2TNIIvIw6II9XfbeKQzv5w1RxwNJO2+rpWsS/mDqD5SHuUkMRFW8FyMZyfMuYKOfOQ6eUGyj6jSkVMJy5VtBzTbSVaeqWsXR9LgwGBCWAIZsroeOSOYbb1Lv9bzkTDKTPgOiLpAiujhL1dJNeZh30Olhh2t5GE/Lw3TbeiMQEhcKqxpO0JhRijwZxI8eQ7/BNjIgigtIdQaDa0pV7qP6+Ijk36CuEQkftfq45u7eCiDS8d8SEknVO6Pi1aul+7MkcV/4mKg8Ba66jIf1cIRERxoVUOXw1JVHkzgY8NnEbRspeJXBABUoMbBbUifPkofhouTJwaCptVpVfXzdwdrgF7YEkPTcDJCo/ufBw/MJ0Aazf8ZlCw/P3E1jUk02OOjt/llQwsU9oxQgh9wYrDWajNk2MiBSBoUGgINaOZavUxhME5rg7k4PkpSz7mFs91ht9HhbBkh6gtZWClgAGMz8xaykDam9pElUuoyHZ6dAzUun8xRphEpXGU9JBZWuwupXfwZPnU5mcxN69ndteWW9dGQlcqiyl2R9Ue6bb5rUw7ndSCdKsmy1tqWAZG2loEhR54VPDduhOkli93KX8bB84i156ZRmhWvbm1HbKI1tRNzoCWmIF2J0MNBR66VzydudOHRCUlTYy176uqQPD0uGla/JDlr5unxcn/d8awGJO6ixl7QGbek+E+RT7rLUpsUJ4SQ8pBITpNtQi5is6u7GNvIWWGM0gUoHp+4Z2yiucTKSECqS2kZ79ksGd3fmlQtIIxbs7dm75WwjO4xbCkjaaaOSBKTr8mfxOt3A+/QWW6qle1PofkV7Xi/8VsHklyCmTqPWIYlKy2wjKk7HMz4KItQ6LCOpkj88MTQsO17/Nqtez0nu4JCkd/RvOdvIDuSWA1Kt42qklk219OrEe6h4nyGVvuQO3M3xULONNPgKkBbUwZA0DIbKA8qP6srXuOwivXB128gnEX+FtUap46+YKhI9x7CRBgYllcvZebnltlsUSHpHRf8nv0N16iqBRSqmT39EspTHLzQ7fEmlU3b3IpJI3d0PcHcru3uKqnvFuNndNQaD4O4OT51n0d4F6SPZY1bd3fDpEsllKZG3GJS2KJBqo1xjh8PDmya55OS7NXa4iwfPUeXhxWsWSJrMpDpNMpNHAOleB7C7jV2k9quWJ6AUwf6Dkrj0DcliG/UcPW7yMJiq6XoCW7RtaSCFfsmoc/7iHaQSuaqxmcIydWk1J94L2nQu+gsASFU6qECVB9gks8SN4swKhEqngVchEb9WH08ePiY5ar7mTpySHqRRGob3VmEwrDWttjSQmDLGVlJ3uDf7GROGh6EPTXC+MRnUa410i99XABl2tzrEcDCUdJkEK1+9Ca26F6M30zgYYDBoWZgenAmHjkMFYpkEGYFyh8iWylqjZAckwd/s5dniQKrZSkF5CpvgNkAitkR5mKAAO9wY1S8GmKxKZ9jd2EZlvHTF63V2d1nZ3TGNgwERNztSaunassTeA5JRSYRtpNIog7tbs6XGUfN1s8BZ+fstDqTa6YTeIrWWnqDSkONh4h22t16YHA/WrFDrwi+qbVRjd5dueoYKFIuXrm4TmUypVRj6OBE0+JoZPiH5y98yuRiy+w/EWqpyJRA2+3pbAEl9vUoT8gsPa46H6RrrYbvneLCSSLP++GUypLLyVdndSgWqjqHSzcfkdKnbREGFa6Iphwd31wipkFJ7WWeUfXlIkpRncSmvuV3a9gBS/Wos5XiYuYHz4UMJC0pqXeRBABemsXqNNA8+C663x/XjXLQmW6BLJEh4XxlXBgPubkjx3jTubsAVV1NlUstkapLH1NCw5C+9Tq3Xs8Yu2sqB17XGc1sBSauOh1RM90sTOB/w5M3clGD6GsHaB+BonjGoiJvUioDbBEichkolBUx1GiA9CqRyB2kEn666QMbUakxxozTF2Xr7Jbl/SHpPnZWeEwRcqfNqctPVJdFW99KtBNS2ApI9OVtvyZu7TyBSPXkAqTKHuVASVzl5ToxeLNvJCLdBCT7dLOAh8OqRh8GbwT4qI5EoqNzOpiVLnSQ1pGB0hzt2SubgYelDlTPeuZ27JAkhdbu2bQkkW28prBaRULPcmZFSxDGCKmqeEl6xp7ZTI2+I6Kl5LN5TuqF66UJAZHiJbTxRN5WRZG+PJHpYGqGrXtmmKAaWQAolMplt4Z1bazi3JZBWnqxOKM3cqoCqrV/qkBq1Kzu6wdcBJSursBmMGbjBfUTxMweVLmlAlN2yLO6NjsMLASQdHLP8Am+SqQKodWC3UbPhGt3G2RxTIhRXdz3zz3azg543ti8MkJ43CN3PuiOw2RHoAmmzI9j9fXcEGIEukLrToDsCEYxAF0gRDGJ3F90R6AKpOwe6IxDBCHSBFMEgdnfRHYEukLpzoDsCEYxAF0gRDGJ3F90R6AKpOwe6IxDBCPw/JE1ZEJe5PzQAAAAASUVORK5CYII=;" parent="90" vertex="1">
                    <mxGeometry x="25" y="40" width="60" height="55.43" as="geometry"/>
                </mxCell>
                <mxCell id="89" value="&lt;div style=&quot;font-size: 14px;&quot;&gt;&lt;ul&gt;&lt;li&gt;refresh token for Fitbit API&lt;/li&gt;&lt;li&gt;database ID for Notion&lt;/li&gt;&lt;/ul&gt;&lt;/div&gt;" style="text;html=1;strokeColor=none;fillColor=none;align=left;verticalAlign=middle;whiteSpace=wrap;rounded=0;fontSize=14;" vertex="1" parent="90">
                    <mxGeometry x="510" y="55" width="240" height="30" as="geometry"/>
                </mxCell>
            </root>
        </mxGraphModel>
    </diagram>
</mxfile>